Pabavathee.glyphspackage
{
color = (166,255,153,255);
glyphname = exclam;
layers = (
{
layerId = "B33422F0-91E4-47C9-8809-C0A5C4DE8881";
shapes = (
{
closed = 1;
nodes = (
(178,604,o),
(187,589,o),
(185,563,c),
(162,567,o),
(146,552,o),
(137,519,cs),
(130,490,o),
(127,443,o),
(128,379,cs),
(132,227,o),
(117,143,o),
(84,126,cs),
(73,121,o),
(65,118,o),
(58,118,cs),
(49,118,o),
(39,123,o),
(29,133,c),
(72,159,o),
(93,235,o),
(91,360,cs),
(91,367,o),
(90,386,o),
(88,415,cs),
(87,442,o),
(86,464,o),
(86,481,cs),
(86,566,o),
(106,608,o),
(147,608,cs),
(151,608,o),
(155,608,o),
(159,607,cs)
);
},
{
closed = 1;
nodes = (
(86,80,o),
(104,62,o),
(104,38,cs),
(104,14,o),
(86,-4,o),
(62,-4,cs),
(38,-4,o),
(20,14,o),
(20,38,cs),
(20,62,o),
(38,80,o),
(62,80,cs)
);
}
);
width = 203;
}
);
unicode = 33;
}
{
color = (166,255,153,255);
glyphname = percent;
layers = (
{
layerId = "B33422F0-91E4-47C9-8809-C0A5C4DE8881";
shapes = (
{
closed = 1;
nodes = (
(286,520,o),
(302,516,o),
(315,505,c),
(282,494,o),
(260,483,o),
(251,472,cs),
(228,447,o),
(211,396,o),
(200,321,cs),
(187,236,o),
(177,178,o),
(170,147,cs),
(152,67,o),
(131,20,o),
(106,6,cs),
(91,-3,o),
(78,-7,o),
(65,-7,cs),
(52,-7,o),
(41,-3,o),
(30,6,c),
(93,46,o),
(130,143,o),
(142,298,cs),
(153,439,o),
(194,513,o),
(267,519,cs)
);
},
{
closed = 1;
nodes = (
(74,392,o),
(82,389,o),
(90,389,cs),
(114,389,o),
(127,413,o),
(127,438,cs),
(127,457,o),
(121,474,o),
(108,489,cs),
(101,498,o),
(88,497,o),
(69,487,c),
(73,497,o),
(77,505,o),
(82,510,c),
(81,513,o),
(77,514,o),
(71,512,cs),
(65,510,o),
(60,506,o),
(57,501,cs),
(50,490,o),
(46,476,o),
(46,461,cs),
(46,432,o),
(53,412,o),
(67,399,cs)
);
},
{
closed = 1;
nodes = (
(84,531,o),
(90,529,o),
(94,525,c),
(100,529,o),
(106,531,o),
(113,531,cs),
(141,531,o),
(165,499,o),
(162,462,cs),
(159,423,o),
(145,395,o),
(120,378,cs),
(104,367,o),
(88,361,o),
(71,361,cs),
(27,361,o),
(-7,401,o),
(12,464,cs),
(25,509,o),
(47,531,o),
(77,531,cs)
);
},
{
closed = 1;
nodes = (
(232,31,o),
(240,28,o),
(248,28,cs),
(272,28,o),
(285,52,o),
(285,77,cs),
(285,96,o),
(279,113,o),
(266,128,cs),
(259,137,o),
(246,136,o),
(227,126,c),
(231,136,o),
(235,144,o),
(240,149,c),
(239,152,o),
(235,153,o),
(229,151,cs),
(223,149,o),
(218,145,o),
(215,140,cs),
(208,129,o),
(204,115,o),
(204,100,cs),
(204,71,o),
(211,51,o),
(225,38,cs)
);
},
{
closed = 1;
nodes = (
(242,170,o),
(248,168,o),
(252,164,c),
(258,168,o),
(264,170,o),
(271,170,cs),
(299,170,o),
(323,138,o),
(320,101,cs),
(317,62,o),
(303,34,o),
(278,17,cs),
(262,6,o),
(246,0,o),
(229,0,cs),
(185,0,o),
(151,40,o),
(170,103,cs),
(183,148,o),
(205,170,o),
(235,170,cs)
);
}
);
width = 336;
}
);
unicode = 37;
}
{
color = (166,255,153,255);
glyphname = parenleft;
layers = (
{
layerId = "B33422F0-91E4-47C9-8809-C0A5C4DE8881";
shapes = (
{
closed = 1;
nodes = (
(199,443,o),
(182,449,o),
(168,449,cs),
(152,449,o),
(137,441,o),
(123,425,cs),
(88,384,o),
(70,328,o),
(70,257,cs),
(70,188,o),
(77,136,o),
(92,102,cs),
(109,63,o),
(131,44,o),
(158,44,cs),
(169,44,o),
(181,47,o),
(194,52,c),
(187,20,o),
(154,-5,o),
(118,-5,cs),
(81,-5,o),
(53,14,o),
(36,52,cs),
(21,85,o),
(14,125,o),
(14,174,cs),
(14,203,o),
(17,234,o),
(22,265,cs),
(30,312,o),
(48,361,o),
(76,410,cs),
(111,472,o),
(149,503,o),
(188,503,cs),
(212,503,o),
(224,489,o),
(224,461,cs),
(224,452,o),
(222,443,o),
(219,432,c)
);
}
);
width = 229;
}
);
unicode = 40;
}
{
color = (166,255,153,255);
glyphname = parenright;
layers = (
{
layerId = "B33422F0-91E4-47C9-8809-C0A5C4DE8881";
shapes = (
{
closed = 1;
nodes = (
(29,57,o),
(46,51,o),
(60,51,cs),
(76,51,o),
(91,59,o),
(105,75,cs),
(140,116,o),
(158,172,o),
(158,243,cs),
(158,312,o),
(151,364,o),
(136,398,cs),
(119,437,o),
(97,456,o),
(70,456,cs),
(59,456,o),
(47,453,o),
(34,448,c),
(41,480,o),
(74,505,o),
(110,505,cs),
(147,505,o),
(175,486,o),
(192,448,cs),
(207,415,o),
(214,375,o),
(214,326,cs),
(214,297,o),
(211,266,o),
(206,235,cs),
(198,188,o),
(180,139,o),
(152,90,cs),
(117,28,o),
(79,-3,o),
(40,-3,cs),
(16,-3,o),
(4,11,o),
(4,39,cs),
(4,48,o),
(6,57,o),
(9,68,c)
);
}
);
width = 228;
}
);
unicode = 41;
}
{
color = (166,255,153,255);
glyphname = asterisk;
layers = (
{
layerId = "B33422F0-91E4-47C9-8809-C0A5C4DE8881";
shapes = (
{
closed = 1;
nodes = (
(215,614,o),
(224,608,o),
(232,595,cs),
(238,584,o),
(241,573,o),
(241,561,cs),
(241,557,o),
(241,554,o),
(240,551,c),
(229,562,o),
(219,568,o),
(208,568,cs),
(190,568,o),
(179,558,o),
(174,539,c),
(193,533,o),
(206,528,o),
(212,525,cs),
(225,517,o),
(232,507,o),
(233,495,cs),
(234,467,o),
(204,442,o),
(179,443,c),
(184,449,o),
(186,455,o),
(186,462,cs),
(186,469,o),
(183,478,o),
(177,488,cs),
(173,496,o),
(163,502,o),
(147,507,c),
(147,467,o),
(138,444,o),
(121,438,cs),
(117,437,o),
(113,436,o),
(109,436,cs),
(88,436,o),
(66,453,o),
(59,472,c),
(66,470,o),
(72,469,o),
(77,469,cs),
(102,469,o),
(115,495,o),
(112,520,c),
(97,514,o),
(83,511,o),
(70,511,cs),
(53,511,o),
(42,516,o),
(35,527,cs),
(32,533,o),
(30,540,o),
(30,547,cs),
(30,572,o),
(38,589,o),
(54,598,c),
(53,595,o),
(53,591,o),
(53,588,cs),
(53,565,o),
(64,553,o),
(87,553,cs),
(95,553,o),
(103,555,o),
(111,560,c),
(104,570,o),
(99,580,o),
(96,589,cs),
(89,608,o),
(91,623,o),
(102,635,cs),
(109,643,o),
(118,647,o),
(131,647,cs),
(145,647,o),
(156,643,o),
(165,636,c),
(154,631,o),
(147,624,o),
(142,614,cs),
(137,603,o),
(139,588,o),
(148,567,c),
(151,574,o),
(156,583,o),
(165,596,c),
(178,609,o),
(191,616,o),
(204,615,cs)
);
}
);
width = 279;
}
);
unicode = 42;
}
{
color = (166,255,153,255);
glyphname = plus;
layers = (
{
layerId = "B33422F0-91E4-47C9-8809-C0A5C4DE8881";
shapes = (
{
closed = 1;
nodes = (
(131,211,o),
(110,214,o),
(85,214,cs),
(57,214,o),
(34,206,o),
(17,189,c),
(16,194,o),
(15,198,o),
(15,202,cs),
(15,217,o),
(24,231,o),
(41,242,cs),
(54,252,o),
(69,258,o),
(85,260,cs),
(118,265,o),
(143,265,o),
(161,260,c),
(166,281,o),
(168,300,o),
(168,317,cs),
(168,347,o),
(160,373,o),
(144,394,c),
(175,390,o),
(199,373,o),
(216,342,cs),
(221,333,o),
(223,317,o),
(224,294,cs),
(225,275,o),
(224,258,o),
(221,244,c),
(293,244,o),
(339,250,o),
(358,262,c),
(353,231,o),
(329,209,o),
(288,198,cs),
(262,191,o),
(236,189,o),
(211,194,c),
(210,190,o),
(206,176,o),
(201,151,cs),
(200,144,o),
(199,136,o),
(199,127,cs),
(199,94,o),
(207,71,o),
(224,58,c),
(217,55,o),
(211,54,o),
(204,54,cs),
(188,54,o),
(174,62,o),
(162,77,cs),
(153,89,o),
(146,103,o),
(143,119,cs),
(139,140,o),
(141,168,o),
(148,205,c)
);
}
);
width = 380;
}
);
unicode = 43;
}
{
color = (166,255,153,255);
glyphname = comma;
layers = (
{
layerId = "B33422F0-91E4-47C9-8809-C0A5C4DE8881";
shapes = (
{
closed = 1;
nodes = (
(36,34,o),
(53,44,o),
(77,44,cs),
(92,44,o),
(104,38,o),
(113,27,cs),
(119,19,o),
(122,9,o),
(122,-2,cs),
(122,-13,o),
(119,-25,o),
(114,-36,cs),
(107,-51,o),
(96,-64,o),
(81,-76,cs),
(65,-88,o),
(32,-101,o),
(19,-98,c),
(48,-78,o),
(63,-54,o),
(63,-26,cs),
(63,-12,o),
(60,-3,o),
(53,2,c),
(44,5,o),
(36,9,o),
(27,13,c)
);
}
);
width = 162;
}
);
unicode = 44;
}
{
color = (166,255,153,255);
glyphname = hyphen;
layers = (
{
layerId = "B33422F0-91E4-47C9-8809-C0A5C4DE8881";
shapes = (
{
closed = 1;
nodes = (
(89,230,o),
(98,231,o),
(108,231,cs),
(125,231,o),
(150,226,o),
(181,216,cs),
(213,206,o),
(237,201,o),
(252,201,cs),
(277,201,o),
(306,212,o),
(339,233,c),
(334,200,o),
(312,173,o),
(275,152,cs),
(262,145,o),
(246,141,o),
(229,141,cs),
(211,141,o),
(189,145,o),
(162,154,cs),
(112,169,l),
(104,170,o),
(97,171,o),
(91,171,cs),
(65,171,o),
(43,159,o),
(26,136,c),
(23,145,o),
(21,153,o),
(21,161,cs),
(21,194,o),
(41,216,o),
(80,227,cs)
);
}
);
width = 368;
}
);
unicode = 45;
}
{
color = (166,255,153,255);
glyphname = period;
layers = (
{
layerId = "B33422F0-91E4-47C9-8809-C0A5C4DE8881";
shapes = (
{
closed = 1;
nodes = (
(89,69,o),
(106,53,o),
(106,33,cs),
(106,12,o),
(89,-5,o),
(69,-5,cs),
(48,-5,o),
(32,11,o),
(32,31,cs),
(32,52,o),
(48,69,o),
(68,69,cs)
);
}
);
width = 142;
}
);
unicode = 46;
}
{
color = (166,255,153,255);
glyphname = slash;
layers = (
{
layerId = "B33422F0-91E4-47C9-8809-C0A5C4DE8881";
shapes = (
{
closed = 1;
nodes = (
(279,520,o),
(295,516,o),
(308,505,c),
(275,494,o),
(253,483,o),
(244,472,cs),
(221,447,o),
(204,396,o),
(193,321,cs),
(180,236,o),
(170,178,o),
(163,147,cs),
(145,67,o),
(124,20,o),
(99,6,cs),
(84,-3,o),
(71,-7,o),
(58,-7,cs),
(45,-7,o),
(34,-3,o),
(23,6,c),
(86,46,o),
(123,143,o),
(135,298,cs),
(146,439,o),
(187,513,o),
(260,519,cs)
);
}
);
width = 334;
}
);
unicode = 47;
}
{
color = (166,255,153,255);
glyphname = zero;
layers = (
{
layerId = "B33422F0-91E4-47C9-8809-C0A5C4DE8881";
shapes = (
{
closed = 1;
nodes = (
(181,485,o),
(174,487,o),
(167,487,cs),
(134,487,o),
(100,463,o),
(66,416,cs),
(25,359,o),
(5,284,o),
(5,189,cs),
(5,158,o),
(8,129,o),
(14,102,cs),
(29,39,o),
(76,-2,o),
(137,-1,cs),
(216,1,o),
(275,52,o),
(312,153,cs),
(325,189,o),
(332,234,o),
(332,289,cs),
(332,322,o),
(329,353,o),
(324,380,cs),
(313,432,o),
(291,462,o),
(258,471,cs),
(237,476,o),
(218,472,o),
(203,458,c),
(204,469,o),
(199,477,o),
(188,482,cs)
);
},
{
closed = 1;
nodes = (
(185,418,o),
(200,426,o),
(213,426,cs),
(227,426,o),
(240,417,o),
(252,399,cs),
(269,373,o),
(278,329,o),
(278,268,cs),
(278,217,o),
(273,173,o),
(264,136,cs),
(249,76,o),
(208,33,o),
(167,33,cs),
(136,33,o),
(109,54,o),
(87,95,cs),
(70,128,o),
(60,163,o),
(57,199,cs),
(56,211,o),
(56,223,o),
(56,235,cs),
(56,283,o),
(62,326,o),
(74,364,cs),
(87,406,o),
(104,434,o),
(127,447,cs),
(134,451,o),
(142,453,o),
(149,453,cs),
(164,453,o),
(174,446,o),
(180,433,c),
(175,426,o),
(171,416,o),
(170,403,c)
);
}
);
width = 344;
}
);
unicode = 48;
}
{
color = (166,255,153,255);
glyphname = one;
layers = (
{
layerId = "B33422F0-91E4-47C9-8809-C0A5C4DE8881";
shapes = (
{
closed = 1;
nodes = (
(120,418,o),
(98,332,o),
(87,237,cs),
(78,156,o),
(76,84,o),
(83,23,c),
(24,-7,l),
(17,62,o),
(20,142,o),
(33,233,cs),
(40,282,o),
(52,331,o),
(70,378,cs),
(95,445,o),
(123,483,o),
(155,493,c)
);
}
);
width = 167;
}
);
unicode = 49;
}
{
color = (166,255,153,255);
glyphname = two;
layers = (
{
layerId = "B33422F0-91E4-47C9-8809-C0A5C4DE8881";
shapes = (
{
closed = 1;
nodes = (
(126,324,o),
(108,316,o),
(91,316,cs),
(70,316,o),
(54,326,o),
(43,346,cs),
(38,355,o),
(36,364,o),
(36,373,cs),
(36,398,o),
(49,421,o),
(74,444,cs),
(100,467,o),
(131,481,o),
(167,486,cs),
(179,487,o),
(190,488,o),
(201,488,cs),
(273,488,o),
(319,457,o),
(340,394,cs),
(344,383,o),
(346,370,o),
(346,357,cs),
(346,316,o),
(333,282,o),
(307,255,cs),
(276,222,o),
(228,192,o),
(165,165,cs),
(102,139,o),
(71,111,o),
(71,81,cs),
(71,76,o),
(72,71,o),
(73,66,c),
(96,70,o),
(119,68,o),
(142,59,cs),
(150,56,o),
(161,50,o),
(175,39,cs),
(186,32,o),
(196,28,o),
(206,28,cs),
(212,28,o),
(219,29,o),
(226,31,cs),
(250,38,o),
(262,54,o),
(262,80,cs),
(262,98,o),
(253,112,o),
(234,123,c),
(243,127,o),
(253,129,o),
(264,129,cs),
(293,129,o),
(311,118,o),
(316,97,cs),
(318,90,o),
(319,83,o),
(319,76,cs),
(319,41,o),
(297,17,o),
(252,4,cs),
(241,1,o),
(230,-1,o),
(220,-1,cs),
(210,-1,o),
(183,6,o),
(140,20,cs),
(113,29,o),
(89,30,o),
(67,25,cs),
(52,21,o),
(37,13,o),
(20,2,c),
(9,9,o),
(3,25,o),
(3,50,cs),
(3,71,o),
(7,87,o),
(16,100,cs),
(32,124,o),
(57,145,o),
(92,162,cs),
(114,171,o),
(136,181,o),
(158,191,cs),
(184,202,o),
(205,214,o),
(220,227,cs),
(263,262,o),
(284,298,o),
(284,333,cs),
(284,346,o),
(282,359,o),
(277,373,cs),
(267,401,o),
(251,423,o),
(230,439,cs),
(210,453,o),
(189,460,o),
(166,460,cs),
(154,460,o),
(143,458,o),
(132,453,cs),
(105,441,o),
(91,421,o),
(91,392,cs),
(91,384,o),
(93,376,o),
(97,369,cs),
(108,350,o),
(123,340,o),
(144,341,c)
);
}
);
width = 358;
}
);
unicode = 50;
}
{
color = (166,255,153,255);
glyphname = three;
layers = (
{
layerId = "B33422F0-91E4-47C9-8809-C0A5C4DE8881";
shapes = (
{
closed = 1;
nodes = (
(324,216,o),
(339,182,o),
(337,143,cs),
(334,97,o),
(312,61,o),
(269,34,cs),
(231,9,o),
(185,-3,o),
(132,-3,cs),
(99,-3,o),
(70,4,o),
(45,18,cs),
(18,33,o),
(4,54,o),
(4,80,cs),
(4,86,o),
(5,92,o),
(6,98,cs),
(14,131,o),
(35,148,o),
(70,148,cs),
(89,148,o),
(101,142,o),
(108,129,c),
(77,125,o),
(64,108,o),
(69,79,cs),
(75,47,o),
(99,29,o),
(142,25,cs),
(175,22,o),
(205,30,o),
(231,50,cs),
(258,71,o),
(270,99,o),
(269,136,cs),
(268,166,o),
(257,193,o),
(236,216,cs),
(216,239,o),
(195,251,o),
(173,251,cs),
(148,251,o),
(135,243,o),
(135,227,cs),
(135,222,o),
(136,216,o),
(139,211,c),
(110,208,o),
(96,217,o),
(96,237,cs),
(96,250,o),
(103,261,o),
(116,270,cs),
(127,277,o),
(142,283,o),
(161,288,cs),
(223,305,l),
(244,313,o),
(270,342,o),
(270,374,cs),
(270,383,o),
(268,392,o),
(264,401,cs),
(245,441,o),
(214,461,o),
(173,461,cs),
(160,461,o),
(148,458,o),
(137,453,cs),
(111,441,o),
(98,423,o),
(98,398,cs),
(98,378,o),
(114,360,o),
(135,360,cs),
(138,360,o),
(142,360,o),
(145,361,c),
(129,342,o),
(111,332,o),
(92,332,cs),
(70,332,o),
(55,341,o),
(48,360,cs),
(45,367,o),
(44,374,o),
(44,382,cs),
(44,405,o),
(56,427,o),
(81,447,cs),
(106,468,o),
(137,481,o),
(174,486,cs),
(185,487,o),
(195,488,o),
(206,488,cs),
(267,488,o),
(308,464,o),
(328,416,cs),
(331,408,o),
(333,399,o),
(333,390,cs),
(333,359,o),
(316,325,o),
(297,313,cs),
(266,293,o),
(231,279,o),
(191,271,c),
(234,272,o),
(268,263,o),
(291,243,cs)
);
}
);
width = 347;
}
);
unicode = 51;
}
{
color = (166,255,153,255);
glyphname = four;
layers = (
{
layerId = "B33422F0-91E4-47C9-8809-C0A5C4DE8881";
shapes = (
{
closed = 1;
nodes = (
(249,470,o),
(196,433,o),
(145,383,cs),
(83,322,o),
(35,237,o),
(0,127,c),
(35,139,o),
(66,146,o),
(95,148,cs),
(133,151,o),
(167,148,o),
(197,140,c),
(197,91,o),
(192,68,o),
(187,57,cs),
(179,38,o),
(161,26,o),
(134,26,c),
(141,5,o),
(157,-5,o),
(183,-5,cs),
(202,-5,o),
(217,1,o),
(229,12,cs),
(249,31,o),
(259,67,o),
(259,119,cs),
(259,126,o),
(259,132,o),
(258,136,c),
(277,133,o),
(294,133,o),
(307,136,cs),
(331,142,o),
(346,155,o),
(351,174,cs),
(352,178,o),
(353,182,o),
(353,187,cs),
(353,210,o),
(342,226,o),
(319,233,c),
(324,216,o),
(323,201,o),
(316,190,cs),
(302,169,o),
(283,161,o),
(259,166,c),
(258,218,o),
(261,268,o),
(266,317,cs),
(271,366,o),
(284,424,o),
(305,493,c)
);
},
{
closed = 1;
nodes = (
(218,376,o),
(210,326,o),
(206,275,cs),
(200,172,l),
(177,177,o),
(156,179,o),
(135,180,cs),
(122,181,o),
(105,180,o),
(84,179,c),
(89,223,o),
(106,269,o),
(136,318,cs),
(164,364,o),
(196,399,o),
(231,424,c)
);
}
);
width = 363;
}
);
unicode = 52;
}
{
color = (166,255,153,255);
glyphname = five;
layers = (
{
layerId = "B33422F0-91E4-47C9-8809-C0A5C4DE8881";
shapes = (
{
closed = 1;
nodes = (
(328,425,o),
(304,418,o),
(271,418,cs),
(244,418,o),
(215,422,o),
(184,430,cs),
(154,439,o),
(133,448,o),
(122,457,c),
(107,444,o),
(99,408,o),
(99,347,cs),
(99,333,o),
(100,321,o),
(101,312,c),
(121,323,o),
(150,328,o),
(189,327,cs),
(232,326,o),
(266,315,o),
(291,294,cs),
(324,267,o),
(340,227,o),
(340,175,cs),
(340,120,o),
(318,76,o),
(275,43,cs),
(235,12,o),
(187,-3,o),
(131,-3,cs),
(98,-3,o),
(69,4,o),
(45,18,cs),
(18,33,o),
(4,54,o),
(4,80,cs),
(4,86,o),
(5,92,o),
(6,98,cs),
(14,131,o),
(35,148,o),
(70,148,cs),
(88,148,o),
(100,142,o),
(107,129,c),
(81,126,o),
(68,113,o),
(68,90,cs),
(68,51,o),
(93,29,o),
(142,24,cs),
(176,21,o),
(206,32,o),
(233,57,cs),
(262,86,o),
(275,122,o),
(272,167,cs),
(265,256,o),
(228,300,o),
(159,300,cs),
(128,300,o),
(104,286,o),
(104,266,cs),
(104,262,o),
(105,258,o),
(107,253,c),
(79,249,o),
(60,258,o),
(50,281,cs),
(42,298,o),
(39,320,o),
(42,349,cs),
(44,375,o),
(51,402,o),
(64,430,cs),
(77,459,o),
(91,477,o),
(104,486,c),
(127,477,o),
(145,470,o),
(156,467,cs),
(183,458,o),
(208,454,o),
(230,453,cs),
(280,451,o),
(305,460,o),
(305,481,cs),
(305,486,o),
(304,492,o),
(302,498,c),
(325,502,o),
(351,483,o),
(351,460,cs),
(351,452,o),
(348,445,o),
(341,438,cs)
);
}
);
width = 360;
}
);
unicode = 53;
}
{
color = (166,255,153,255);
glyphname = six;
layers = (
{
layerId = "B33422F0-91E4-47C9-8809-C0A5C4DE8881";
shapes = (
{
closed = 1;
nodes = (
(111,56,o),
(131,34,o),
(151,28,cs),
(157,26,o),
(163,25,o),
(170,25,cs),
(197,25,o),
(220,39,o),
(239,66,cs),
(258,93,o),
(266,127,o),
(263,168,cs),
(256,255,o),
(224,300,o),
(167,303,cs),
(140,304,o),
(115,283,o),
(115,256,cs),
(115,241,o),
(123,228,o),
(138,217,c),
(128,209,o),
(117,205,o),
(104,205,cs),
(84,205,o),
(72,213,o),
(68,229,c),
(66,216,o),
(67,196,o),
(70,170,cs),
(74,138,o),
(81,113,o),
(90,95,cs)
);
},
{
closed = 1;
nodes = (
(32,347,o),
(65,406,o),
(111,446,cs),
(144,475,o),
(184,490,o),
(230,490,cs),
(287,490,o),
(322,476,o),
(335,449,cs),
(339,441,o),
(341,433,o),
(341,425,cs),
(341,393,o),
(306,370,o),
(274,370,cs),
(267,370,o),
(260,371,o),
(255,373,c),
(274,383,o),
(284,398,o),
(284,419,cs),
(284,450,o),
(264,466,o),
(225,466,cs),
(204,466,o),
(182,460,o),
(161,449,cs),
(137,436,o),
(119,420,o),
(106,400,cs),
(87,371,o),
(75,327,o),
(68,268,c),
(76,287,o),
(93,303,o),
(118,314,cs),
(139,323,o),
(159,328,o),
(180,327,cs),
(223,326,o),
(256,315,o),
(281,295,cs),
(314,268,o),
(330,229,o),
(330,176,cs),
(330,123,o),
(312,79,o),
(275,45,cs),
(238,11,o),
(193,-5,o),
(140,-2,cs),
(80,1,o),
(31,45,o),
(15,102,cs),
(8,125,o),
(5,153,o),
(5,185,cs),
(5,213,o),
(7,241,o),
(12,269,c)
);
}
);
width = 352;
}
);
unicode = 54;
}
{
color = (166,255,153,255);
glyphname = seven;
layers = (
{
layerId = "B33422F0-91E4-47C9-8809-C0A5C4DE8881";
shapes = (
{
closed = 1;
nodes = (
(228,311,o),
(244,334,o),
(267,364,cs),
(291,396,ls),
(302,412,o),
(307,424,o),
(308,432,cs),
(309,451,o),
(298,470,o),
(275,487,c),
(222,464,o),
(171,452,o),
(120,451,cs),
(70,450,o),
(45,461,o),
(45,482,cs),
(45,487,o),
(46,493,o),
(48,499,c),
(25,496,o),
(6,470,o),
(6,443,cs),
(6,412,o),
(28,390,o),
(71,390,cs),
(98,390,o),
(132,398,o),
(173,413,cs),
(206,426,o),
(235,440,o),
(260,456,c),
(261,453,o),
(261,451,o),
(261,448,cs),
(261,419,o),
(235,366,o),
(184,287,cs),
(149,234,o),
(124,189,o),
(107,153,cs),
(93,122,o),
(86,94,o),
(86,67,cs),
(86,39,o),
(95,19,o),
(113,8,cs),
(126,0,o),
(141,-4,o),
(159,-4,cs),
(190,-4,o),
(213,6,o),
(226,26,cs),
(235,39,o),
(239,54,o),
(239,71,cs),
(239,84,o),
(236,93,o),
(230,98,c),
(234,83,o),
(215,56,o),
(195,52,cs),
(178,49,o),
(165,55,o),
(156,72,cs),
(151,82,o),
(148,94,o),
(148,109,cs),
(148,164,o),
(171,226,o),
(218,296,cs)
);
}
);
width = 321;
}
);
unicode = 55;
}
{
color = (166,255,153,255);
glyphname = eight;
layers = (
{
layerId = "B33422F0-91E4-47C9-8809-C0A5C4DE8881";
shapes = (
{
closed = 1;
nodes = (
(98,56,o),
(135,31,o),
(163,28,cs),
(227,21,o),
(274,61,o),
(271,136,cs),
(270,200,o),
(226,256,o),
(173,260,cs),
(132,263,o),
(107,239,o),
(107,207,cs),
(107,199,o),
(109,191,o),
(112,183,c),
(93,180,o),
(80,191,o),
(73,215,c),
(65,206,o),
(61,191,o),
(60,170,cs),
(59,139,o),
(66,110,o),
(83,81,cs)
);
},
{
closed = 1;
nodes = (
(78,280,o),
(58,293,o),
(44,313,cs),
(31,330,o),
(26,350,o),
(28,372,cs),
(31,401,o),
(44,427,o),
(68,448,cs),
(95,472,o),
(130,486,o),
(173,489,cs),
(209,492,o),
(243,486,o),
(274,471,cs),
(312,453,o),
(331,427,o),
(331,393,cs),
(331,328,o),
(274,297,o),
(191,281,c),
(230,282,o),
(264,270,o),
(294,244,cs),
(325,219,o),
(339,184,o),
(337,141,cs),
(334,94,o),
(314,58,o),
(276,33,cs),
(239,8,o),
(194,-4,o),
(142,-3,cs),
(104,-2,o),
(72,10,o),
(45,33,cs),
(19,56,o),
(6,84,o),
(5,118,cs),
(4,205,o),
(53,254,o),
(105,275,c)
);
},
{
closed = 1;
nodes = (
(214,348,o),
(211,356,o),
(205,365,c),
(218,366,o),
(228,361,o),
(237,351,cs),
(244,343,o),
(247,334,o),
(247,325,c),
(262,338,o),
(269,354,o),
(269,374,cs),
(269,383,o),
(267,392,o),
(264,401,cs),
(247,444,o),
(215,465,o),
(168,465,cs),
(157,465,o),
(146,463,o),
(135,460,cs),
(103,451,o),
(83,418,o),
(84,386,cs),
(85,355,o),
(95,332,o),
(115,318,cs),
(131,307,o),
(146,301,o),
(159,301,cs),
(168,301,o),
(179,303,o),
(193,308,cs),
(207,313,o),
(214,323,o),
(214,340,cs)
);
}
);
width = 349;
}
);
unicode = 56;
}
{
color = (166,255,153,255);
glyphname = nine;
layers = (
{
layerId = "B33422F0-91E4-47C9-8809-C0A5C4DE8881";
shapes = (
{
closed = 1;
nodes = (
(310,143,o),
(277,84,o),
(229,43,cs),
(196,14,o),
(156,-1,o),
(110,-1,cs),
(53,-1,o),
(18,13,o),
(5,40,cs),
(1,48,o),
(-1,56,o),
(-1,64,cs),
(-1,96,o),
(33,119,o),
(65,119,cs),
(72,119,o),
(79,118,o),
(85,115,c),
(66,106,o),
(56,91,o),
(56,70,cs),
(56,39,o),
(76,23,o),
(115,23,cs),
(158,23,o),
(209,48,o),
(234,89,cs),
(253,118,o),
(265,162,o),
(272,221,c),
(264,202,o),
(247,186,o),
(222,175,cs),
(201,166,o),
(181,161,o),
(160,162,cs),
(117,163,o),
(84,174,o),
(59,194,cs),
(26,221,o),
(10,260,o),
(10,312,cs),
(10,365,o),
(28,409,o),
(64,443,cs),
(101,478,o),
(146,494,o),
(200,491,cs),
(260,488,o),
(309,444,o),
(325,387,cs),
(332,364,o),
(335,336,o),
(335,304,cs),
(335,270,o),
(332,242,o),
(327,220,cs)
);
},
{
closed = 1;
nodes = (
(229,433,o),
(209,455,o),
(189,461,cs),
(183,463,o),
(177,464,o),
(170,464,cs),
(143,464,o),
(120,450,o),
(101,423,cs),
(82,396,o),
(74,362,o),
(77,321,cs),
(84,234,o),
(116,189,o),
(173,186,cs),
(200,185,o),
(225,206,o),
(225,233,cs),
(225,248,o),
(217,261,o),
(202,272,c),
(212,280,o),
(223,284,o),
(236,284,cs),
(256,284,o),
(268,276,o),
(272,260,c),
(274,273,o),
(273,293,o),
(270,319,cs),
(266,351,o),
(259,376,o),
(250,394,cs)
);
}
);
width = 345;
}
);
unicode = 57;
}
{
color = (166,255,153,255);
glyphname = colon;
layers = (
{
layerId = "B33422F0-91E4-47C9-8809-C0A5C4DE8881";
shapes = (
{
closed = 1;
nodes = (
(92,154,o),
(109,138,o),
(109,118,cs),
(109,97,o),
(92,80,o),
(72,80,cs),
(51,80,o),
(35,96,o),
(35,116,cs),
(35,137,o),
(51,154,o),
(71,154,cs)
);
},
{
closed = 1;
nodes = (
(91,314,o),
(108,298,o),
(108,278,cs),
(108,257,o),
(91,240,o),
(71,240,cs),
(50,240,o),
(34,256,o),
(34,276,cs),
(34,297,o),
(50,314,o),
(70,314,cs)
);
}
);
width = 141;
}
);
unicode = 58;
}
{
color = (166,255,153,255);
glyphname = semicolon;
layers = (
{
layerId = "B33422F0-91E4-47C9-8809-C0A5C4DE8881";
shapes = (
{
closed = 1;
nodes = (
(36,34,o),
(53,44,o),
(77,44,cs),
(92,44,o),
(104,38,o),
(113,27,cs),
(119,19,o),
(122,9,o),
(122,-2,cs),
(122,-13,o),
(119,-25,o),
(114,-36,cs),
(107,-51,o),
(96,-64,o),
(81,-76,cs),
(65,-88,o),
(32,-101,o),
(19,-98,c),
(48,-78,o),
(63,-54,o),
(63,-26,cs),
(63,-12,o),
(60,-3,o),
(53,2,c),
(44,5,o),
(36,9,o),
(27,13,c)
);
},
{
closed = 1;
nodes = (
(97,155,o),
(114,139,o),
(114,119,cs),
(114,98,o),
(97,81,o),
(77,81,cs),
(56,81,o),
(40,97,o),
(40,117,cs),
(40,138,o),
(56,155,o),
(76,155,cs)
);
}
);
width = 165;
}
);
unicode = 59;
}
{
color = (166,255,153,255);
glyphname = equal;
layers = (
{
layerId = "B33422F0-91E4-47C9-8809-C0A5C4DE8881";
shapes = (
{
closed = 1;
nodes = (
(89,327,o),
(98,328,o),
(108,328,cs),
(125,328,o),
(150,323,o),
(181,313,cs),
(213,303,o),
(237,298,o),
(252,298,cs),
(277,298,o),
(306,309,o),
(339,330,c),
(334,297,o),
(312,270,o),
(275,249,cs),
(262,242,o),
(246,238,o),
(229,238,cs),
(211,238,o),
(189,242,o),
(162,251,cs),
(112,266,l),
(104,267,o),
(97,268,o),
(91,268,cs),
(65,268,o),
(43,256,o),
(26,233,c),
(23,242,o),
(21,250,o),
(21,258,cs),
(21,291,o),
(41,313,o),
(80,324,cs)
);
},
{
closed = 1;
nodes = (
(89,221,o),
(98,222,o),
(108,222,cs),
(125,222,o),
(150,217,o),
(181,207,cs),
(213,197,o),
(237,192,o),
(252,192,cs),
(277,192,o),
(306,203,o),
(339,224,c),
(334,191,o),
(312,164,o),
(275,143,cs),
(262,136,o),
(246,132,o),
(229,132,cs),
(211,132,o),
(189,136,o),
(162,145,cs),
(112,160,l),
(104,161,o),
(97,162,o),
(91,162,cs),
(65,162,o),
(43,150,o),
(26,127,c),
(23,136,o),
(21,144,o),
(21,152,cs),
(21,185,o),
(41,207,o),
(80,218,cs)
);
}
);
width = 370;
}
);
unicode = 61;
}
{
color = (166,255,153,255);
glyphname = question;
layers = (
{
layerId = "B33422F0-91E4-47C9-8809-C0A5C4DE8881";
shapes = (
{
closed = 1;
nodes = (
(40,419,o),
(23,438,o),
(23,473,cs),
(23,490,o),
(28,507,o),
(39,522,cs),
(60,552,o),
(93,567,o),
(138,567,cs),
(166,567,o),
(190,560,o),
(209,545,cs),
(242,520,o),
(259,481,o),
(259,428,cs),
(259,370,o),
(244,324,o),
(215,289,cs),
(202,274,o),
(186,258,o),
(166,242,cs),
(146,227,o),
(132,214,o),
(123,205,cs),
(104,184,o),
(95,161,o),
(95,138,cs),
(95,130,o),
(96,120,o),
(99,108,c),
(94,106,o),
(88,105,o),
(83,105,cs),
(64,105,o),
(52,114,o),
(46,131,cs),
(44,138,o),
(43,144,o),
(43,150,cs),
(43,175,o),
(58,200,o),
(89,223,cs),
(152,269,l),
(184,297,o),
(201,324,o),
(203,351,cs),
(207,410,o),
(197,456,o),
(174,489,cs),
(155,515,o),
(134,528,o),
(110,528,cs),
(81,528,o),
(66,507,o),
(66,466,cs),
(66,449,o),
(69,433,o),
(74,418,c)
);
},
{
closed = 1;
nodes = (
(95,83,o),
(114,64,o),
(114,40,cs),
(114,16,o),
(95,-3,o),
(71,-3,cs),
(47,-3,o),
(28,16,o),
(28,40,cs),
(28,64,o),
(47,83,o),
(71,83,cs)
);
}
);
width = 279;
}
);
unicode = 63;
}
{
color = (166,255,153,255);
glyphname = bullet.001;
layers = (
{
layerId = "B33422F0-91E4-47C9-8809-C0A5C4DE8881";
shapes = (
{
closed = 1;
nodes = (
(107,294,o),
(79,277,o),
(51,243,cs),
(21,207,o),
(6,165,o),
(6,117,cs),
(6,102,o),
(8,87,o),
(12,72,cs),
(23,29,o),
(63,-1,o),
(106,0,cs),
(169,1,o),
(215,33,o),
(243,96,cs),
(257,127,o),
(264,161,o),
(264,196,cs),
(264,253,o),
(245,281,o),
(207,280,cs),
(190,280,o),
(176,277,o),
(166,270,c),
(166,289,o),
(151,294,o),
(136,294,cs)
);
},
{
closed = 1;
nodes = (
(144,232,o),
(154,233,o),
(161,233,cs),
(182,233,o),
(197,224,o),
(207,206,cs),
(215,191,o),
(219,173,o),
(219,151,cs),
(219,124,o),
(214,100,o),
(203,79,cs),
(186,44,o),
(162,27,o),
(131,27,cs),
(108,27,o),
(90,40,o),
(77,66,cs),
(67,85,o),
(61,108,o),
(59,134,cs),
(54,198,o),
(67,239,o),
(98,257,cs),
(115,267,o),
(130,265,o),
(144,251,c),
(141,247,o),
(136,240,o),
(131,229,c)
);
}
);
width = 273;
}
);
unicode = 3458;
}
{
color = (166,255,153,255);
glyphname = endash.001;
layers = (
{
layerId = "B33422F0-91E4-47C9-8809-C0A5C4DE8881";
shapes = (
{
closed = 1;
nodes = (
(87,236,o),
(95,233,o),
(103,233,cs),
(127,233,o),
(140,257,o),
(140,282,cs),
(140,301,o),
(134,318,o),
(121,333,cs),
(114,342,o),
(101,341,o),
(82,331,c),
(86,341,o),
(90,349,o),
(95,354,c),
(94,357,o),
(90,358,o),
(84,356,cs),
(78,354,o),
(73,350,o),
(70,345,cs),
(63,334,o),
(59,320,o),
(59,305,cs),
(59,276,o),
(66,256,o),
(80,243,cs)
);
},
{
closed = 1;
nodes = (
(97,375,o),
(103,373,o),
(107,369,c),
(113,373,o),
(119,375,o),
(126,375,cs),
(154,375,o),
(178,343,o),
(175,306,cs),
(172,267,o),
(158,239,o),
(133,222,cs),
(117,211,o),
(101,205,o),
(84,205,cs),
(40,205,o),
(6,245,o),
(25,308,cs),
(38,353,o),
(60,375,o),
(90,375,cs)
);
},
{
closed = 1;
nodes = (
(87,42,o),
(95,39,o),
(103,39,cs),
(127,39,o),
(140,63,o),
(140,88,cs),
(140,107,o),
(134,124,o),
(121,139,cs),
(114,148,o),
(101,147,o),
(82,137,c),
(86,147,o),
(90,155,o),
(95,160,c),
(94,163,o),
(90,164,o),
(84,162,cs),
(78,160,o),
(73,156,o),
(70,151,cs),
(63,140,o),
(59,126,o),
(59,111,cs),
(59,82,o),
(66,62,o),
(80,49,cs)
);
},
{
closed = 1;
nodes = (
(97,181,o),
(103,179,o),
(107,175,c),
(113,179,o),
(119,181,o),
(126,181,cs),
(154,181,o),
(178,149,o),
(175,112,cs),
(172,73,o),
(158,45,o),
(133,28,cs),
(117,17,o),
(101,11,o),
(84,11,cs),
(40,11,o),
(6,51,o),
(25,114,cs),
(38,159,o),
(60,181,o),
(90,181,cs)
);
}
);
width = 193;
}
);
unicode = 3459;
}
{
color = (166,255,153,255);
glyphname = quotedblleft.001;
layers = (
{
guides = (
{
angle = 90;
pos = (34,0);
}
);
layerId = "B33422F0-91E4-47C9-8809-C0A5C4DE8881";
shapes = (
{
closed = 1;
nodes = (
(47,10,o),
(4,55,o),
(5,114,cs),
(6,157,o),
(28,193,o),
(72,220,c),
(102,233,o),
(139,250,o),
(183,272,c),
(198,283,o),
(205,296,o),
(205,311,cs),
(205,319,o),
(203,326,o),
(198,332,cs),
(191,342,o),
(178,347,o),
(160,347,cs),
(139,347,o),
(117,341,o),
(96,328,cs),
(75,316,o),
(64,302,o),
(61,285,c),
(51,293,o),
(46,306,o),
(46,325,cs),
(46,336,o),
(48,345,o),
(52,353,cs),
(69,384,o),
(104,399,o),
(159,399,cs),
(172,399,o),
(184,398,o),
(196,396,cs),
(237,390,o),
(257,368,o),
(257,331,cs),
(257,325,o),
(256,319,o),
(255,312,cs),
(249,288,o),
(224,264,o),
(180,239,cs),
(147,222,o),
(109,204,o),
(93,184,cs),
(82,169,o),
(76,151,o),
(76,128,cs),
(76,98,o),
(84,76,o),
(99,61,cs),
(120,41,o),
(149,30,o),
(186,29,cs),
(203,28,o),
(225,33,o),
(254,42,c),
(254,84,o),
(257,142,o),
(262,216,cs),
(268,295,o),
(283,348,o),
(306,374,cs),
(318,387,o),
(333,395,o),
(350,397,cs),
(360,398,o),
(369,396,o),
(376,391,cs),
(386,384,o),
(391,372,o),
(390,355,c),
(377,360,o),
(366,359,o),
(357,353,cs),
(346,346,o),
(338,330,o),
(331,305,cs),
(324,276,o),
(318,226,o),
(314,154,cs),
(309,56,l),
(325,58,o),
(336,58,o),
(342,57,cs),
(355,54,o),
(363,47,o),
(365,37,c),
(333,22,o),
(317,0,o),
(313,-39,cs),
(310,-66,o),
(307,-82,o),
(305,-89,cs),
(296,-116,o),
(285,-135,o),
(271,-146,cs),
(262,-153,o),
(251,-157,o),
(240,-157,cs),
(231,-157,o),
(223,-154,o),
(216,-149,c),
(222,-142,o),
(230,-130,o),
(240,-111,c),
(248,-88,o),
(252,-65,o),
(252,-42,cs),
(252,-9,o),
(252,8,o),
(252,8,c),
(230,1,o),
(203,-3,o),
(171,-3,cs),
(152,-3,o),
(130,-1,o),
(106,2,cs)
);
},
{
closed = 1;
nodes = (
(406,319,o),
(405,325,o),
(405,332,cs),
(405,350,o),
(410,364,o),
(419,374,cs),
(434,389,o),
(455,397,o),
(484,397,cs),
(513,397,o),
(539,383,o),
(561,354,cs),
(581,327,o),
(593,296,o),
(596,260,cs),
(599,233,o),
(597,202,o),
(592,168,cs),
(585,127,o),
(575,95,o),
(561,71,cs),
(534,24,o),
(499,0,o),
(456,-1,cs),
(407,-2,o),
(381,15,o),
(379,52,cs),
(378,73,o),
(396,93,o),
(423,93,c),
(419,76,o),
(419,62,o),
(423,51,cs),
(430,33,o),
(442,24,o),
(461,24,cs),
(480,24,o),
(497,36,o),
(510,59,cs),
(517,72,o),
(524,89,o),
(529,111,cs),
(535,136,o),
(538,163,o),
(539,192,cs),
(540,229,o),
(536,260,o),
(527,287,cs),
(516,322,o),
(495,343,o),
(466,348,cs),
(454,350,o),
(442,346,o),
(429,337,cs),
(419,329,o),
(412,321,o),
(408,312,c)
);
}
);
width = 609;
}
);
unicode = 3462;
}
{
color = (166,255,153,255);
glyphname = quotedblright.001;
layers = (
{
layerId = "B33422F0-91E4-47C9-8809-C0A5C4DE8881";
shapes = (
{
closed = 1;
nodes = (
(47,10,o),
(4,55,o),
(5,114,cs),
(6,157,o),
(28,193,o),
(72,220,c),
(102,233,o),
(139,250,o),
(183,272,c),
(198,283,o),
(205,296,o),
(205,311,cs),
(205,319,o),
(203,326,o),
(198,332,cs),
(191,342,o),
(178,347,o),
(160,347,cs),
(139,347,o),
(117,341,o),
(96,328,cs),
(75,316,o),
(64,302,o),
(61,285,c),
(51,293,o),
(46,306,o),
(46,325,cs),
(46,336,o),
(48,345,o),
(52,353,cs),
(69,384,o),
(104,399,o),
(159,399,cs),
(172,399,o),
(184,398,o),
(196,396,cs),
(237,390,o),
(257,368,o),
(257,331,cs),
(257,325,o),
(256,319,o),
(255,312,cs),
(249,288,o),
(224,264,o),
(180,239,cs),
(147,222,o),
(109,204,o),
(93,184,cs),
(82,169,o),
(76,151,o),
(76,128,cs),
(76,98,o),
(84,76,o),
(99,61,cs),
(120,41,o),
(149,30,o),
(186,29,cs),
(203,28,o),
(225,33,o),
(254,42,c),
(254,84,o),
(257,142,o),
(262,216,cs),
(268,295,o),
(283,348,o),
(306,374,cs),
(318,387,o),
(333,395,o),
(350,397,cs),
(360,398,o),
(369,396,o),
(376,391,cs),
(386,384,o),
(391,372,o),
(390,355,c),
(377,360,o),
(366,359,o),
(357,353,cs),
(346,346,o),
(338,330,o),
(331,305,cs),
(324,276,o),
(318,226,o),
(314,154,cs),
(309,56,l),
(325,58,o),
(336,58,o),
(342,57,cs),
(355,54,o),
(363,47,o),
(365,37,c),
(333,22,o),
(317,0,o),
(313,-39,cs),
(310,-66,o),
(307,-82,o),
(305,-89,cs),
(296,-116,o),
(285,-135,o),
(271,-146,cs),
(262,-153,o),
(251,-157,o),
(240,-157,cs),
(231,-157,o),
(223,-154,o),
(216,-149,c),
(222,-142,o),
(230,-130,o),
(240,-111,c),
(248,-88,o),
(252,-65,o),
(252,-42,cs),
(252,-9,o),
(252,8,o),
(252,8,c),
(230,1,o),
(203,-3,o),
(171,-3,cs),
(152,-3,o),
(130,-1,o),
(106,2,cs)
);
},
{
closed = 1;
nodes = (
(430,387,o),
(445,380,o),
(461,379,cs),
(475,378,o),
(490,379,o),
(507,384,cs),
(532,391,o),
(548,395,o),
(554,396,cs),
(561,397,o),
(567,398,o),
(574,398,cs),
(599,398,o),
(619,391,o),
(633,377,c),
(614,363,o),
(585,339,o),
(547,305,cs),
(517,275,o),
(494,246,o),
(477,217,cs),
(462,192,o),
(455,163,o),
(455,129,cs),
(455,110,o),
(458,92,o),
(464,77,cs),
(477,44,o),
(497,27,o),
(522,27,cs),
(549,27,o),
(571,50,o),
(571,77,cs),
(571,102,o),
(559,117,o),
(534,124,c),
(543,138,o),
(557,145,o),
(576,145,cs),
(603,145,o),
(618,132,o),
(618,104,cs),
(618,87,o),
(615,74,o),
(609,63,cs),
(592,33,o),
(571,13,o),
(544,4,cs),
(521,-4,o),
(497,-6,o),
(472,-1,cs),
(420,9,o),
(394,43,o),
(394,101,cs),
(394,146,o),
(409,188,o),
(438,227,cs),
(457,252,o),
(481,279,o),
(510,306,cs),
(537,331,o),
(563,352,o),
(586,369,c),
(583,370,o),
(579,370,o),
(576,370,cs),
(555,370,o),
(533,362,o),
(510,346,cs),
(493,334,o),
(475,328,o),
(457,328,cs),
(438,328,o),
(423,335,o),
(413,349,cs),
(409,355,o),
(407,362,o),
(407,370,cs),
(407,381,o),
(410,390,o),
(416,399,c)
);
}
);
width = 640;
}
);
unicode = 3463;
}
{
color = (166,255,153,255);
glyphname = quotedblleft.003;
layers = (
{
layerId = "B33422F0-91E4-47C9-8809-C0A5C4DE8881";
shapes = (
{
closed = 1;
nodes = (
(47,10,o),
(4,55,o),
(5,114,cs),
(6,157,o),
(28,193,o),
(72,220,c),
(102,233,o),
(139,250,o),
(183,272,c),
(198,283,o),
(205,296,o),
(205,311,cs),
(205,319,o),
(203,326,o),
(198,332,cs),
(191,342,o),
(178,347,o),
(160,347,cs),
(139,347,o),
(117,341,o),
(96,328,cs),
(75,316,o),
(64,302,o),
(61,285,c),
(51,293,o),
(46,306,o),
(46,325,cs),
(46,336,o),
(48,345,o),
(52,353,cs),
(69,384,o),
(104,399,o),
(159,399,cs),
(172,399,o),
(184,398,o),
(196,396,cs),
(237,390,o),
(257,368,o),
(257,331,cs),
(257,325,o),
(256,319,o),
(255,312,cs),
(249,288,o),
(224,264,o),
(180,239,cs),
(147,222,o),
(109,204,o),
(93,184,cs),
(82,169,o),
(76,151,o),
(76,128,cs),
(76,98,o),
(84,76,o),
(99,61,cs),
(120,41,o),
(149,30,o),
(186,29,cs),
(203,28,o),
(225,33,o),
(254,42,c),
(254,84,o),
(257,142,o),
(262,216,cs),
(268,295,o),
(283,348,o),
(306,374,cs),
(318,387,o),
(333,395,o),
(350,397,cs),
(360,398,o),
(369,396,o),
(376,391,cs),
(386,384,o),
(391,372,o),
(390,355,c),
(377,360,o),
(366,359,o),
(357,353,cs),
(346,346,o),
(338,330,o),
(331,305,cs),
(324,276,o),
(318,226,o),
(314,154,cs),
(309,56,l),
(325,58,o),
(336,58,o),
(342,57,cs),
(355,54,o),
(363,47,o),
(365,37,c),
(333,22,o),
(317,0,o),
(313,-39,cs),
(310,-66,o),
(307,-82,o),
(305,-89,cs),
(296,-116,o),
(285,-135,o),
(271,-146,cs),
(262,-153,o),
(251,-157,o),
(240,-157,cs),
(231,-157,o),
(223,-154,o),
(216,-149,c),
(222,-142,o),
(230,-130,o),
(240,-111,c),
(248,-88,o),
(252,-65,o),
(252,-42,cs),
(252,-9,o),
(252,8,o),
(252,8,c),
(230,1,o),
(203,-3,o),
(171,-3,cs),
(152,-3,o),
(130,-1,o),
(106,2,cs)
);
},
{
closed = 1;
nodes = (
(434,387,o),
(449,380,o),
(465,379,cs),
(485,377,o),
(514,379,o),
(553,386,cs),
(599,393,o),
(625,396,o),
(631,393,c),
(608,354,o),
(564,316,o),
(499,279,c),
(516,278,o),
(539,277,o),
(566,278,c),
(613,284,o),
(633,287,o),
(626,287,c),
(626,276,o),
(612,261,o),
(584,242,cs),
(543,215,o),
(516,194,o),
(501,180,cs),
(476,155,o),
(463,129,o),
(463,102,cs),
(463,92,o),
(465,83,o),
(468,74,cs),
(477,50,o),
(502,24,o),
(526,24,cs),
(553,24,o),
(575,49,o),
(575,76,cs),
(575,89,o),
(571,101,o),
(562,110,c),
(557,117,o),
(549,121,o),
(538,124,c),
(547,138,o),
(561,145,o),
(580,145,cs),
(607,145,o),
(622,132,o),
(622,104,cs),
(622,87,o),
(619,74,o),
(613,63,cs),
(597,34,o),
(576,15,o),
(551,5,cs),
(523,-6,o),
(495,-8,o),
(466,-1,cs),
(422,10,o),
(400,38,o),
(400,83,cs),
(400,120,o),
(420,156,o),
(461,191,cs),
(491,216,o),
(514,232,o),
(531,238,c),
(526,237,o),
(517,238,o),
(504,239,cs),
(489,240,o),
(479,240,o),
(473,240,cs),
(464,240,o),
(453,238,o),
(441,235,cs),
(426,232,o),
(419,230,o),
(419,230,c),
(422,255,o),
(446,281,o),
(490,308,cs),
(521,327,o),
(541,344,o),
(550,359,c),
(547,358,o),
(532,353,o),
(506,342,cs),
(488,335,o),
(471,331,o),
(454,331,cs),
(431,331,o),
(416,338,o),
(411,351,cs),
(409,356,o),
(408,361,o),
(408,366,cs),
(408,380,o),
(412,391,o),
(420,399,c)
);
}
);
width = 642;
}
);
unicode = 3464;
}
{
color = (166,255,153,255);
glyphname = quotedblright.003;
layers = (
{
layerId = "B33422F0-91E4-47C9-8809-C0A5C4DE8881";
shapes = (
{
closed = 1;
nodes = (
(131,189,o),
(121,204,o),
(121,225,cs),
(121,258,o),
(146,286,o),
(187,286,cs),
(210,286,o),
(228,280,o),
(241,269,cs),
(262,250,o),
(272,226,o),
(272,196,cs),
(272,158,o),
(257,126,o),
(228,99,cs),
(205,78,o),
(178,67,o),
(149,67,cs),
(138,67,o),
(127,68,o),
(115,71,cs),
(80,78,o),
(51,96,o),
(30,126,cs),
(9,157,o),
(1,189,o),
(5,224,cs),
(11,274,o),
(33,315,o),
(70,348,cs),
(108,381,o),
(153,399,o),
(206,400,cs),
(258,401,o),
(303,388,o),
(340,361,cs),
(378,334,o),
(400,296,o),
(406,247,cs),
(407,238,o),
(408,228,o),
(408,219,cs),
(408,168,o),
(394,127,o),
(365,96,cs),
(334,61,o),
(299,39,o),
(261,30,c),
(304,25,o),
(330,-6,o),
(333,-45,cs),
(336,-96,o),
(312,-135,o),
(263,-163,cs),
(238,-177,o),
(209,-184,o),
(177,-184,cs),
(144,-184,o),
(115,-177,o),
(91,-162,cs),
(65,-145,o),
(50,-123,o),
(47,-95,cs),
(46,-88,o),
(46,-82,o),
(46,-75,cs),
(46,-53,o),
(51,-34,o),
(62,-17,cs),
(75,2,o),
(91,12,o),
(112,12,cs),
(122,12,o),
(133,10,o),
(144,5,c),
(120,-18,o),
(108,-42,o),
(108,-65,cs),
(108,-78,o),
(111,-91,o),
(117,-105,cs),
(132,-140,o),
(158,-157,o),
(195,-157,cs),
(213,-157,o),
(230,-152,o),
(246,-143,cs),
(269,-129,o),
(280,-108,o),
(280,-80,cs),
(280,-65,o),
(276,-52,o),
(269,-39,cs),
(258,-21,o),
(242,-12,o),
(220,-12,cs),
(209,-12,o),
(198,-15,o),
(188,-21,c),
(179,-13,o),
(174,-4,o),
(174,7,cs),
(174,24,o),
(182,37,o),
(198,46,cs),
(207,51,o),
(224,55,o),
(247,57,cs),
(270,59,o),
(288,64,o),
(299,73,cs),
(331,98,o),
(347,132,o),
(347,176,cs),
(347,223,o),
(333,269,o),
(304,313,cs),
(273,358,o),
(227,372,o),
(186,372,cs),
(149,372,o),
(119,359,o),
(94,334,cs),
(70,309,o),
(58,280,o),
(58,246,cs),
(58,210,o),
(70,176,o),
(94,144,cs),
(113,117,o),
(137,104,o),
(165,104,cs),
(198,104,o),
(230,135,o),
(230,168,cs),
(230,180,o),
(227,192,o),
(220,204,cs),
(211,220,o),
(200,228,o),
(185,228,cs),
(180,228,o),
(176,227,o),
(171,226,cs),
(162,224,o),
(157,218,o),
(154,209,cs),
(153,206,o),
(151,197,o),
(150,181,c)
);
}
);
width = 420;
}
);
unicode = 3465;
}
{
color = (166,255,153,255);
glyphname = bullet.002;
layers = (
{
layerId = "B33422F0-91E4-47C9-8809-C0A5C4DE8881";
shapes = (
{
closed = 1;
nodes = (
(100,312,l),
(111,340,o),
(131,362,o),
(161,378,cs),
(186,392,o),
(212,399,o),
(238,399,cs),
(269,399,o),
(293,385,o),
(309,356,cs),
(322,333,o),
(328,305,o),
(328,270,cs),
(328,234,o),
(321,198,o),
(308,162,cs),
(291,117,o),
(266,79,o),
(233,48,cs),
(200,17,o),
(168,0,o),
(135,-2,cs),
(92,-5,o),
(61,3,o),
(40,22,cs),
(16,43,o),
(4,79,o),
(5,130,cs),
(6,218,o),
(37,319,o),
(99,433,cs),
(108,449,o),
(141,501,o),
(200,589,c),
(214,597,o),
(223,601,o),
(227,601,cs),
(230,601,o),
(233,600,o),
(236,597,c),
(208,560,o),
(178,511,o),
(146,449,cs),
(91,344,o),
(64,248,o),
(64,160,cs),
(64,71,o),
(89,27,o),
(139,28,cs),
(161,29,o),
(184,41,o),
(209,65,cs),
(234,90,o),
(253,121,o),
(264,158,cs),
(271,183,o),
(275,208,o),
(275,233,cs),
(275,277,o),
(264,310,o),
(241,333,cs),
(229,345,o),
(215,351,o),
(199,351,cs),
(180,351,o),
(160,344,o),
(141,329,cs),
(122,314,o),
(108,299,o),
(100,282,c)
);
},
{
closed = 1;
nodes = (
(89,613,o),
(81,615,o),
(72,615,cs),
(53,615,o),
(37,605,o),
(23,586,cs),
(12,570,o),
(6,552,o),
(6,532,cs),
(6,508,o),
(15,491,o),
(32,481,cs),
(40,476,o),
(49,474,o),
(58,474,cs),
(87,474,o),
(110,490,o),
(128,522,cs),
(140,543,o),
(146,563,o),
(146,581,cs),
(146,598,o),
(139,609,o),
(125,612,cs),
(115,615,o),
(105,614,o),
(96,610,c)
);
},
{
closed = 1;
nodes = (
(94,587,o),
(101,581,o),
(108,566,cs),
(110,562,o),
(111,557,o),
(111,552,cs),
(111,531,o),
(91,505,o),
(72,505,cs),
(50,505,o),
(39,520,o),
(39,549,cs),
(39,567,o),
(46,580,o),
(60,589,cs),
(69,594,o),
(78,593,o),
(88,585,c)
);
},
{
closed = 1;
nodes = (
(282,554,o),
(274,556,o),
(265,556,cs),
(246,556,o),
(230,546,o),
(216,527,cs),
(205,511,o),
(199,493,o),
(199,473,cs),
(199,449,o),
(208,432,o),
(225,422,cs),
(233,417,o),
(242,415,o),
(251,415,cs),
(280,415,o),
(303,431,o),
(321,463,cs),
(333,484,o),
(339,504,o),
(339,522,cs),
(339,539,o),
(332,550,o),
(318,553,cs),
(308,556,o),
(298,555,o),
(289,551,c)
);
},
{
closed = 1;
nodes = (
(287,528,o),
(294,522,o),
(301,507,cs),
(303,503,o),
(304,498,o),
(304,493,cs),
(304,472,o),
(284,446,o),
(265,446,cs),
(243,446,o),
(232,461,o),
(232,490,cs),
(232,508,o),
(239,521,o),
(253,530,cs),
(262,535,o),
(271,534,o),
(281,526,c)
);
}
);
width = 338;
}
);
unicode = 3466;
}
{
color = (166,255,153,255);
glyphname = endash.002;
layers = (
{
layerId = "B33422F0-91E4-47C9-8809-C0A5C4DE8881";
shapes = (
{
closed = 1;
nodes = (
(166,271,o),
(136,280,o),
(131,296,cs),
(130,301,o),
(129,305,o),
(129,310,cs),
(129,331,o),
(142,349,o),
(169,366,cs),
(190,379,o),
(215,388,o),
(243,393,cs),
(283,400,o),
(325,399,o),
(368,390,cs),
(401,383,o),
(423,370,o),
(434,352,cs),
(440,341,o),
(443,331,o),
(443,320,cs),
(443,301,o),
(434,286,o),
(417,277,cs),
(385,260,o),
(338,243,o),
(276,226,cs),
(187,202,o),
(130,172,o),
(106,137,cs),
(85,106,o),
(74,71,o),
(74,32,cs),
(74,10,o),
(78,-11,o),
(86,-32,cs),
(116,-111,o),
(175,-150,o),
(263,-150,cs),
(317,-150,o),
(359,-136,o),
(389,-108,cs),
(411,-87,o),
(421,-61,o),
(420,-29,cs),
(417,1,l),
(415,9,o),
(410,17,o),
(402,25,cs),
(388,40,o),
(370,48,o),
(349,49,c),
(366,68,o),
(386,77,o),
(409,77,cs),
(440,77,o),
(473,59,o),
(473,12,cs),
(473,-15,o),
(465,-43,o),
(450,-74,cs),
(433,-108,o),
(406,-135,o),
(369,-156,cs),
(337,-174,o),
(303,-184,o),
(268,-187,cs),
(257,-188,o),
(245,-188,o),
(234,-188,cs),
(135,-188,o),
(67,-158,o),
(32,-97,cs),
(12,-62,o),
(3,-24,o),
(4,19,cs),
(6,79,o),
(27,127,o),
(67,162,cs),
(96,188,o),
(131,209,o),
(170,224,c),
(300,264,ls),
(350,279,o),
(375,295,o),
(375,311,cs),
(375,315,o),
(374,319,o),
(372,322,cs),
(363,341,o),
(344,355,o),
(317,366,cs),
(304,371,o),
(291,373,o),
(276,373,cs),
(237,373,o),
(211,362,o),
(199,340,cs),
(187,319,o),
(185,297,o),
(194,274,c)
);
}
);
width = 479;
}
);
unicode = 3467;
}
{
color = (166,255,153,255);
glyphname = emdash.002;
layers = (
{
layerId = "B33422F0-91E4-47C9-8809-C0A5C4DE8881";
shapes = (
{
closed = 1;
nodes = (
(166,271,o),
(136,280,o),
(131,296,cs),
(130,301,o),
(129,305,o),
(129,310,cs),
(129,331,o),
(142,349,o),
(169,366,cs),
(190,379,o),
(215,388,o),
(243,393,cs),
(283,400,o),
(325,399,o),
(368,390,cs),
(401,383,o),
(423,370,o),
(434,352,cs),
(440,341,o),
(443,331,o),
(443,320,cs),
(443,301,o),
(434,286,o),
(417,277,cs),
(385,260,o),
(338,243,o),
(276,226,cs),
(187,202,o),
(130,172,o),
(106,137,cs),
(85,106,o),
(74,71,o),
(74,32,cs),
(74,10,o),
(78,-11,o),
(86,-32,cs),
(116,-111,o),
(175,-150,o),
(263,-150,cs),
(317,-150,o),
(359,-136,o),
(389,-108,cs),
(411,-87,o),
(421,-61,o),
(420,-29,cs),
(417,1,l),
(415,9,o),
(410,17,o),
(402,25,cs),
(388,40,o),
(370,48,o),
(349,49,c),
(366,68,o),
(386,77,o),
(409,77,cs),
(440,77,o),
(473,59,o),
(473,12,cs),
(473,-15,o),
(465,-43,o),
(450,-74,cs),
(433,-108,o),
(406,-135,o),
(369,-156,cs),
(337,-174,o),
(303,-184,o),
(268,-187,cs),
(257,-188,o),
(245,-188,o),
(234,-188,cs),
(135,-188,o),
(67,-158,o),
(32,-97,cs),
(12,-62,o),
(3,-24,o),
(4,19,cs),
(6,79,o),
(27,127,o),
(67,162,cs),
(96,188,o),
(131,209,o),
(170,224,c),
(300,264,ls),
(350,279,o),
(375,295,o),
(375,311,cs),
(375,315,o),
(374,319,o),
(372,322,cs),
(363,341,o),
(344,355,o),
(317,366,cs),
(304,371,o),
(291,373,o),
(276,373,cs),
(237,373,o),
(211,362,o),
(199,340,cs),
(187,319,o),
(185,297,o),
(194,274,c)
);
},
{
closed = 1;
nodes = (
(606,386,o),
(596,399,o),
(575,399,cs),
(568,399,o),
(559,397,o),
(549,393,cs),
(527,384,o),
(507,360,o),
(490,319,cs),
(480,295,o),
(475,268,o),
(475,238,cs),
(475,191,o),
(486,163,o),
(508,154,cs),
(517,151,o),
(525,149,o),
(534,149,cs),
(559,149,o),
(579,162,o),
(592,188,cs),
(597,199,o),
(607,230,o),
(621,282,cs),
(632,323,o),
(643,345,o),
(654,348,cs),
(657,349,o),
(661,350,o),
(664,350,cs),
(677,350,o),
(687,335,o),
(693,306,cs),
(698,285,o),
(700,261,o),
(700,234,cs),
(700,200,o),
(696,166,o),
(689,133,cs),
(674,66,o),
(631,32,o),
(584,35,cs),
(547,38,o),
(521,64,o),
(507,115,c),
(490,102,o),
(482,86,o),
(482,68,cs),
(482,45,o),
(492,28,o),
(511,15,cs),
(528,4,o),
(548,-1,o),
(571,-1,cs),
(603,-1,o),
(632,8,o),
(657,26,cs),
(688,48,o),
(712,83,o),
(730,131,cs),
(745,174,o),
(753,217,o),
(753,260,cs),
(753,343,o),
(733,388,o),
(692,397,cs),
(687,398,o),
(683,398,o),
(678,398,cs),
(646,398,o),
(620,367,o),
(599,305,cs),
(593,284,o),
(587,264,o),
(582,243,c),
(571,210,o),
(562,194,o),
(554,194,cs),
(541,194,o),
(533,202,o),
(528,217,cs),
(523,235,o),
(520,254,o),
(520,275,cs),
(520,310,o),
(526,337,o),
(538,354,cs),
(545,365,o),
(555,370,o),
(567,370,cs),
(576,370,o),
(588,367,o),
(603,360,c)
);
}
);
width = 764;
}
);
unicode = 3468;
}
{
color = (166,255,153,255);
glyphname = quotedblleft.004;
layers = (
{
layerId = "B33422F0-91E4-47C9-8809-C0A5C4DE8881";
shapes = (
{
closed = 1;
nodes = (
(10,276,o),
(6,288,o),
(6,306,cs),
(6,319,o),
(8,330,o),
(13,339,cs),
(26,363,o),
(47,380,o),
(75,390,cs),
(95,397,o),
(113,400,o),
(129,398,cs),
(177,393,o),
(200,357,o),
(195,312,cs),
(192,292,o),
(181,274,o),
(161,257,cs),
(103,209,l),
(84,190,o),
(74,165,o),
(71,133,cs),
(69,109,o),
(71,86,o),
(77,63,cs),
(84,40,o),
(92,29,o),
(103,29,cs),
(117,29,o),
(134,47,o),
(154,82,cs),
(167,106,o),
(178,129,o),
(187,152,cs),
(198,180,o),
(219,194,o),
(252,194,cs),
(258,194,o),
(263,194,o),
(268,193,c),
(257,175,o),
(251,153,o),
(250,127,cs),
(248,92,o),
(255,64,o),
(272,42,cs),
(278,35,o),
(285,31,o),
(294,31,cs),
(305,31,o),
(314,35,o),
(322,43,cs),
(344,65,o),
(355,97,o),
(355,140,cs),
(355,165,o),
(347,197,o),
(330,234,cs),
(314,272,o),
(306,301,o),
(306,321,cs),
(306,364,o),
(343,396,o),
(386,396,cs),
(417,396,o),
(436,383,o),
(445,357,c),
(400,348,o),
(378,328,o),
(378,299,cs),
(378,287,o),
(381,271,o),
(387,252,cs),
(397,218,l),
(400,201,o),
(402,185,o),
(402,170,cs),
(402,121,o),
(385,77,o),
(351,36,cs),
(337,19,o),
(318,8,o),
(294,1,cs),
(285,-2,o),
(273,-2,o),
(259,-1,cs),
(245,1,o),
(235,5,o),
(228,10,cs),
(211,24,o),
(198,44,o),
(190,69,c),
(172,48,o),
(154,29,o),
(136,13,cs),
(125,3,o),
(108,-2,o),
(86,-2,cs),
(70,-2,o),
(57,2,o),
(46,11,cs),
(19,33,o),
(6,64,o),
(6,105,cs),
(6,146,o),
(20,176,o),
(79,224,cs),
(131,268,l),
(140,278,o),
(144,290,o),
(144,305,cs),
(144,329,o),
(128,343,o),
(105,343,cs),
(86,343,o),
(66,335,o),
(47,319,cs),
(28,304,o),
(18,287,o),
(17,270,c)
);
},
{
closed = 1;
nodes = (
(453,307,o),
(449,319,o),
(449,332,cs),
(449,343,o),
(452,354,o),
(458,364,cs),
(473,389,o),
(504,401,o),
(552,398,cs),
(607,395,o),
(644,350,o),
(648,291,cs),
(650,264,o),
(645,229,o),
(633,186,cs),
(620,141,o),
(613,105,o),
(613,79,cs),
(613,43,o),
(614,16,o),
(617,-3,c),
(613,-2,o),
(604,2,o),
(590,9,cs),
(579,15,o),
(569,18,o),
(560,18,cs),
(547,18,o),
(532,14,o),
(517,5,cs),
(508,0,o),
(497,-3,o),
(485,-3,cs),
(468,-3,o),
(453,1,o),
(442,9,cs),
(416,26,o),
(403,56,o),
(403,98,cs),
(403,112,o),
(405,126,o),
(408,140,cs),
(421,195,o),
(463,231,o),
(518,231,cs),
(552,231,o),
(570,223,o),
(572,207,c),
(545,212,o),
(520,209,o),
(496,198,cs),
(472,187,o),
(460,165,o),
(460,131,cs),
(460,122,o),
(461,112,o),
(463,102,cs),
(468,78,o),
(476,60,o),
(489,49,cs),
(495,44,o),
(502,41,o),
(510,41,cs),
(512,41,o),
(522,43,o),
(540,46,cs),
(553,49,o),
(566,49,o),
(577,46,c),
(572,101,o),
(572,144,o),
(577,176,cs),
(588,243,o),
(593,284,o),
(592,299,cs),
(589,348,o),
(572,372,o),
(540,372,cs),
(522,372,o),
(505,364,o),
(490,347,cs),
(477,333,o),
(468,316,o),
(462,296,c)
);
},
{
closed = 1;
nodes = (
(681,307,o),
(677,319,o),
(677,332,cs),
(677,343,o),
(680,354,o),
(686,364,cs),
(701,389,o),
(732,401,o),
(780,398,cs),
(835,395,o),
(872,350,o),
(876,291,cs),
(878,264,o),
(873,229,o),
(861,186,cs),
(848,141,o),
(841,105,o),
(841,79,cs),
(841,43,o),
(842,16,o),
(845,-3,c),
(841,-2,o),
(832,2,o),
(818,9,cs),
(807,15,o),
(797,18,o),
(788,18,cs),
(775,18,o),
(760,14,o),
(745,5,cs),
(736,0,o),
(725,-3,o),
(713,-3,cs),
(696,-3,o),
(681,1,o),
(670,9,cs),
(644,26,o),
(631,56,o),
(631,98,cs),
(631,112,o),
(633,126,o),
(636,140,cs),
(649,195,o),
(691,231,o),
(746,231,cs),
(780,231,o),
(798,223,o),
(800,207,c),
(773,212,o),
(748,209,o),
(724,198,cs),
(700,187,o),
(688,165,o),
(688,131,cs),
(688,122,o),
(689,112,o),
(691,102,cs),
(696,78,o),
(704,60,o),
(717,49,cs),
(723,44,o),
(730,41,o),
(738,41,cs),
(740,41,o),
(750,43,o),
(768,46,cs),
(781,49,o),
(794,49,o),
(805,46,c),
(800,101,o),
(800,144,o),
(805,176,cs),
(816,243,o),
(821,284,o),
(820,299,cs),
(817,348,o),
(800,372,o),
(768,372,cs),
(750,372,o),
(733,364,o),
(718,347,cs),
(705,333,o),
(696,316,o),
(690,296,c)
);
}
);
width = 885;
}
);
unicode = 3470;
}
{
color = (166,255,153,255);
glyphname = quotedblright.004;
layers = (
{
layerId = "B33422F0-91E4-47C9-8809-C0A5C4DE8881";
shapes = (
{
closed = 1;
nodes = (
(394,403,o),
(382,420,o),
(382,443,cs),
(382,465,o),
(397,476,o),
(428,476,cs),
(461,476,o),
(488,467,o),
(511,450,cs),
(542,425,o),
(566,397,o),
(583,366,cs),
(606,321,o),
(618,263,o),
(618,191,cs),
(618,177,o),
(617,164,o),
(616,152,cs),
(612,115,o),
(604,83,o),
(592,57,cs),
(577,25,o),
(557,10,o),
(534,12,cs),
(504,15,o),
(489,32,o),
(489,63,cs),
(489,74,o),
(491,86,o),
(494,100,cs),
(496,109,o),
(501,117,o),
(508,124,cs),
(517,134,o),
(527,139,o),
(538,139,cs),
(545,139,o),
(553,137,o),
(560,132,c),
(565,171,ls),
(570,213,o),
(566,267,o),
(552,334,cs),
(541,387,o),
(516,418,o),
(477,428,cs),
(474,429,o),
(472,429,o),
(469,429,cs),
(460,429,o),
(455,425,o),
(455,416,cs),
(455,410,o),
(458,404,o),
(464,397,c),
(489,393,o),
(510,367,o),
(509,346,c),
(500,347,o),
(492,348,o),
(485,348,cs),
(460,348,o),
(446,336,o),
(443,313,cs),
(442,301,o),
(452,268,o),
(474,213,cs),
(483,191,o),
(487,169,o),
(487,148,cs),
(487,60,o),
(420,-1,o),
(301,-1,cs),
(280,-1,o),
(258,1,o),
(235,4,cs),
(205,9,o),
(180,21,o),
(161,40,cs),
(139,61,o),
(128,85,o),
(129,114,cs),
(130,153,o),
(150,189,o),
(190,221,cs),
(252,266,ls),
(266,277,o),
(273,291,o),
(273,308,cs),
(273,317,o),
(270,326,o),
(264,333,cs),
(256,342,o),
(245,347,o),
(231,347,cs),
(200,347,o),
(166,320,o),
(161,287,c),
(151,295,o),
(146,308,o),
(146,325,cs),
(146,344,o),
(154,361,o),
(170,375,c),
(172,386,o),
(173,396,o),
(173,403,cs),
(173,420,o),
(167,429,o),
(154,429,cs),
(151,429,o),
(148,429,o),
(145,428,cs),
(106,418,o),
(81,387,o),
(70,334,cs),
(56,267,o),
(52,213,o),
(57,171,cs),
(58,162,o),
(59,149,o),
(62,132,c),
(69,137,o),
(77,139,o),
(84,139,cs),
(107,139,o),
(124,117,o),
(128,100,cs),
(131,87,o),
(133,75,o),
(133,64,cs),
(133,32,o),
(118,15,o),
(88,12,cs),
(65,10,o),
(45,25,o),
(30,58,cs),
(18,83,o),
(10,115,o),
(6,152,cs),
(5,164,o),
(4,177,o),
(4,192,cs),
(4,263,o),
(16,321,o),
(39,366,cs),
(56,398,o),
(80,426,o),
(111,450,cs),
(134,467,o),
(161,476,o),
(194,476,cs),
(225,476,o),
(240,465,o),
(240,443,cs),
(240,426,o),
(234,411,o),
(221,397,c),
(232,398,o),
(248,398,o),
(269,396,cs),
(312,391,o),
(334,368,o),
(334,326,cs),
(334,319,o),
(333,311,o),
(331,304,cs),
(327,288,o),
(308,268,o),
(275,244,cs),
(238,218,o),
(216,198,o),
(209,184,cs),
(200,168,o),
(196,151,o),
(196,134,cs),
(196,103,o),
(206,79,o),
(225,61,cs),
(246,41,o),
(273,30,o),
(305,29,cs),
(343,28,o),
(376,36,o),
(405,55,cs),
(426,68,o),
(437,92,o),
(437,125,cs),
(437,154,o),
(428,182,o),
(410,210,cs),
(384,251,o),
(371,286,o),
(371,315,cs),
(371,330,o),
(375,344,o),
(382,357,cs),
(391,374,o),
(403,385,o),
(418,391,c)
);
},
{
closed = 1;
nodes = (
(72,50,o),
(79,41,o),
(89,44,cs),
(99,46,o),
(102,57,o),
(97,78,cs),
(92,99,o),
(85,108,o),
(75,106,cs),
(65,104,o),
(62,92,o),
(67,71,cs)
);
},
{
closed = 1;
nodes = (
(560,92,o),
(557,103,o),
(547,106,cs),
(537,108,o),
(530,99,o),
(525,78,cs),
(520,57,o),
(523,46,o),
(533,43,cs),
(543,41,o),
(550,50,o),
(555,71,cs)
);
}
);
width = 628;
}
);
unicode = 3471;
}
{
color = (166,255,153,255);
glyphname = bullet.003;
layers = (
{
layerId = "B33422F0-91E4-47C9-8809-C0A5C4DE8881";
shapes = (
{
closed = 1;
nodes = (
(377,652,o),
(360,605,o),
(351,543,cs),
(347,516,o),
(346,485,o),
(348,450,c),
(374,410,o),
(387,362,o),
(387,305,cs),
(387,248,o),
(376,193,o),
(354,140,cs),
(336,95,o),
(308,60,o),
(269,34,cs),
(234,10,o),
(191,-2,o),
(141,-2,cs),
(78,-2,o),
(43,17,o),
(35,55,cs),
(31,74,o),
(34,94,o),
(44,116,c),
(57,133,o),
(72,156,o),
(89,185,c),
(66,168,o),
(47,155,o),
(31,147,cs),
(22,142,o),
(13,140,o),
(5,140,cs),
(-3,140,o),
(-8,143,o),
(-10,150,cs),
(-12,157,o),
(-10,167,o),
(-5,180,cs),
(2,195,o),
(12,208,o),
(25,218,cs),
(42,231,o),
(62,238,o),
(85,238,cs),
(96,238,o),
(105,236,o),
(113,231,c),
(142,255,o),
(159,272,o),
(164,281,cs),
(169,291,o),
(172,301,o),
(172,311,cs),
(172,330,o),
(158,343,o),
(135,343,cs),
(116,343,o),
(96,335,o),
(77,319,cs),
(58,304,o),
(48,287,o),
(47,270,c),
(40,276,o),
(36,288,o),
(36,306,cs),
(36,319,o),
(38,330,o),
(43,339,cs),
(56,363,o),
(77,380,o),
(105,390,cs),
(125,397,o),
(143,400,o),
(159,398,cs),
(207,393,o),
(230,357,o),
(225,312,cs),
(222,283,o),
(190,248,o),
(131,207,c),
(134,194,o),
(129,174,o),
(115,147,cs),
(106,130,o),
(101,112,o),
(101,93,cs),
(101,54,o),
(133,33,o),
(174,33,cs),
(185,33,o),
(196,35,o),
(208,38,cs),
(256,52,o),
(289,84,o),
(308,134,cs),
(323,173,o),
(330,217,o),
(330,266,cs),
(330,359,o),
(306,413,o),
(271,453,cs),
(251,477,o),
(229,495,o),
(204,507,cs),
(183,517,o),
(161,523,o),
(136,525,c),
(139,514,o),
(145,503,o),
(152,493,cs),
(165,476,o),
(180,465,o),
(199,460,cs),
(223,453,o),
(240,454,o),
(251,463,c),
(256,436,o),
(239,423,o),
(199,423,cs),
(187,423,o),
(176,425,o),
(165,428,cs),
(136,436,o),
(113,454,o),
(98,481,cs),
(94,488,o),
(91,501,o),
(90,518,cs),
(89,535,o),
(91,548,o),
(94,557,c),
(115,551,o),
(134,548,o),
(149,547,cs),
(213,544,o),
(261,531,o),
(294,508,c),
(297,537,o),
(305,567,o),
(316,596,cs),
(325,618,o),
(338,638,o),
(355,656,cs),
(373,675,o),
(388,684,o),
(400,683,c)
);
}
);
width = 396;
}
);
unicode = 3474;
}
{
color = (166,255,153,255);
glyphname = endash.003;
layers = (
{
layerId = "B33422F0-91E4-47C9-8809-C0A5C4DE8881";
shapes = (
{
closed = 1;
nodes = (
(341,285,o),
(353,303,o),
(353,328,cs),
(353,335,o),
(352,342,o),
(349,349,cs),
(337,378,o),
(288,397,o),
(235,397,cs),
(220,397,o),
(206,396,o),
(193,393,cs),
(141,383,o),
(97,356,o),
(62,313,cs),
(21,263,o),
(3,206,o),
(6,143,cs),
(10,59,o),
(67,-2,o),
(150,-2,cs),
(187,-2,o),
(221,8,o),
(252,28,cs),
(285,49,o),
(308,78,o),
(319,114,cs),
(326,137,o),
(330,159,o),
(330,179,cs),
(330,224,o),
(312,259,o),
(276,283,cs),
(263,292,o),
(247,296,o),
(228,296,cs),
(205,296,o),
(183,290,o),
(164,278,cs),
(143,265,o),
(128,248,o),
(120,226,cs),
(116,215,o),
(114,204,o),
(114,193,cs),
(114,156,o),
(138,130,o),
(174,130,cs),
(203,130,o),
(222,143,o),
(232,168,c),
(203,161,o),
(171,178,o),
(171,218,cs),
(171,247,o),
(182,265,o),
(203,270,cs),
(218,273,o),
(231,266,o),
(244,249,cs),
(253,237,o),
(260,223,o),
(265,206,cs),
(270,187,o),
(273,168,o),
(273,147,cs),
(273,86,o),
(253,50,o),
(212,38,cs),
(201,35,o),
(190,33,o),
(179,33,cs),
(150,33,o),
(124,45,o),
(100,69,cs),
(77,94,o),
(65,131,o),
(65,182,cs),
(65,197,o),
(66,212,o),
(69,227,cs),
(76,265,o),
(92,297,o),
(118,324,cs),
(147,353,o),
(179,368,o),
(216,368,cs),
(275,368,o),
(315,334,o),
(318,273,c)
);
},
{
closed = 1;
nodes = (
(411,133,o),
(426,156,o),
(443,185,c),
(420,168,o),
(401,155,o),
(385,147,cs),
(376,142,o),
(367,140,o),
(359,140,cs),
(351,140,o),
(346,143,o),
(344,150,cs),
(342,157,o),
(344,167,o),
(349,180,cs),
(356,195,o),
(366,208,o),
(379,218,cs),
(396,231,o),
(416,238,o),
(439,238,cs),
(450,238,o),
(459,236,o),
(467,231,c),
(496,255,o),
(513,272,o),
(518,281,cs),
(523,291,o),
(526,301,o),
(526,311,cs),
(526,330,o),
(512,343,o),
(489,343,cs),
(470,343,o),
(450,335,o),
(431,319,cs),
(412,304,o),
(402,287,o),
(401,270,c),
(394,276,o),
(390,288,o),
(390,306,cs),
(390,319,o),
(392,330,o),
(397,339,cs),
(410,363,o),
(431,380,o),
(459,390,cs),
(479,397,o),
(497,400,o),
(513,398,cs),
(561,393,o),
(584,357,o),
(579,312,cs),
(576,283,o),
(544,248,o),
(485,207,c),
(488,194,o),
(483,174,o),
(469,147,cs),
(460,130,o),
(455,112,o),
(455,93,cs),
(455,54,o),
(487,33,o),
(528,33,cs),
(539,33,o),
(550,35,o),
(562,38,cs),
(610,52,o),
(643,84,o),
(662,134,cs),
(677,173,o),
(684,217,o),
(684,266,cs),
(684,359,o),
(660,413,o),
(625,453,cs),
(605,477,o),
(583,495,o),
(558,507,cs),
(537,517,o),
(515,523,o),
(490,525,c),
(493,514,o),
(499,503,o),
(506,493,cs),
(519,476,o),
(534,465,o),
(553,460,cs),
(577,453,o),
(594,454,o),
(605,463,c),
(610,436,o),
(593,423,o),
(553,423,cs),
(541,423,o),
(530,425,o),
(519,428,cs),
(490,436,o),
(467,454,o),
(452,481,cs),
(448,488,o),
(445,501,o),
(444,518,cs),
(443,535,o),
(445,548,o),
(448,557,c),
(469,551,o),
(488,548,o),
(504,547,cs),
(521,546,o),
(545,544,o),
(577,539,c),
(612,529,o),
(639,516,o),
(657,501,cs),
(713,453,o),
(741,388,o),
(741,305,cs),
(741,248,o),
(730,193,o),
(708,140,cs),
(690,95,o),
(662,60,o),
(623,34,cs),
(588,10,o),
(545,-2,o),
(495,-2,cs),
(432,-2,o),
(397,17,o),
(389,55,cs),
(385,74,o),
(388,94,o),
(398,116,c)
);
}
);
width = 751;
}
);
unicode = 3475;
}
{
color = (166,255,153,255);
glyphname = quoteright.004;
layers = (
{
layerId = "B33422F0-91E4-47C9-8809-C0A5C4DE8881";
shapes = (
{
closed = 1;
nodes = (
(158,235,o),
(170,223,o),
(193,217,cs),
(209,213,o),
(222,223,o),
(231,247,cs),
(235,258,o),
(237,268,o),
(237,278,cs),
(237,295,o),
(229,314,o),
(214,333,c),
(202,330,o),
(190,319,o),
(177,301,cs),
(164,283,o),
(158,267,o),
(158,254,cs)
);
},
{
closed = 1;
nodes = (
(273,437,o),
(238,449,o),
(165,445,cs),
(136,443,o),
(108,433,o),
(82,416,cs),
(60,400,o),
(44,382,o),
(33,361,c),
(24,373,o),
(19,385,o),
(19,397,cs),
(19,412,o),
(26,426,o),
(40,438,cs),
(43,441,o),
(50,443,o),
(61,446,cs),
(69,448,o),
(74,452,o),
(75,457,cs),
(76,463,o),
(73,469,o),
(65,474,cs),
(49,486,o),
(47,496,o),
(47,507,cs),
(47,524,o),
(54,540,o),
(68,554,cs),
(91,577,o),
(126,593,o),
(175,602,cs),
(215,610,o),
(258,609,o),
(303,599,cs),
(324,594,o),
(343,585,o),
(359,572,cs),
(378,555,o),
(386,537,o),
(385,516,cs),
(382,481,o),
(357,465,o),
(309,466,c),
(320,482,o),
(326,497,o),
(326,512,cs),
(326,552,o),
(284,579,o),
(227,579,cs),
(198,579,o),
(172,573,o),
(149,560,cs),
(120,545,o),
(106,524,o),
(106,498,cs),
(106,487,o),
(109,477,o),
(115,466,c),
(132,472,o),
(156,475,o),
(188,475,cs),
(229,475,o),
(260,470,o),
(282,460,cs),
(339,434,o),
(372,393,o),
(383,338,cs),
(386,321,o),
(388,302,o),
(388,280,cs),
(388,224,o),
(379,173,o),
(362,126,cs),
(339,65,o),
(306,24,o),
(263,3,cs),
(255,-1,o),
(244,-2,o),
(229,-1,cs),
(214,0,o),
(204,3,o),
(197,8,cs),
(185,18,o),
(177,30,o),
(173,44,cs),
(171,54,o),
(169,64,o),
(168,74,c),
(137,7,o),
(120,-10,o),
(80,1,cs),
(47,10,o),
(25,33,o),
(15,69,cs),
(7,98,o),
(3,129,o),
(3,163,cs),
(3,190,o),
(6,215,o),
(12,237,cs),
(23,279,o),
(45,315,o),
(78,345,cs),
(117,381,o),
(158,398,o),
(201,397,cs),
(254,396,o),
(287,348,o),
(287,295,cs),
(287,270,o),
(280,247,o),
(267,226,cs),
(252,201,o),
(229,184,o),
(200,175,cs),
(190,172,o),
(181,170,o),
(173,170,cs),
(154,170,o),
(138,180,o),
(124,199,cs),
(115,211,o),
(111,226,o),
(111,244,cs),
(111,261,o),
(114,276,o),
(121,287,cs),
(141,322,o),
(165,343,o),
(192,351,c),
(184,356,o),
(176,359,o),
(167,359,cs),
(145,359,o),
(127,351,o),
(112,336,cs),
(79,303,o),
(63,247,o),
(63,168,cs),
(63,114,o),
(74,73,o),
(96,46,cs),
(99,43,o),
(102,41,o),
(105,41,cs),
(112,41,o),
(120,50,o),
(129,68,cs),
(157,124,ls),
(166,143,o),
(181,153,o),
(201,153,cs),
(206,153,o),
(215,152,o),
(226,150,c),
(221,139,o),
(218,126,o),
(218,110,cs),
(218,81,o),
(222,60,o),
(230,49,cs),
(236,40,o),
(243,36,o),
(251,36,cs),
(276,36,o),
(298,66,o),
(315,126,cs),
(326,166,o),
(332,207,o),
(332,249,cs),
(332,305,o),
(323,349,o),
(304,382,cs)
);
}
);
width = 399;
}
);
unicode = 3477;
}
{
color = (166,255,153,255);
glyphname = quotedblleft.006;
layers = (
{
layerId = "B33422F0-91E4-47C9-8809-C0A5C4DE8881";
shapes = (
{
closed = 1;
nodes = (
(158,235,o),
(170,223,o),
(193,217,cs),
(209,213,o),
(222,223,o),
(231,247,cs),
(235,258,o),
(237,268,o),
(237,278,cs),
(237,295,o),
(229,314,o),
(214,333,c),
(202,330,o),
(190,319,o),
(177,301,cs),
(164,283,o),
(158,267,o),
(158,254,cs)
);
},
{
closed = 1;
nodes = (
(255,-1,o),
(244,-2,o),
(229,-1,cs),
(214,0,o),
(204,3,o),
(197,8,cs),
(185,18,o),
(177,30,o),
(173,44,cs),
(171,54,o),
(169,64,o),
(168,74,c),
(137,7,o),
(120,-10,o),
(80,1,cs),
(47,10,o),
(25,33,o),
(15,69,cs),
(7,98,o),
(3,129,o),
(3,163,cs),
(3,190,o),
(6,215,o),
(12,237,cs),
(23,279,o),
(45,315,o),
(78,345,cs),
(117,381,o),
(158,398,o),
(201,397,cs),
(254,396,o),
(287,348,o),
(287,295,cs),
(287,270,o),
(280,247,o),
(267,226,cs),
(252,201,o),
(229,184,o),
(200,175,cs),
(190,172,o),
(181,170,o),
(173,170,cs),
(154,170,o),
(138,180,o),
(124,199,cs),
(115,211,o),
(111,226,o),
(111,244,cs),
(111,261,o),
(114,276,o),
(121,287,cs),
(141,322,o),
(165,343,o),
(192,351,c),
(184,356,o),
(176,359,o),
(167,359,cs),
(145,359,o),
(127,351,o),
(112,336,cs),
(79,303,o),
(63,247,o),
(63,168,cs),
(63,114,o),
(74,73,o),
(96,46,cs),
(99,43,o),
(102,41,o),
(105,41,cs),
(112,41,o),
(120,50,o),
(129,68,cs),
(157,124,ls),
(166,143,o),
(181,153,o),
(201,153,cs),
(206,153,o),
(215,152,o),
(226,150,c),
(220,133,o),
(217,119,o),
(218,110,cs),
(219,87,o),
(221,62,o),
(230,49,cs),
(236,40,o),
(243,36,o),
(251,36,cs),
(275,36,o),
(301,74,o),
(314,126,cs),
(325,169,o),
(330,218,o),
(330,272,cs),
(330,321,o),
(326,357,o),
(317,380,cs),
(294,441,o),
(264,480,o),
(227,498,cs),
(208,507,o),
(188,511,o),
(165,511,cs),
(144,511,o),
(126,507,o),
(109,499,cs),
(88,489,o),
(78,475,o),
(78,456,cs),
(78,433,o),
(89,422,o),
(111,421,c),
(106,410,o),
(97,404,o),
(84,401,cs),
(77,400,o),
(70,399,o),
(65,399,cs),
(46,399,o),
(35,408,o),
(31,427,cs),
(28,442,o),
(32,457,o),
(41,473,cs),
(52,494,o),
(71,510,o),
(98,522,cs),
(121,533,o),
(151,538,o),
(188,538,cs),
(239,538,o),
(279,526,o),
(310,501,cs),
(365,458,o),
(392,385,o),
(392,283,cs),
(392,223,o),
(382,171,o),
(362,126,cs),
(334,62,o),
(301,21,o),
(263,3,cs)
);
},
{
closed = 1;
nodes = (
(536,386,o),
(526,399,o),
(505,399,cs),
(498,399,o),
(489,397,o),
(479,393,cs),
(457,384,o),
(437,360,o),
(420,319,cs),
(410,295,o),
(405,268,o),
(405,238,cs),
(405,191,o),
(416,163,o),
(438,154,cs),
(447,151,o),
(455,149,o),
(464,149,cs),
(489,149,o),
(509,162,o),
(522,188,cs),
(527,199,o),
(537,230,o),
(551,282,cs),
(562,323,o),
(573,345,o),
(584,348,cs),
(587,349,o),
(591,350,o),
(594,350,cs),
(607,350,o),
(617,335,o),
(623,306,cs),
(628,285,o),
(630,261,o),
(630,234,cs),
(630,200,o),
(626,166,o),
(619,133,cs),
(604,66,o),
(561,32,o),
(514,35,cs),
(477,38,o),
(451,64,o),
(437,115,c),
(420,102,o),
(412,86,o),
(412,68,cs),
(412,45,o),
(422,28,o),
(441,15,cs),
(458,4,o),
(478,-1,o),
(501,-1,cs),
(533,-1,o),
(562,8,o),
(587,26,cs),
(618,48,o),
(642,83,o),
(660,131,cs),
(675,174,o),
(683,217,o),
(683,260,cs),
(683,343,o),
(663,388,o),
(622,397,cs),
(617,398,o),
(613,398,o),
(608,398,cs),
(576,398,o),
(550,367,o),
(529,305,cs),
(523,284,o),
(517,264,o),
(512,243,c),
(501,210,o),
(492,194,o),
(484,194,cs),
(471,194,o),
(463,202,o),
(458,217,cs),
(453,235,o),
(450,254,o),
(450,275,cs),
(450,310,o),
(456,337,o),
(468,354,cs),
(475,365,o),
(485,370,o),
(497,370,cs),
(506,370,o),
(518,367,o),
(533,360,c)
);
}
);
width = 692;
}
);
unicode = 3478;
}
{
color = (166,255,153,255);
glyphname = quoteright.005;
layers = (
{
layerId = "B33422F0-91E4-47C9-8809-C0A5C4DE8881";
shapes = (
{
closed = 1;
nodes = (
(62,99,o),
(67,101,o),
(72,101,cs),
(85,101,o),
(93,92,o),
(98,75,cs),
(103,56,o),
(109,46,o),
(116,46,cs),
(119,46,o),
(128,58,o),
(142,82,cs),
(158,109,o),
(168,125,o),
(173,130,cs),
(183,140,o),
(204,143,o),
(236,139,c),
(219,121,o),
(211,97,o),
(211,68,cs),
(211,47,o),
(219,36,o),
(235,36,cs),
(258,36,o),
(274,59,o),
(283,104,cs),
(290,139,o),
(290,169,o),
(283,196,cs),
(269,251,o),
(239,279,o),
(192,279,cs),
(186,279,o),
(180,278,o),
(174,277,c),
(161,264,o),
(144,241,o),
(121,207,cs),
(94,167,o),
(73,130,o),
(57,96,c)
);
},
{
closed = 1;
nodes = (
(275,393,o),
(302,400,o),
(340,400,cs),
(366,400,o),
(387,395,o),
(402,390,cs),
(433,379,o),
(455,359,o),
(469,329,cs),
(481,303,o),
(487,272,o),
(487,235,cs),
(487,216,o),
(485,196,o),
(482,177,cs),
(469,106,o),
(441,52,o),
(396,17,cs),
(379,3,o),
(360,-3,o),
(340,-2,cs),
(309,0,o),
(293,9,o),
(293,25,cs),
(293,44,o),
(306,54,o),
(331,55,c),
(328,50,o),
(326,45,o),
(326,41,cs),
(326,30,o),
(334,25,o),
(351,25,cs),
(358,25,o),
(364,26,o),
(369,29,cs),
(404,52,o),
(424,103,o),
(429,183,cs),
(435,270,o),
(414,327,o),
(367,352,cs),
(355,359,o),
(339,362,o),
(320,362,cs),
(269,362,o),
(230,344,o),
(202,307,c),
(209,310,o),
(218,311,o),
(228,311,cs),
(251,311,o),
(271,305,o),
(290,293,cs),
(313,278,o),
(328,257,o),
(335,228,cs),
(338,214,o),
(340,199,o),
(340,183,cs),
(340,141,o),
(331,103,o),
(312,69,cs),
(287,22,o),
(255,-1,o),
(218,-1,cs),
(179,-1,o),
(159,18,o),
(159,55,c),
(140,26,o),
(126,9,o),
(115,4,cs),
(105,0,o),
(96,-2,o),
(88,-2,cs),
(67,-2,o),
(53,10,o),
(46,34,cs),
(44,41,o),
(40,45,o),
(34,45,cs),
(29,45,o),
(23,41,o),
(16,32,c),
(13,31,o),
(9,38,o),
(8,38,c),
(5,36,l),
(17,89,o),
(51,157,o),
(107,240,cs),
(124,266,o),
(142,290,o),
(161,312,c),
(165,325,o),
(167,334,o),
(166,341,cs),
(165,354,o),
(158,360,o),
(143,360,cs),
(130,360,o),
(119,353,o),
(109,339,cs),
(104,332,o),
(101,322,o),
(101,310,cs),
(101,295,o),
(104,284,o),
(111,275,c),
(100,269,o),
(90,266,o),
(81,266,cs),
(58,266,o),
(47,280,o),
(47,308,cs),
(47,320,o),
(50,331,o),
(56,342,cs),
(77,379,o),
(106,397,o),
(143,397,cs),
(154,397,o),
(162,396,o),
(169,394,c),
(190,385,o),
(198,368,o),
(195,341,c),
(207,354,o),
(228,369,o),
(258,384,cs)
);
}
);
width = 496;
}
);
unicode = 3482;
}
{
color = (166,255,153,255);
glyphname = quotedblright.008;
layers = (
{
layerId = "B33422F0-91E4-47C9-8809-C0A5C4DE8881";
shapes = (
{
closed = 1;
nodes = (
(354,5,o),
(331,-3,o),
(306,-2,cs),
(274,-1,o),
(258,8,o),
(258,25,cs),
(258,44,o),
(271,54,o),
(296,55,c),
(293,50,o),
(291,45,o),
(291,41,cs),
(291,30,o),
(299,25,o),
(316,25,cs),
(323,25,o),
(329,26,o),
(334,29,cs),
(374,55,o),
(395,106,o),
(397,183,cs),
(398,220,o),
(392,255,o),
(378,287,cs),
(360,328,o),
(334,348,o),
(300,348,cs),
(270,348,o),
(243,329,o),
(219,291,cs),
(210,277,o),
(202,258,o),
(194,235,c),
(203,240,o),
(214,242,o),
(227,242,cs),
(267,242,o),
(296,211,o),
(296,171,cs),
(296,136,o),
(284,103,o),
(261,71,cs),
(229,26,o),
(188,2,o),
(139,-1,cs),
(84,-5,o),
(43,20,o),
(18,73,cs),
(8,94,o),
(3,121,o),
(3,154,cs),
(3,209,o),
(15,259,o),
(40,303,cs),
(75,366,o),
(116,397,o),
(161,397,cs),
(188,397,o),
(201,386,o),
(201,365,cs),
(201,354,o),
(196,342,o),
(186,329,c),
(172,350,o),
(157,361,o),
(141,361,cs),
(136,361,o),
(130,360,o),
(124,358,cs),
(103,351,o),
(86,330,o),
(75,297,cs),
(66,271,o),
(62,243,o),
(62,214,cs),
(61,163,o),
(68,121,o),
(83,88,cs),
(101,48,o),
(127,29,o),
(160,31,cs),
(179,32,o),
(196,40,o),
(211,55,cs),
(230,73,o),
(241,97,o),
(243,127,cs),
(246,159,o),
(233,191,o),
(200,191,cs),
(183,191,o),
(171,185,o),
(162,173,c),
(161,176,o),
(157,182,o),
(152,189,c),
(155,206,o),
(161,229,o),
(170,260,c),
(183,290,o),
(192,310,o),
(198,320,cs),
(211,341,o),
(228,360,o),
(251,377,cs),
(268,390,o),
(293,397,o),
(324,397,cs),
(337,397,o),
(349,396,o),
(361,393,cs),
(390,387,o),
(414,366,o),
(432,329,cs),
(449,296,o),
(457,258,o),
(457,215,cs),
(457,179,o),
(450,144,o),
(437,109,cs),
(422,72,o),
(401,43,o),
(375,22,cs)
);
}
);
width = 467;
}
);
unicode = 3484;
}
{
color = (166,255,153,255);
glyphname = quotedblright.009;
layers = (
{
guides = (
{
pos = (0,650);
}
);
layerId = "B33422F0-91E4-47C9-8809-C0A5C4DE8881";
shapes = (
{
closed = 1;
nodes = (
(161,56,o),
(180,82,o),
(200,133,cs),
(211,161,o),
(233,175,o),
(265,175,cs),
(271,175,o),
(276,175,o),
(281,174,c),
(272,158,o),
(265,136,o),
(262,108,cs),
(258,77,o),
(261,56,o),
(271,43,cs),
(276,36,o),
(283,33,o),
(290,33,cs),
(311,33,o),
(328,55,o),
(341,100,cs),
(350,131,o),
(356,162,o),
(357,191,cs),
(361,268,o),
(356,331,o),
(342,380,cs),
(325,437,o),
(295,477,o),
(252,498,cs),
(233,507,o),
(213,511,o),
(190,511,cs),
(170,511,o),
(152,507,o),
(135,499,cs),
(114,489,o),
(103,475,o),
(103,457,cs),
(103,438,o),
(114,428,o),
(136,427,c),
(131,416,o),
(122,410,o),
(109,407,cs),
(102,406,o),
(95,405,o),
(90,405,cs),
(71,405,o),
(60,414,o),
(56,433,cs),
(49,468,o),
(71,498,o),
(123,522,cs),
(146,533,o),
(176,538,o),
(213,538,cs),
(264,538,o),
(304,526,o),
(335,501,cs),
(390,457,o),
(418,386,o),
(418,289,cs),
(418,240,o),
(412,192,o),
(401,144,cs),
(392,106,o),
(377,71,o),
(354,39,cs),
(339,18,o),
(320,6,o),
(297,1,cs),
(268,-5,o),
(245,0,o),
(227,15,cs),
(211,28,o),
(203,48,o),
(203,73,c),
(188,43,o),
(171,22,o),
(154,10,cs),
(143,3,o),
(131,-1,o),
(118,-1,cs),
(82,0,o),
(53,24,o),
(53,81,cs),
(53,94,o),
(55,105,o),
(58,116,cs),
(66,142,o),
(87,168,o),
(120,194,cs),
(180,241,o),
(192,275,o),
(192,307,cs),
(192,317,o),
(190,325,o),
(187,331,cs),
(178,347,o),
(166,355,o),
(152,356,cs),
(132,357,o),
(115,352,o),
(101,340,c),
(122,337,o),
(133,318,o),
(133,281,cs),
(133,268,o),
(131,255,o),
(126,242,cs),
(120,225,o),
(110,209,o),
(96,196,cs),
(80,179,o),
(64,171,o),
(48,171,cs),
(19,171,o),
(2,197,o),
(2,228,cs),
(2,268,o),
(23,307,o),
(65,344,cs),
(107,381,o),
(148,399,o),
(189,398,cs),
(209,397,o),
(225,390,o),
(237,377,cs),
(247,365,o),
(252,350,o),
(252,333,cs),
(252,300,o),
(232,262,o),
(193,220,cs),
(182,209,o),
(164,191,o),
(139,164,cs),
(123,145,o),
(115,123,o),
(115,97,cs),
(115,70,o),
(124,56,o),
(142,56,cs)
);
},
{
closed = 1;
nodes = (
(54,292,o),
(45,270,o),
(45,250,cs),
(45,229,o),
(52,219,o),
(67,219,cs),
(83,219,o),
(93,230,o),
(97,251,cs),
(101,274,o),
(87,306,o),
(70,311,c)
);
}
);
width = 427;
}
);
unicode = 3486;
}
{
color = (166,255,153,255);
glyphname = bullet.005;
layers = (
{
layerId = "B33422F0-91E4-47C9-8809-C0A5C4DE8881";
shapes = (
{
closed = 1;
nodes = (
(185,360,o),
(174,360,o),
(171,359,c),
(158,358,o),
(147,355,o),
(137,350,cs),
(101,333,o),
(79,302,o),
(70,257,cs),
(63,222,o),
(61,184,o),
(64,144,cs),
(67,99,o),
(82,53,o),
(98,48,cs),
(109,45,o),
(116,51,o),
(120,68,c),
(125,60,o),
(127,52,o),
(127,43,cs),
(127,18,o),
(114,3,o),
(88,0,cs),
(65,-3,o),
(45,9,o),
(29,37,cs),
(16,62,o),
(8,91,o),
(5,125,cs),
(0,186,o),
(12,241,o),
(39,289,cs),
(78,357,o),
(147,398,o),
(242,398,cs),
(295,398,o),
(321,386,o),
(321,362,cs),
(321,353,o),
(316,342,o),
(307,329,c),
(293,350,o),
(278,361,o),
(262,361,cs),
(257,361,o),
(251,360,o),
(245,358,cs),
(224,351,o),
(207,330,o),
(196,297,cs),
(187,271,o),
(183,243,o),
(183,214,cs),
(182,163,o),
(189,121,o),
(204,88,cs),
(222,48,o),
(248,29,o),
(281,31,cs),
(300,32,o),
(317,40,o),
(332,55,cs),
(351,73,o),
(362,97,o),
(364,127,cs),
(367,159,o),
(354,191,o),
(321,191,cs),
(304,191,o),
(292,185,o),
(283,173,c),
(282,176,o),
(278,182,o),
(273,189,c),
(276,206,o),
(282,229,o),
(291,260,c),
(304,290,o),
(313,310,o),
(319,320,cs),
(332,341,o),
(349,360,o),
(372,377,cs),
(389,390,o),
(414,397,o),
(445,397,cs),
(458,397,o),
(470,396,o),
(482,393,cs),
(511,387,o),
(535,366,o),
(553,329,cs),
(570,296,o),
(578,258,o),
(578,215,cs),
(578,179,o),
(571,144,o),
(558,109,cs),
(543,72,o),
(522,43,o),
(496,22,cs),
(475,5,o),
(452,-3,o),
(427,-2,cs),
(395,-1,o),
(379,8,o),
(379,25,cs),
(379,44,o),
(392,54,o),
(417,55,c),
(414,50,o),
(412,45,o),
(412,41,cs),
(412,30,o),
(420,25,o),
(437,25,cs),
(444,25,o),
(450,26,o),
(455,29,cs),
(495,55,o),
(516,106,o),
(518,183,cs),
(519,220,o),
(513,255,o),
(499,287,cs),
(481,328,o),
(455,348,o),
(421,348,cs),
(391,348,o),
(364,329,o),
(340,291,cs),
(331,277,o),
(323,258,o),
(315,235,c),
(324,240,o),
(335,242,o),
(348,242,cs),
(388,242,o),
(417,211,o),
(417,171,cs),
(417,136,o),
(405,103,o),
(382,71,cs),
(350,26,o),
(309,2,o),
(260,-1,cs),
(205,-5,o),
(164,20,o),
(139,73,cs),
(129,94,o),
(124,121,o),
(124,154,cs),
(124,209,o),
(136,259,o),
(161,303,cs),
(168,316,o),
(174,325,o),
(178,331,cs),
(186,342,o),
(195,352,o),
(205,361,c)
);
}
);
width = 589;
}
);
unicode = 3487;
}
{
color = (166,255,153,255);
glyphname = emdash.005;
layers = (
{
layerId = "B33422F0-91E4-47C9-8809-C0A5C4DE8881";
shapes = (
{
closed = 1;
nodes = (
(361,390,o),
(379,360,o),
(383,343,cs),
(386,327,o),
(388,311,o),
(388,296,cs),
(388,259,o),
(378,221,o),
(358,183,c),
(361,171,o),
(362,159,o),
(362,148,cs),
(362,60,o),
(295,-2,o),
(176,-2,cs),
(155,-2,o),
(133,0,o),
(110,4,cs),
(80,9,o),
(55,21,o),
(36,40,cs),
(14,61,o),
(3,85,o),
(4,114,cs),
(5,153,o),
(25,189,o),
(65,221,c),
(75,231,o),
(92,246,o),
(115,266,cs),
(129,277,o),
(136,291,o),
(136,308,cs),
(136,329,o),
(118,347,o),
(97,347,cs),
(69,347,o),
(41,320,o),
(36,287,c),
(26,295,o),
(21,308,o),
(21,325,cs),
(21,336,o),
(23,345,o),
(27,353,cs),
(44,383,o),
(69,398,o),
(104,398,cs),
(109,398,o),
(118,397,o),
(132,396,cs),
(175,391,o),
(197,368,o),
(197,326,cs),
(197,319,o),
(196,311,o),
(194,304,cs),
(190,288,o),
(173,268,o),
(144,244,cs),
(111,217,o),
(91,197,o),
(84,184,cs),
(75,168,o),
(71,151,o),
(71,134,cs),
(71,103,o),
(81,79,o),
(100,61,cs),
(121,41,o),
(148,30,o),
(180,29,cs),
(218,28,o),
(251,36,o),
(280,55,cs),
(305,71,o),
(315,98,o),
(311,135,c),
(294,109,o),
(266,96,o),
(228,96,cs),
(215,96,o),
(204,99,o),
(195,104,cs),
(166,121,o),
(152,150,o),
(154,189,cs),
(155,220,o),
(177,252,o),
(218,285,c),
(213,297,o),
(210,310,o),
(210,325,cs),
(210,340,o),
(213,353,o),
(219,362,cs),
(234,387,o),
(260,400,o),
(295,400,cs),
(301,400,o),
(307,400,o),
(314,399,c),
(325,414,o),
(337,435,o),
(350,462,cs),
(355,471,o),
(362,492,o),
(372,524,cs),
(379,555,o),
(380,579,o),
(374,598,cs),
(371,607,o),
(363,616,o),
(352,624,c),
(361,629,o),
(370,631,o),
(379,631,cs),
(406,631,o),
(422,618,o),
(428,593,cs),
(431,580,o),
(428,558,o),
(419,528,cs),
(416,520,o),
(407,497,o),
(390,459,cs),
(381,438,o),
(367,416,o),
(350,394,c)
);
},
{
closed = 1;
nodes = (
(219,241,o),
(212,227,o),
(210,210,cs),
(206,177,o),
(224,143,o),
(253,142,cs),
(263,141,o),
(278,149,o),
(298,166,c),
(261,205,o),
(239,234,o),
(232,253,c)
);
},
{
closed = 1;
nodes = (
(268,290,l),
(280,274,o),
(300,251,o),
(328,222,c),
(339,241,o),
(345,264,o),
(344,289,cs),
(343,311,o),
(337,333,o),
(324,356,c),
(321,351,o),
(311,339,o),
(296,321,cs)
);
},
{
closed = 1;
nodes = (
(275,343,l),
(295,370,l),
(284,375,o),
(274,375,o),
(266,370,cs),
(255,364,o),
(249,354,o),
(249,340,cs),
(249,333,o),
(250,327,o),
(253,320,c)
);
}
);
width = 391;
}
);
unicode = 3489;
}
{
color = (166,255,153,255);
glyphname = quotedblright.011;
layers = (
{
layerId = "B33422F0-91E4-47C9-8809-C0A5C4DE8881";
shapes = (
{
closed = 1;
nodes = (
(539,383,o),
(549,368,o),
(551,346,cs),
(554,318,o),
(538,307,o),
(519,310,cs),
(508,312,o),
(493,323,o),
(476,342,c),
(471,335,o),
(470,327,o),
(473,317,c),
(484,292,o),
(498,257,o),
(516,213,cs),
(525,191,o),
(529,169,o),
(529,148,cs),
(529,60,o),
(462,-1,o),
(343,-1,cs),
(322,-1,o),
(300,1,o),
(277,4,cs),
(247,9,o),
(222,21,o),
(203,40,cs),
(181,61,o),
(170,85,o),
(171,114,cs),
(172,153,o),
(192,189,o),
(232,221,cs),
(294,266,ls),
(308,277,o),
(315,291,o),
(315,308,cs),
(315,317,o),
(312,326,o),
(306,333,cs),
(298,342,o),
(287,347,o),
(273,347,cs),
(242,347,o),
(208,320,o),
(203,287,c),
(193,295,o),
(188,308,o),
(188,325,cs),
(188,332,o),
(189,338,o),
(190,344,c),
(180,349,o),
(170,351,o),
(159,351,cs),
(151,351,o),
(143,350,o),
(135,348,cs),
(102,339,o),
(80,309,o),
(70,257,cs),
(63,222,o),
(61,184,o),
(64,144,cs),
(67,99,o),
(82,53,o),
(98,48,cs),
(109,45,o),
(116,51,o),
(120,68,c),
(125,60,o),
(127,52,o),
(127,43,cs),
(127,18,o),
(114,3,o),
(88,0,cs),
(65,-3,o),
(45,9,o),
(29,37,cs),
(16,62,o),
(8,91,o),
(5,125,cs),
(0,186,o),
(12,241,o),
(39,289,cs),
(58,323,o),
(83,351,o),
(112,372,cs),
(135,389,o),
(164,397,o),
(197,397,cs),
(212,397,o),
(224,394,o),
(231,388,c),
(245,395,o),
(261,398,o),
(280,398,cs),
(287,398,o),
(297,397,o),
(311,396,cs),
(354,391,o),
(376,368,o),
(376,326,cs),
(376,319,o),
(375,311,o),
(373,304,cs),
(369,288,o),
(350,268,o),
(317,244,cs),
(280,218,o),
(258,198,o),
(251,184,cs),
(242,168,o),
(238,151,o),
(238,134,cs),
(238,103,o),
(248,79,o),
(267,61,cs),
(288,41,o),
(315,30,o),
(347,29,cs),
(385,28,o),
(418,36,o),
(447,55,cs),
(468,68,o),
(479,92,o),
(479,125,cs),
(479,154,o),
(470,182,o),
(452,210,cs),
(426,251,o),
(413,286,o),
(413,315,cs),
(413,330,o),
(417,344,o),
(424,357,cs),
(433,373,o),
(445,384,o),
(459,390,c),
(456,417,o),
(460,440,o),
(472,459,cs),
(475,463,o),
(494,485,o),
(529,524,cs),
(540,535,o),
(545,552,o),
(545,573,cs),
(545,595,o),
(536,612,o),
(519,624,c),
(528,629,o),
(537,631,o),
(546,631,cs),
(573,631,o),
(596,608,o),
(596,583,cs),
(596,543,o),
(561,516,o),
(536,489,cs),
(526,478,o),
(519,468,o),
(516,459,cs),
(509,440,o),
(510,417,o),
(521,392,c)
);
}
);
width = 552;
}
);
unicode = 3494;
}
{
color = (166,255,153,255);
glyphname = endash.006;
layers = (
{
layerId = "B33422F0-91E4-47C9-8809-C0A5C4DE8881";
shapes = (
{
closed = 1;
nodes = (
(391,223,o),
(381,171,o),
(362,126,cs),
(334,62,o),
(301,21,o),
(263,3,cs),
(255,-1,o),
(244,-2,o),
(229,-1,cs),
(214,0,o),
(204,3,o),
(197,8,cs),
(185,18,o),
(177,30,o),
(173,44,cs),
(171,54,o),
(169,64,o),
(168,74,c),
(137,7,o),
(120,-10,o),
(80,1,cs),
(47,10,o),
(25,33,o),
(15,69,cs),
(7,98,o),
(3,129,o),
(3,163,cs),
(3,190,o),
(6,215,o),
(12,237,cs),
(21,272,o),
(39,305,o),
(65,336,cs),
(92,367,o),
(121,387,o),
(152,394,cs),
(161,396,o),
(170,397,o),
(179,397,cs),
(214,397,o),
(235,382,o),
(241,352,cs),
(245,329,o),
(227,307,o),
(199,302,c),
(207,341,o),
(181,365,o),
(157,365,cs),
(134,365,o),
(115,352,o),
(99,325,cs),
(86,306,o),
(77,283,o),
(72,256,cs),
(66,226,o),
(63,197,o),
(63,168,cs),
(63,114,o),
(74,73,o),
(96,46,cs),
(99,43,o),
(102,41,o),
(105,41,cs),
(112,41,o),
(120,50,o),
(129,68,cs),
(157,124,ls),
(166,143,o),
(181,153,o),
(201,153,cs),
(206,153,o),
(215,152,o),
(226,150,c),
(220,133,o),
(217,119,o),
(218,110,cs),
(219,87,o),
(221,62,o),
(230,49,cs),
(236,40,o),
(243,36,o),
(251,36,cs),
(275,36,o),
(301,74,o),
(314,126,cs),
(325,167,o),
(330,214,o),
(330,267,cs),
(330,316,o),
(326,354,o),
(317,380,cs),
(308,409,o),
(295,433,o),
(278,453,cs),
(258,477,o),
(236,495,o),
(211,507,cs),
(190,517,o),
(168,523,o),
(143,525,c),
(146,514,o),
(152,503,o),
(159,493,cs),
(172,476,o),
(187,465,o),
(206,460,cs),
(230,453,o),
(247,454,o),
(258,463,c),
(263,436,o),
(246,423,o),
(206,423,cs),
(194,423,o),
(183,425,o),
(172,428,cs),
(143,436,o),
(120,454,o),
(105,481,cs),
(101,488,o),
(98,501,o),
(97,518,cs),
(96,535,o),
(98,548,o),
(101,557,c),
(122,551,o),
(141,548,o),
(157,547,cs),
(174,546,o),
(198,544,o),
(230,539,c),
(265,529,o),
(292,516,o),
(310,501,cs),
(364,454,o),
(391,382,o),
(391,283,cs)
);
}
);
width = 400;
}
);
unicode = 3496;
}
{
color = (166,255,153,255);
glyphname = quotedblright.012;
layers = (
{
layerId = "B33422F0-91E4-47C9-8809-C0A5C4DE8881";
shapes = (
{
closed = 1;
nodes = (
(169,352,o),
(152,353,o),
(135,348,cs),
(102,339,o),
(80,309,o),
(70,257,cs),
(63,222,o),
(61,184,o),
(64,144,cs),
(67,99,o),
(82,53,o),
(98,48,cs),
(109,45,o),
(116,51,o),
(120,68,c),
(125,60,o),
(127,52,o),
(127,43,cs),
(127,18,o),
(114,3,o),
(88,0,cs),
(65,-3,o),
(45,9,o),
(29,37,cs),
(16,62,o),
(8,91,o),
(5,125,cs),
(0,186,o),
(12,241,o),
(39,289,cs),
(58,323,o),
(83,351,o),
(112,372,cs),
(135,389,o),
(163,397,o),
(196,397,cs),
(212,397,o),
(224,394,o),
(231,388,c),
(249,395,o),
(272,398,o),
(301,398,cs),
(340,398,o),
(365,374,o),
(365,343,cs),
(365,336,o),
(363,328,o),
(360,321,cs),
(347,292,o),
(316,267,o),
(265,246,c),
(265,241,o),
(260,232,o),
(251,218,cs),
(215,165,ls),
(206,151,o),
(202,134,o),
(202,113,cs),
(202,70,o),
(216,48,o),
(243,48,cs),
(263,48,o),
(284,76,o),
(306,133,cs),
(317,161,o),
(339,175,o),
(371,175,cs),
(377,175,o),
(382,175,o),
(387,174,c),
(378,158,o),
(371,136,o),
(368,108,cs),
(364,77,o),
(367,56,o),
(377,43,cs),
(382,36,o),
(389,33,o),
(398,33,cs),
(411,33,o),
(421,38,o),
(429,49,cs),
(452,80,o),
(466,127,o),
(469,191,cs),
(473,268,o),
(468,331,o),
(454,380,cs),
(437,437,o),
(407,477,o),
(364,498,cs),
(345,507,o),
(325,511,o),
(302,511,cs),
(282,511,o),
(264,507,o),
(247,499,cs),
(226,489,o),
(215,475,o),
(215,457,cs),
(215,438,o),
(226,428,o),
(248,427,c),
(243,416,o),
(234,410,o),
(221,407,cs),
(214,406,o),
(207,405,o),
(202,405,cs),
(183,405,o),
(172,414,o),
(168,433,cs),
(161,468,o),
(183,498,o),
(235,522,cs),
(258,533,o),
(288,538,o),
(325,538,cs),
(376,538,o),
(416,526,o),
(447,501,cs),
(502,457,o),
(530,386,o),
(530,289,cs),
(530,240,o),
(524,192,o),
(513,144,cs),
(504,106,o),
(489,71,o),
(466,39,cs),
(451,18,o),
(432,6,o),
(409,1,cs),
(377,-6,o),
(352,-1,o),
(333,15,cs),
(317,28,o),
(309,48,o),
(309,73,c),
(294,43,o),
(277,22,o),
(260,10,cs),
(249,2,o),
(234,-2,o),
(217,-1,cs),
(176,0,o),
(139,21,o),
(139,90,cs),
(139,120,o),
(153,151,o),
(180,183,c),
(192,194,o),
(207,210,o),
(226,229,c),
(209,219,o),
(186,209,o),
(155,199,cs),
(140,194,o),
(130,192,o),
(123,192,cs),
(114,192,o),
(108,195,o),
(106,202,cs),
(101,221,o),
(127,252,o),
(158,265,cs),
(178,274,o),
(198,278,o),
(217,278,cs),
(229,278,o),
(239,276,o),
(246,272,c),
(261,277,o),
(276,286,o),
(292,297,cs),
(301,304,o),
(306,313,o),
(306,324,cs),
(306,341,o),
(295,349,o),
(273,349,cs),
(244,349,o),
(209,327,o),
(201,300,c),
(188,305,o),
(182,316,o),
(182,331,cs),
(182,336,o),
(183,342,o),
(185,347,c)
);
}
);
width = 540;
}
);
unicode = 3500;
}
{
color = (166,255,153,255);
glyphname = bullet.007;
layers = (
{
layerId = "B33422F0-91E4-47C9-8809-C0A5C4DE8881";
shapes = (
{
closed = 1;
nodes = (
(188,231,o),
(135,209,o),
(107,177,cs),
(90,158,o),
(82,136,o),
(82,111,cs),
(82,102,o),
(83,93,o),
(86,84,cs),
(96,49,o),
(115,31,o),
(144,31,cs),
(163,31,o),
(182,38,o),
(201,53,cs),
(226,73,o),
(245,86,o),
(258,92,cs),
(279,102,o),
(300,106,o),
(323,104,cs),
(343,103,o),
(355,78,o),
(352,61,c),
(337,65,o),
(314,57,o),
(284,36,cs),
(254,16,o),
(220,1,o),
(183,-8,cs),
(156,-15,o),
(142,-33,o),
(142,-64,cs),
(142,-113,o),
(180,-155,o),
(229,-155,cs),
(235,-155,o),
(241,-154,o),
(248,-153,cs),
(297,-142,o),
(320,-115,o),
(315,-73,cs),
(312,-44,o),
(298,-27,o),
(273,-21,c),
(283,-14,o),
(295,-10,o),
(310,-10,cs),
(339,-10,o),
(366,-27,o),
(369,-52,cs),
(372,-82,o),
(362,-109,o),
(339,-134,cs),
(314,-161,o),
(280,-179,o),
(237,-186,cs),
(224,-188,o),
(210,-189,o),
(197,-189,cs),
(147,-189,o),
(111,-175,o),
(90,-146,cs),
(80,-132,o),
(75,-116,o),
(75,-97,cs),
(75,-56,o),
(93,-24,o),
(129,0,c),
(62,-2,o),
(22,25,o),
(9,80,cs),
(7,89,o),
(6,97,o),
(6,104,cs),
(6,137,o),
(24,167,o),
(59,196,cs),
(73,207,o),
(106,226,o),
(157,251,cs),
(238,290,l),
(249,297,o),
(255,306,o),
(255,317,cs),
(255,338,o),
(241,348,o),
(214,348,cs),
(191,348,o),
(167,340,o),
(141,323,cs),
(116,307,o),
(102,290,o),
(99,272,c),
(88,278,o),
(83,288,o),
(83,302,cs),
(83,319,o),
(89,334,o),
(100,348,cs),
(123,376,o),
(163,392,o),
(219,397,cs),
(276,402,o),
(324,378,o),
(324,338,cs),
(324,319,o),
(313,301,o),
(292,285,cs),
(284,280,o),
(265,269,o),
(235,254,cs)
);
}
);
width = 370;
}
);
unicode = 3503;
}
{
color = (166,255,153,255);
glyphname = endash.007;
layers = (
{
anchors = (
{
name = bottom;
pos = (372,182);
}
);
layerId = "B33422F0-91E4-47C9-8809-C0A5C4DE8881";
shapes = (
{
closed = 1;
nodes = (
(99,43,o),
(102,41,o),
(105,41,cs),
(112,41,o),
(120,50,o),
(129,68,cs),
(157,124,ls),
(166,143,o),
(181,153,o),
(201,153,cs),
(206,153,o),
(215,152,o),
(226,150,c),
(220,133,o),
(217,119,o),
(218,110,cs),
(219,87,o),
(221,62,o),
(230,49,cs),
(236,40,o),
(243,36,o),
(251,36,cs),
(275,36,o),
(301,74,o),
(314,126,cs),
(325,169,o),
(330,218,o),
(330,272,cs),
(330,321,o),
(326,357,o),
(317,380,cs),
(294,441,o),
(264,480,o),
(227,498,cs),
(208,507,o),
(188,511,o),
(165,511,cs),
(144,511,o),
(126,507,o),
(109,499,cs),
(88,489,o),
(78,475,o),
(78,456,cs),
(78,433,o),
(89,422,o),
(111,421,c),
(106,410,o),
(97,404,o),
(84,401,cs),
(77,400,o),
(70,399,o),
(65,399,cs),
(46,399,o),
(35,408,o),
(31,427,cs),
(28,442,o),
(32,457,o),
(41,473,cs),
(52,494,o),
(71,510,o),
(98,522,cs),
(121,533,o),
(151,538,o),
(188,538,cs),
(239,538,o),
(279,526,o),
(310,501,cs),
(365,458,o),
(392,385,o),
(392,283,cs),
(392,223,o),
(382,171,o),
(362,126,cs),
(334,62,o),
(301,21,o),
(263,3,cs),
(255,-1,o),
(244,-2,o),
(229,-1,cs),
(214,0,o),
(204,3,o),
(197,8,cs),
(185,18,o),
(177,30,o),
(173,44,cs),
(171,54,o),
(169,64,o),
(168,74,c),
(137,7,o),
(120,-10,o),
(80,1,cs),
(47,10,o),
(25,33,o),
(15,69,cs),
(7,98,o),
(3,129,o),
(3,163,cs),
(3,190,o),
(6,215,o),
(12,237,cs),
(21,272,o),
(39,305,o),
(65,336,cs),
(92,367,o),
(121,387,o),
(152,394,cs),
(161,396,o),
(170,397,o),
(179,397,cs),
(214,397,o),
(235,382,o),
(241,352,cs),
(245,329,o),
(227,307,o),
(199,302,c),
(207,341,o),
(181,365,o),
(157,365,cs),
(134,365,o),
(115,352,o),
(99,325,cs),
(86,306,o),
(77,283,o),
(72,256,cs),
(66,226,o),
(63,197,o),
(63,168,cs),
(63,114,o),
(74,73,o),
(96,46,cs)
);
}
);
width = 401;
}
);
unicode = 3504;
}
{
color = (166,255,153,255);
glyphname = quotedblright.014;
layers = (
{
layerId = "B33422F0-91E4-47C9-8809-C0A5C4DE8881";
shapes = (
{
closed = 1;
nodes = (
(336,95,o),
(308,60,o),
(269,34,cs),
(234,10,o),
(190,-2,o),
(138,-2,cs),
(67,-2,o),
(24,22,o),
(9,69,cs),
(6,80,o),
(4,91,o),
(4,102,cs),
(4,149,o),
(38,195,o),
(107,240,cs),
(154,271,o),
(175,300,o),
(170,327,cs),
(166,350,o),
(152,362,o),
(129,362,cs),
(122,362,o),
(115,360,o),
(108,357,cs),
(88,348,o),
(71,328,o),
(57,296,cs),
(52,283,o),
(50,268,o),
(53,250,c),
(25,255,o),
(12,272,o),
(15,299,cs),
(18,327,o),
(40,353,o),
(81,378,cs),
(102,391,o),
(128,397,o),
(161,397,cs),
(209,397,o),
(233,376,o),
(233,333,cs),
(233,320,o),
(230,309,o),
(224,299,cs),
(214,284,o),
(180,256,o),
(123,215,cs),
(87,190,o),
(69,158,o),
(69,120,cs),
(69,100,o),
(76,81,o),
(91,63,cs),
(107,43,o),
(134,33,o),
(172,33,cs),
(231,33,o),
(287,77,o),
(308,134,cs),
(323,173,o),
(330,217,o),
(330,266,cs),
(330,359,o),
(306,413,o),
(271,453,cs),
(251,477,o),
(229,495,o),
(204,507,cs),
(183,517,o),
(161,523,o),
(136,525,c),
(139,514,o),
(145,503,o),
(152,493,cs),
(165,476,o),
(180,465,o),
(199,460,cs),
(223,453,o),
(240,454,o),
(251,463,c),
(256,436,o),
(239,423,o),
(199,423,cs),
(187,423,o),
(176,425,o),
(165,428,cs),
(136,436,o),
(113,454,o),
(98,481,cs),
(94,488,o),
(91,501,o),
(90,518,cs),
(89,535,o),
(91,548,o),
(94,557,c),
(115,551,o),
(134,548,o),
(150,547,cs),
(167,546,o),
(191,544,o),
(223,539,c),
(258,529,o),
(285,516,o),
(303,501,cs),
(359,453,o),
(387,388,o),
(387,305,cs),
(387,248,o),
(376,193,o),
(354,140,cs)
);
}
);
width = 395;
}
);
unicode = 3509;
}
{
color = (166,255,153,255);
glyphname = endash.008;
layers = (
{
layerId = "B33422F0-91E4-47C9-8809-C0A5C4DE8881";
shapes = (
{
closed = 1;
nodes = (
(158,297,o),
(157,293,o),
(157,288,cs),
(157,271,o),
(169,259,o),
(193,253,cs),
(212,249,o),
(232,274,o),
(231,289,cs),
(230,308,o),
(224,323,o),
(214,333,c),
(183,324,o),
(165,314,o),
(160,302,cs)
);
},
{
closed = 1;
nodes = (
(325,172,o),
(330,222,o),
(330,276,cs),
(330,323,o),
(326,358,o),
(317,380,cs),
(294,441,o),
(264,480,o),
(227,498,cs),
(208,507,o),
(188,511,o),
(165,511,cs),
(144,511,o),
(126,507,o),
(109,499,cs),
(88,489,o),
(78,475,o),
(78,456,cs),
(78,433,o),
(89,422,o),
(111,421,c),
(106,410,o),
(97,404,o),
(84,401,cs),
(77,400,o),
(70,399,o),
(65,399,cs),
(46,399,o),
(35,408,o),
(31,427,cs),
(28,442,o),
(32,457,o),
(41,473,cs),
(52,494,o),
(71,510,o),
(98,522,cs),
(121,533,o),
(151,538,o),
(188,538,cs),
(239,538,o),
(279,526,o),
(310,501,cs),
(365,458,o),
(392,385,o),
(392,283,cs),
(392,223,o),
(382,171,o),
(362,126,cs),
(332,57,o),
(299,16,o),
(262,3,cs),
(237,-6,o),
(218,-5,o),
(203,7,cs),
(184,22,o),
(175,42,o),
(175,67,cs),
(175,86,o),
(188,104,o),
(213,121,cs),
(218,125,o),
(221,130,o),
(221,135,cs),
(221,152,o),
(199,171,o),
(180,167,cs),
(167,164,o),
(160,158,o),
(160,147,cs),
(160,140,o),
(169,109,o),
(169,93,cs),
(169,82,o),
(167,72,o),
(163,63,cs),
(152,38,o),
(139,20,o),
(123,10,cs),
(105,-1,o),
(89,-4,o),
(74,-1,cs),
(46,5,o),
(26,28,o),
(15,69,cs),
(7,98,o),
(3,129,o),
(3,163,cs),
(3,190,o),
(6,215,o),
(12,237,cs),
(23,279,o),
(45,315,o),
(78,345,cs),
(117,381,o),
(158,398,o),
(201,397,cs),
(249,396,o),
(284,359,o),
(284,311,cs),
(284,266,o),
(256,235,o),
(200,217,cs),
(193,215,o),
(185,214,o),
(178,214,cs),
(143,214,o),
(115,238,o),
(115,273,cs),
(115,282,o),
(117,292,o),
(122,302,cs),
(132,322,o),
(155,338,o),
(192,351,c),
(184,356,o),
(176,359,o),
(167,359,cs),
(145,359,o),
(127,351,o),
(112,336,cs),
(81,304,o),
(65,251,o),
(65,178,cs),
(65,119,o),
(75,75,o),
(95,46,cs),
(98,41,o),
(102,38,o),
(106,38,cs),
(115,38,o),
(122,57,o),
(121,73,c),
(116,99,ls),
(113,110,o),
(112,120,o),
(112,127,cs),
(112,136,o),
(113,143,o),
(116,150,cs),
(125,174,o),
(167,194,o),
(204,194,cs),
(234,194,o),
(252,184,o),
(258,163,cs),
(259,158,o),
(260,153,o),
(260,149,cs),
(260,140,o),
(257,130,o),
(250,121,cs),
(235,102,l),
(230,93,o),
(229,82,o),
(234,68,cs),
(240,51,o),
(248,42,o),
(257,42,cs),
(276,42,o),
(302,73,o),
(314,126,cs)
);
}
);
width = 401;
}
);
unicode = 3513;
}
{
color = (166,255,153,255);
glyphname = quoteright.009;
layers = (
{
layerId = "B33422F0-91E4-47C9-8809-C0A5C4DE8881";
shapes = (
{
closed = 1;
nodes = (
(100,312,l),
(111,340,o),
(131,362,o),
(161,378,cs),
(186,392,o),
(212,399,o),
(238,399,cs),
(269,399,o),
(293,385,o),
(309,356,cs),
(322,333,o),
(328,305,o),
(328,270,cs),
(328,234,o),
(321,198,o),
(308,162,cs),
(291,117,o),
(266,79,o),
(233,48,cs),
(200,17,o),
(168,0,o),
(135,-2,cs),
(92,-5,o),
(61,3,o),
(40,22,cs),
(16,43,o),
(4,79,o),
(5,130,cs),
(6,218,o),
(37,319,o),
(99,433,cs),
(108,449,o),
(141,501,o),
(200,589,c),
(214,597,o),
(223,601,o),
(227,601,cs),
(230,601,o),
(233,600,o),
(236,597,c),
(208,560,o),
(178,511,o),
(146,449,cs),
(91,344,o),
(64,248,o),
(64,160,cs),
(64,71,o),
(89,27,o),
(139,28,cs),
(161,29,o),
(184,41,o),
(209,65,cs),
(234,90,o),
(253,121,o),
(264,158,cs),
(271,183,o),
(275,208,o),
(275,233,cs),
(275,277,o),
(264,310,o),
(241,333,cs),
(229,345,o),
(215,351,o),
(199,351,cs),
(180,351,o),
(160,344,o),
(141,329,cs),
(122,314,o),
(108,299,o),
(100,282,c)
);
}
);
width = 339;
}
);
unicode = 3515;
}
{
color = (166,255,153,255);
glyphname = quotedblleft.016;
layers = (
{
layerId = "B33422F0-91E4-47C9-8809-C0A5C4DE8881";
shapes = (
{
closed = 1;
nodes = (
(306,-12,o),
(319,-8,o),
(331,-8,cs),
(359,-8,o),
(379,-30,o),
(378,-61,cs),
(377,-85,o),
(360,-110,o),
(325,-136,cs),
(296,-158,o),
(259,-170,o),
(214,-173,cs),
(115,-180,o),
(50,-139,o),
(17,-52,cs),
(8,-27,o),
(3,6,o),
(3,48,cs),
(3,71,o),
(5,95,o),
(8,120,cs),
(17,181,o),
(33,231,o),
(57,270,cs),
(92,325,o),
(132,362,o),
(177,382,cs),
(199,392,o),
(226,397,o),
(257,397,cs),
(287,397,o),
(313,392,o),
(335,382,cs),
(360,371,o),
(380,349,o),
(394,316,cs),
(405,291,o),
(410,262,o),
(410,229,cs),
(410,180,o),
(402,140,o),
(385,107,cs),
(370,77,o),
(350,52,o),
(326,33,cs),
(298,11,o),
(269,0,o),
(238,0,cs),
(227,0,o),
(217,1,o),
(206,4,cs),
(154,18,o),
(128,61,o),
(128,133,cs),
(128,180,o),
(141,226,o),
(168,270,cs),
(197,318,o),
(232,348,o),
(275,359,c),
(265,367,o),
(248,370,o),
(225,367,cs),
(195,364,o),
(166,350,o),
(139,325,cs),
(108,296,o),
(87,260,o),
(76,217,cs),
(67,183,o),
(63,145,o),
(63,104,cs),
(63,31,o),
(77,-26,o),
(104,-67,cs),
(137,-116,o),
(180,-141,o),
(233,-141,cs),
(241,-141,o),
(249,-140,o),
(257,-139,cs),
(274,-136,o),
(288,-129,o),
(301,-118,cs),
(316,-105,o),
(324,-90,o),
(324,-73,cs),
(324,-54,o),
(314,-36,o),
(293,-20,c)
);
},
{
closed = 1;
nodes = (
(281,347,o),
(241,317,o),
(221,285,cs),
(202,254,o),
(192,212,o),
(192,161,cs),
(192,150,o),
(193,141,o),
(194,132,cs),
(202,84,o),
(219,55,o),
(245,44,cs),
(252,41,o),
(260,39,o),
(268,39,cs),
(289,39,o),
(307,50,o),
(324,73,cs),
(338,92,o),
(347,114,o),
(351,138,cs),
(354,153,o),
(355,168,o),
(355,185,cs),
(355,253,o),
(337,306,o),
(301,344,c)
);
}
);
width = 419;
}
);
unicode = 3517;
}
{
color = (166,255,153,255);
glyphname = emdash.009;
layers = (
{
layerId = "B33422F0-91E4-47C9-8809-C0A5C4DE8881";
shapes = (
{
closed = 1;
nodes = (
(87,249,o),
(87,257,o),
(87,265,cs),
(87,334,o),
(129,391,o),
(194,398,cs),
(237,403,o),
(267,387,o),
(282,350,c),
(297,382,o),
(323,398,o),
(360,398,cs),
(411,398,o),
(444,354,o),
(444,303,cs),
(444,276,o),
(437,249,o),
(422,222,c),
(398,251,o),
(361,268,o),
(310,274,cs),
(295,276,o),
(281,277,o),
(267,277,cs),
(216,277,o),
(177,265,o),
(150,242,c),
(155,206,o),
(169,173,o),
(192,143,cs),
(221,104,o),
(257,84,o),
(302,82,cs),
(342,81,o),
(375,108,o),
(372,144,cs),
(370,170,o),
(356,187,o),
(330,194,c),
(341,206,o),
(355,211,o),
(374,210,cs),
(403,209,o),
(423,183,o),
(424,152,cs),
(425,123,o),
(409,98,o),
(377,79,cs),
(348,62,o),
(313,54,o),
(273,54,cs),
(243,54,o),
(217,59,o),
(194,70,cs),
(143,95,o),
(111,135,o),
(100,190,c),
(87,174,o),
(71,129,o),
(70,97,cs),
(69,64,o),
(71,36,o),
(77,13,cs),
(86,-20,o),
(100,-47,o),
(119,-68,cs),
(142,-94,o),
(171,-111,o),
(206,-120,cs),
(243,-129,o),
(276,-131,o),
(303,-126,cs),
(357,-116,o),
(384,-93,o),
(383,-58,cs),
(383,-39,o),
(373,-21,o),
(352,-5,c),
(366,4,o),
(380,8,o),
(393,8,cs),
(424,8,o),
(440,-9,o),
(439,-42,cs),
(438,-67,o),
(422,-93,o),
(389,-118,cs),
(356,-143,o),
(313,-158,o),
(260,-161,cs),
(159,-168,o),
(70,-132,o),
(29,-55,cs),
(13,-24,o),
(5,12,o),
(5,54,cs),
(5,88,o),
(11,120,o),
(22,150,cs),
(37,187,o),
(59,218,o),
(88,242,c)
);
},
{
closed = 1;
nodes = (
(163,286,o),
(179,293,o),
(195,297,cs),
(220,303,o),
(241,306,o),
(260,306,c),
(263,334,o),
(241,374,o),
(212,374,cs),
(167,374,o),
(144,350,o),
(144,302,cs),
(144,294,o),
(145,286,o),
(146,277,c)
);
},
{
closed = 1;
nodes = (
(352,298,ls),
(364,296,o),
(375,293,o),
(384,288,c),
(393,300,o),
(397,314,o),
(397,329,cs),
(397,350,o),
(390,364,o),
(376,370,cs),
(371,372,o),
(366,373,o),
(361,373,cs),
(336,373,o),
(319,350,o),
(310,304,c)
);
}
);
width = 454;
}
);
unicode = 3525;
}
{
glyphname = quotedblright.021;
layers = (
{
layerId = "B33422F0-91E4-47C9-8809-C0A5C4DE8881";
shapes = (
{
closed = 1;
nodes = (
(-163,325,l),
(-163,654,l),
(-133,654,l),
(-130,647,o),
(-121,641,o),
(-107,636,cs),
(-96,632,o),
(-61,635,o),
(-33,626,cs),
(4,614,o),
(23,588,o),
(23,549,cs),
(23,508,o),
(-15,475,o),
(-58,475,cs),
(-83,475,o),
(-108,486,o),
(-108,514,cs),
(-108,530,o),
(-102,540,o),
(-91,544,cs),
(-85,546,o),
(-80,547,o),
(-75,547,cs),
(-62,547,o),
(-53,538,o),
(-48,519,c),
(-27,527,o),
(-18,545,o),
(-22,572,cs),
(-25,589,o),
(-36,598,o),
(-57,598,cs),
(-62,598,o),
(-68,596,o),
(-75,593,cs),
(-85,590,o),
(-92,587,o),
(-97,586,cs),
(-108,583,o),
(-119,586,o),
(-131,594,c),
(-131,316,l),
(-131,316,l)
);
}
);
width = 3;
}
);
unicode = 3530;
}
{
color = (166,255,153,255);
glyphname = quotedblright.022;
layers = (
{
layerId = "B33422F0-91E4-47C9-8809-C0A5C4DE8881";
shapes = (
{
closed = 1;
nodes = (
(38,387,o),
(53,380,o),
(69,379,cs),
(83,378,o),
(98,379,o),
(115,384,cs),
(140,391,o),
(156,395,o),
(162,396,cs),
(169,397,o),
(175,398,o),
(182,398,cs),
(207,398,o),
(227,391,o),
(241,377,c),
(222,363,o),
(193,339,o),
(155,305,cs),
(125,275,o),
(102,246,o),
(85,217,cs),
(70,192,o),
(63,163,o),
(63,129,cs),
(63,110,o),
(66,92,o),
(72,77,cs),
(85,44,o),
(105,27,o),
(130,27,cs),
(157,27,o),
(179,50,o),
(179,77,cs),
(179,102,o),
(167,117,o),
(142,124,c),
(151,138,o),
(165,145,o),
(184,145,cs),
(211,145,o),
(226,132,o),
(226,104,cs),
(226,87,o),
(223,74,o),
(217,63,cs),
(200,33,o),
(179,13,o),
(152,4,cs),
(129,-4,o),
(105,-6,o),
(80,-1,cs),
(28,9,o),
(2,43,o),
(2,101,cs),
(2,146,o),
(17,188,o),
(46,227,cs),
(65,252,o),
(89,279,o),
(118,306,cs),
(145,331,o),
(171,352,o),
(194,369,c),
(191,370,o),
(187,370,o),
(184,370,cs),
(163,370,o),
(141,362,o),
(118,346,cs),
(101,334,o),
(83,328,o),
(65,328,cs),
(46,328,o),
(31,335,o),
(21,349,cs),
(17,355,o),
(15,362,o),
(15,370,cs),
(15,381,o),
(18,390,o),
(24,399,c)
);
}
);
width = 236;
}
);
unicode = 3536;
}
{
color = (166,255,153,255);
glyphname = quotedblleft.023;
layers = (
{
layerId = "B33422F0-91E4-47C9-8809-C0A5C4DE8881";
shapes = (
{
closed = 1;
nodes = (
(33,387,o),
(48,380,o),
(64,379,cs),
(84,377,o),
(113,379,o),
(152,386,cs),
(198,393,o),
(224,396,o),
(230,393,c),
(207,354,o),
(163,316,o),
(98,279,c),
(115,278,o),
(138,277,o),
(165,278,c),
(212,284,o),
(232,287,o),
(225,287,c),
(225,276,o),
(211,261,o),
(183,242,cs),
(142,215,o),
(115,194,o),
(100,180,cs),
(75,155,o),
(62,129,o),
(62,102,cs),
(62,92,o),
(64,83,o),
(67,74,cs),
(76,50,o),
(101,24,o),
(125,24,cs),
(152,24,o),
(174,49,o),
(174,76,cs),
(174,89,o),
(170,101,o),
(161,110,c),
(156,117,o),
(148,121,o),
(137,124,c),
(146,138,o),
(160,145,o),
(179,145,cs),
(206,145,o),
(221,132,o),
(221,104,cs),
(221,87,o),
(218,74,o),
(212,63,cs),
(196,34,o),
(175,15,o),
(150,5,cs),
(122,-6,o),
(94,-8,o),
(65,-1,cs),
(21,10,o),
(-1,38,o),
(-1,83,cs),
(-1,120,o),
(19,156,o),
(60,191,cs),
(90,216,o),
(113,232,o),
(130,238,c),
(125,237,o),
(116,238,o),
(103,239,cs),
(88,240,o),
(78,240,o),
(72,240,cs),
(63,240,o),
(52,238,o),
(40,235,cs),
(25,232,o),
(18,230,o),
(18,230,c),
(21,255,o),
(45,281,o),
(89,308,cs),
(120,327,o),
(140,344,o),
(149,359,c),
(146,358,o),
(131,353,o),
(105,342,cs),
(87,335,o),
(70,331,o),
(53,331,cs),
(30,331,o),
(15,338,o),
(10,351,cs),
(8,356,o),
(7,361,o),
(7,366,cs),
(7,380,o),
(11,391,o),
(19,399,c)
);
}
);
width = 231;
}
);
unicode = 3537;
}
{
color = (166,255,153,255);
glyphname = quotedblright.023;
layers = (
{
layerId = "B33422F0-91E4-47C9-8809-C0A5C4DE8881";
shapes = (
{
closed = 1;
nodes = (
(-98,421,o),
(-78,439,o),
(-70,477,cs),
(-69,484,o),
(-68,490,o),
(-68,497,cs),
(-68,564,o),
(-123,590,o),
(-200,578,cs),
(-275,567,o),
(-311,532,o),
(-310,473,cs),
(-309,442,o),
(-295,426,o),
(-267,426,cs),
(-258,426,o),
(-249,428,o),
(-240,433,c),
(-241,429,o),
(-244,422,o),
(-248,413,c),
(-263,402,o),
(-279,396,o),
(-297,396,cs),
(-330,396,o),
(-360,417,o),
(-365,442,cs),
(-366,450,o),
(-367,458,o),
(-367,465,cs),
(-367,492,o),
(-356,518,o),
(-335,543,cs),
(-310,573,o),
(-272,593,o),
(-223,602,cs),
(-182,610,o),
(-140,608,o),
(-99,597,cs),
(-74,590,o),
(-53,576,o),
(-36,555,cs),
(-17,531,o),
(-9,504,o),
(-13,475,cs),
(-15,458,o),
(-22,443,o),
(-34,428,cs),
(-48,413,o),
(-64,404,o),
(-82,401,cs),
(-103,398,o),
(-119,406,o),
(-129,424,c)
);
}
);
width = 2;
}
);
unicode = 3538;
}
{
color = (166,255,153,255);
glyphname = endash.012;
layers = (
{
anchors = (
{
name = _bottom;
pos = (-33,60);
}
);
layerId = "B33422F0-91E4-47C9-8809-C0A5C4DE8881";
shapes = (
{
closed = 1;
nodes = (
(-353,-172,o),
(-313,-162,o),
(-261,-149,cs),
(-234,-143,o),
(-207,-139,o),
(-180,-137,cs),
(-157,-135,o),
(-127,-137,o),
(-108,-143,c),
(-104,-96,o),
(-78,5,o),
(-70,80,c),
(-63,94,o),
(-63,101,o),
(-39,101,cs),
(-32,101,o),
(-26,100,o),
(-20,98,c),
(-25,79,o),
(-31,38,o),
(-52,-65,cs),
(-64,-123,o),
(-65,-168,o),
(-66,-195,c),
(-141,-190,o),
(-184,-188,o),
(-195,-188,cs),
(-214,-188,o),
(-246,-190,o),
(-293,-194,cs),
(-340,-198,o),
(-371,-200,o),
(-384,-200,c),
(-384,-205,o),
(-383,-198,o),
(-381,-180,c)
);
}
);
width = 2;
}
);
unicode = 3540;
}
{
color = (166,255,153,255);
glyphname = emdash.012;
layers = (
{
layerId = "B33422F0-91E4-47C9-8809-C0A5C4DE8881";
shapes = (
{
closed = 1;
nodes = (
(-314,-107,o),
(-322,-119,o),
(-322,-136,cs),
(-322,-163,o),
(-304,-176,o),
(-267,-175,cs),
(-254,-175,o),
(-217,-164,o),
(-158,-142,cs),
(-139,-135,o),
(-123,-134,o),
(-108,-138,c),
(-103,-87,o),
(-97,-22,o),
(-88,56,c),
(-81,70,o),
(-66,77,o),
(-42,77,cs),
(-35,77,o),
(-29,76,o),
(-23,74,c),
(-28,54,o),
(-34,11,o),
(-43,-55,cs),
(-52,-122,o),
(-58,-168,o),
(-59,-195,c),
(-83,-184,o),
(-104,-179,o),
(-121,-179,cs),
(-135,-179,o),
(-157,-182,o),
(-187,-188,cs),
(-233,-197,o),
(-267,-202,o),
(-289,-202,cs),
(-312,-202,o),
(-332,-199,o),
(-347,-192,cs),
(-373,-181,o),
(-386,-163,o),
(-386,-138,cs),
(-386,-123,o),
(-380,-111,o),
(-367,-102,cs),
(-357,-95,o),
(-345,-91,o),
(-332,-91,cs),
(-318,-91,o),
(-306,-95,o),
(-297,-102,c)
);
}
);
width = 2;
}
);
unicode = 3542;
}
{
color = (166,255,153,255);
glyphname = quotedblleft.024;
layers = (
{
layerId = "B33422F0-91E4-47C9-8809-C0A5C4DE8881";
shapes = (
{
closed = 1;
nodes = (
(34,295,o),
(28,309,o),
(28,325,cs),
(28,336,o),
(31,346,o),
(38,356,cs),
(59,387,o),
(92,401,o),
(137,398,cs),
(169,397,o),
(194,388,o),
(213,371,cs),
(235,352,o),
(245,326,o),
(244,291,cs),
(243,266,o),
(237,231,o),
(226,187,cs),
(215,144,o),
(209,108,o),
(209,79,cs),
(208,27,o),
(208,0,o),
(209,-3,c),
(200,0,o),
(173,18,o),
(156,18,cs),
(143,18,o),
(128,14,o),
(113,5,cs),
(104,0,o),
(93,-3,o),
(81,-3,cs),
(64,-3,o),
(49,1,o),
(38,9,cs),
(11,27,o),
(-2,56,o),
(-2,96,cs),
(-2,111,o),
(0,126,o),
(5,141,cs),
(12,166,o),
(28,187,o),
(51,205,cs),
(74,224,o),
(99,233,o),
(124,233,cs),
(152,233,o),
(167,224,o),
(168,207,c),
(141,213,o),
(117,211,o),
(98,202,cs),
(69,188,o),
(55,163,o),
(55,128,cs),
(55,91,o),
(65,64,o),
(84,49,cs),
(95,40,o),
(110,38,o),
(131,42,cs),
(152,47,o),
(166,46,o),
(175,41,c),
(168,97,o),
(168,142,o),
(173,176,cs),
(181,219,o),
(192,266,o),
(188,299,cs),
(183,348,o),
(162,372,o),
(125,372,cs),
(107,372,o),
(90,362,o),
(74,341,cs),
(62,325,o),
(53,306,o),
(46,284,c)
);
}
);
width = 256;
}
);
unicode = 3544;
}
{
color = (166,255,153,255);
glyphname = quotedblright.024;
layers = (
{
layerId = "B33422F0-91E4-47C9-8809-C0A5C4DE8881";
shapes = (
{
closed = 1;
nodes = (
(341,285,o),
(353,303,o),
(353,328,cs),
(353,335,o),
(352,342,o),
(349,349,cs),
(337,378,o),
(288,397,o),
(235,397,cs),
(220,397,o),
(206,396,o),
(193,393,cs),
(141,383,o),
(97,356,o),
(62,313,cs),
(21,263,o),
(3,206,o),
(6,143,cs),
(10,59,o),
(67,-2,o),
(150,-2,cs),
(187,-2,o),
(221,8,o),
(252,28,cs),
(285,49,o),
(308,78,o),
(319,114,cs),
(326,137,o),
(330,159,o),
(330,179,cs),
(330,224,o),
(312,259,o),
(276,283,cs),
(263,292,o),
(247,296,o),
(228,296,cs),
(205,296,o),
(183,290,o),
(164,278,cs),
(143,265,o),
(128,248,o),
(120,226,cs),
(116,215,o),
(114,204,o),
(114,193,cs),
(114,156,o),
(138,130,o),
(174,130,cs),
(203,130,o),
(222,143,o),
(232,168,c),
(203,161,o),
(171,178,o),
(171,218,cs),
(171,247,o),
(182,265,o),
(203,270,cs),
(218,273,o),
(231,266,o),
(244,249,cs),
(253,237,o),
(260,223,o),
(265,206,cs),
(270,187,o),
(273,168,o),
(273,147,cs),
(273,86,o),
(253,50,o),
(212,38,cs),
(201,35,o),
(190,33,o),
(179,33,cs),
(150,33,o),
(124,45,o),
(100,69,cs),
(77,94,o),
(65,131,o),
(65,182,cs),
(65,197,o),
(66,212,o),
(69,227,cs),
(76,265,o),
(92,297,o),
(118,324,cs),
(147,353,o),
(179,368,o),
(216,368,cs),
(275,368,o),
(315,334,o),
(318,273,c)
);
}
);
width = 360;
}
);
unicode = 3545;
}
{
color = (166,255,153,255);
glyphname = quotedblright.025;
layers = (
{
layerId = "B33422F0-91E4-47C9-8809-C0A5C4DE8881";
shapes = (
{
closed = 1;
nodes = (
(341,285,o),
(353,303,o),
(353,328,cs),
(353,335,o),
(352,342,o),
(349,349,cs),
(337,378,o),
(288,397,o),
(235,397,cs),
(220,397,o),
(206,396,o),
(193,393,cs),
(141,383,o),
(97,356,o),
(62,313,cs),
(21,263,o),
(3,206,o),
(6,143,cs),
(10,59,o),
(67,-2,o),
(150,-2,cs),
(187,-2,o),
(221,8,o),
(252,28,cs),
(285,49,o),
(308,78,o),
(319,114,cs),
(326,137,o),
(330,159,o),
(330,179,cs),
(330,224,o),
(312,259,o),
(276,283,cs),
(263,292,o),
(247,296,o),
(228,296,cs),
(205,296,o),
(183,290,o),
(164,278,cs),
(143,265,o),
(128,248,o),
(120,226,cs),
(116,215,o),
(114,204,o),
(114,193,cs),
(114,156,o),
(138,130,o),
(174,130,cs),
(203,130,o),
(222,143,o),
(232,168,c),
(203,161,o),
(171,178,o),
(171,218,cs),
(171,247,o),
(182,265,o),
(203,270,cs),
(218,273,o),
(231,266,o),
(244,249,cs),
(253,237,o),
(260,223,o),
(265,206,cs),
(270,187,o),
(273,168,o),
(273,147,cs),
(273,86,o),
(253,50,o),
(212,38,cs),
(201,35,o),
(190,33,o),
(179,33,cs),
(150,33,o),
(124,45,o),
(100,69,cs),
(77,94,o),
(65,131,o),
(65,182,cs),
(65,197,o),
(66,212,o),
(69,227,cs),
(76,265,o),
(92,297,o),
(118,324,cs),
(147,353,o),
(179,368,o),
(216,368,cs),
(275,368,o),
(315,334,o),
(318,273,c)
);
},
{
closed = 1;
nodes = (
(685,285,o),
(697,303,o),
(697,328,cs),
(697,335,o),
(696,342,o),
(693,349,cs),
(681,378,o),
(632,397,o),
(579,397,cs),
(564,397,o),
(550,396,o),
(537,393,cs),
(485,383,o),
(441,356,o),
(406,313,cs),
(365,263,o),
(347,206,o),
(350,143,cs),
(354,59,o),
(411,-2,o),
(494,-2,cs),
(531,-2,o),
(565,8,o),
(596,28,cs),
(629,49,o),
(652,78,o),
(663,114,cs),
(670,137,o),
(674,159,o),
(674,179,cs),
(674,224,o),
(656,259,o),
(620,283,cs),
(607,292,o),
(591,296,o),
(572,296,cs),
(549,296,o),
(527,290,o),
(508,278,cs),
(487,265,o),
(472,248,o),
(464,226,cs),
(460,215,o),
(458,204,o),
(458,193,cs),
(458,156,o),
(482,130,o),
(518,130,cs),
(547,130,o),
(566,143,o),
(576,168,c),
(547,161,o),
(515,178,o),
(515,218,cs),
(515,247,o),
(526,265,o),
(547,270,cs),
(562,273,o),
(575,266,o),
(588,249,cs),
(597,237,o),
(604,223,o),
(609,206,cs),
(614,187,o),
(617,168,o),
(617,147,cs),
(617,86,o),
(597,50,o),
(556,38,cs),
(545,35,o),
(534,33,o),
(523,33,cs),
(494,33,o),
(468,45,o),
(444,69,cs),
(421,94,o),
(409,131,o),
(409,182,cs),
(409,197,o),
(410,212,o),
(413,227,cs),
(420,265,o),
(436,297,o),
(462,324,cs),
(491,353,o),
(523,368,o),
(560,368,cs),
(619,368,o),
(659,334,o),
(662,273,c)
);
}
);
width = 705;
}
);
unicode = 3547;
}
{
color = (166,255,153,255);
glyphname = quoteright.014;
layers = (
{
layerId = "B33422F0-91E4-47C9-8809-C0A5C4DE8881";
shapes = (
{
closed = 1;
nodes = (
(134,386,o),
(124,399,o),
(103,399,cs),
(96,399,o),
(87,397,o),
(77,393,cs),
(55,384,o),
(35,360,o),
(18,319,cs),
(8,295,o),
(3,268,o),
(3,238,cs),
(3,191,o),
(14,163,o),
(36,154,cs),
(45,151,o),
(53,149,o),
(62,149,cs),
(87,149,o),
(107,162,o),
(120,188,cs),
(125,199,o),
(135,230,o),
(149,282,cs),
(160,323,o),
(171,345,o),
(182,348,cs),
(185,349,o),
(189,350,o),
(192,350,cs),
(205,350,o),
(215,335,o),
(221,306,cs),
(226,285,o),
(228,261,o),
(228,234,cs),
(228,200,o),
(224,166,o),
(217,133,cs),
(202,66,o),
(159,32,o),
(112,35,cs),
(75,38,o),
(49,64,o),
(35,115,c),
(18,102,o),
(10,86,o),
(10,68,cs),
(10,45,o),
(20,28,o),
(39,15,cs),
(56,4,o),
(76,-1,o),
(99,-1,cs),
(131,-1,o),
(160,8,o),
(185,26,cs),
(216,48,o),
(240,83,o),
(258,131,cs),
(273,174,o),
(281,217,o),
(281,260,cs),
(281,343,o),
(261,388,o),
(220,397,cs),
(215,398,o),
(211,398,o),
(206,398,cs),
(174,398,o),
(148,367,o),
(127,305,cs),
(121,284,o),
(115,264,o),
(110,243,c),
(99,210,o),
(90,194,o),
(82,194,cs),
(69,194,o),
(61,202,o),
(56,217,cs),
(51,235,o),
(48,254,o),
(48,275,cs),
(48,310,o),
(54,337,o),
(66,354,cs),
(73,365,o),
(83,370,o),
(95,370,cs),
(104,370,o),
(116,367,o),
(131,360,c)
);
}
);
width = 290;
}
);
unicode = 3551;
}
{
color = (166,255,153,255);
glyphname = quotedblright.026;
layers = (
{
layerId = "B33422F0-91E4-47C9-8809-C0A5C4DE8881";
shapes = (
{
closed = 1;
nodes = (
(34,295,o),
(28,309,o),
(28,325,cs),
(28,336,o),
(31,346,o),
(38,356,cs),
(59,387,o),
(92,401,o),
(137,398,cs),
(169,397,o),
(194,388,o),
(213,371,cs),
(235,352,o),
(245,326,o),
(244,291,cs),
(243,266,o),
(237,231,o),
(226,187,cs),
(215,144,o),
(209,108,o),
(209,79,cs),
(208,27,o),
(208,0,o),
(209,-3,c),
(200,0,o),
(173,18,o),
(156,18,cs),
(143,18,o),
(128,14,o),
(113,5,cs),
(104,0,o),
(93,-3,o),
(81,-3,cs),
(64,-3,o),
(49,1,o),
(38,9,cs),
(11,27,o),
(-2,56,o),
(-2,96,cs),
(-2,111,o),
(0,126,o),
(5,141,cs),
(12,166,o),
(28,187,o),
(51,205,cs),
(74,224,o),
(99,233,o),
(124,233,cs),
(152,233,o),
(167,224,o),
(168,207,c),
(141,213,o),
(117,211,o),
(98,202,cs),
(69,188,o),
(55,163,o),
(55,128,cs),
(55,91,o),
(65,64,o),
(84,49,cs),
(95,40,o),
(110,38,o),
(131,42,cs),
(152,47,o),
(166,46,o),
(175,41,c),
(168,97,o),
(168,142,o),
(173,176,cs),
(181,219,o),
(192,266,o),
(188,299,cs),
(183,348,o),
(162,372,o),
(125,372,cs),
(107,372,o),
(90,362,o),
(74,341,cs),
(62,325,o),
(53,306,o),
(46,284,c)
);
},
{
closed = 1;
nodes = (
(280,295,o),
(274,309,o),
(274,325,cs),
(274,336,o),
(277,346,o),
(284,356,cs),
(305,387,o),
(338,401,o),
(383,398,cs),
(415,397,o),
(440,388,o),
(459,371,cs),
(481,352,o),
(491,326,o),
(490,291,cs),
(489,266,o),
(483,231,o),
(472,187,cs),
(461,144,o),
(455,108,o),
(455,79,cs),
(454,27,o),
(454,0,o),
(455,-3,c),
(446,0,o),
(419,18,o),
(402,18,cs),
(389,18,o),
(374,14,o),
(359,5,cs),
(350,0,o),
(339,-3,o),
(327,-3,cs),
(310,-3,o),
(295,1,o),
(284,9,cs),
(257,27,o),
(244,56,o),
(244,96,cs),
(244,111,o),
(246,126,o),
(251,141,cs),
(258,166,o),
(274,187,o),
(297,205,cs),
(320,224,o),
(345,233,o),
(370,233,cs),
(398,233,o),
(413,224,o),
(414,207,c),
(387,213,o),
(363,211,o),
(344,202,cs),
(315,188,o),
(301,163,o),
(301,128,cs),
(301,91,o),
(311,64,o),
(330,49,cs),
(341,40,o),
(356,38,o),
(377,42,cs),
(398,47,o),
(412,46,o),
(421,41,c),
(414,97,o),
(414,142,o),
(419,176,cs),
(427,219,o),
(438,266,o),
(434,299,cs),
(429,348,o),
(408,372,o),
(371,372,cs),
(353,372,o),
(336,362,o),
(320,341,cs),
(308,325,o),
(299,306,o),
(292,284,c)
);
}
);
width = 498;
}
);
unicode = 3570;
}
{
glyphname = quotedblright.027;
layers = (
{
layerId = "B33422F0-91E4-47C9-8809-C0A5C4DE8881";
shapes = (
{
closed = 1;
nodes = (
(121,38,o),
(127,51,o),
(127,67,cs),
(127,95,o),
(105,123,o),
(82,124,cs),
(48,125,o),
(31,107,o),
(31,68,cs),
(31,60,o),
(32,53,o),
(34,48,cs),
(45,19,o),
(78,-7,o),
(110,-4,cs),
(135,-3,o),
(169,11,o),
(210,36,cs),
(238,53,o),
(266,71,o),
(295,88,c),
(298,89,o),
(300,90,o),
(303,90,cs),
(315,90,o),
(328,79,o),
(341,56,c),
(403,166,l),
(433,80,l),
(546,229,l),
(574,118,l),
(706,267,l),
(736,122,l),
(871,270,l),
(885,94,l),
(1043,243,l),
(1025,77,l),
(1181,180,l),
(1151,44,l),
(1300,136,l),
(1274,46,l),
(1285,53,o),
(1295,61,o),
(1305,68,cs),
(1320,77,o),
(1336,81,o),
(1354,82,cs),
(1369,83,o),
(1393,69,o),
(1426,42,cs),
(1460,13,o),
(1493,-3,o),
(1526,-4,cs),
(1602,-7,o),
(1641,14,o),
(1644,60,cs),
(1647,92,o),
(1623,115,o),
(1592,114,cs),
(1559,113,o),
(1543,97,o),
(1543,67,cs),
(1543,52,o),
(1548,37,o),
(1558,22,c),
(1550,19,o),
(1542,18,o),
(1533,18,cs),
(1494,18,o),
(1452,45,o),
(1432,74,cs),
(1412,104,o),
(1391,119,o),
(1368,119,cs),
(1357,119,o),
(1346,115,o),
(1336,106,c),
(1368,206,l),
(1223,114,l),
(1257,256,l),
(1089,148,l),
(1113,337,l),
(941,178,l),
(927,368,l),
(780,200,l),
(750,349,l),
(614,192,l),
(584,313,l),
(459,146,l),
(425,244,l),
(347,106,l),
(338,123,o),
(322,129,o),
(301,124,cs),
(288,121,o),
(265,107,o),
(234,82,cs),
(201,55,o),
(177,39,o),
(164,34,cs),
(142,25,o),
(129,21,o),
(125,21,cs),
(118,21,o),
(113,23,o),
(108,28,c)
);
}
);
width = 1718;
}
);
unicode = 3572;
}
{
glyphname = emdash.015;
layers = (
{
layerId = "B33422F0-91E4-47C9-8809-C0A5C4DE8881";
shapes = (
{
closed = 1;
nodes = (
(22,-236,l),
(0,-236,l),
(0,636,l),
(22,636,l),
(22,636,l)
);
}
);
width = 27;
}
);
unicode = 8204;
}
{
glyphname = quoteright.016;
layers = (
{
layerId = "B33422F0-91E4-47C9-8809-C0A5C4DE8881";
shapes = (
{
closed = 1;
nodes = (
(133,517,l),
(118,502,l),
(77,544,l),
(77,-236,l),
(55,-236,l),
(55,543,l),
(14,502,l),
(-1,517,l),
(51,569,l),
(-1,622,l),
(14,636,l),
(66,584,l),
(118,636,l),
(133,622,l),
(81,569,l),
(81,569,l)
);
},
{
closed = 1;
nodes = (
(26,697,o),
(24,673,o),
(20,640,cs),
(20,639,o),
(19,639,o),
(16,640,cs),
(13,641,o),
(12,640,o),
(11,639,c),
(-14,482,l),
(-41,283,l),
(-44,271,o),
(-48,265,o),
(-54,265,cs),
(-56,265,o),
(-58,266,o),
(-61,268,cs),
(-73,278,o),
(-79,291,o),
(-78,306,cs),
(-77,342,o),
(-67,420,o),
(-48,539,cs),
(-36,616,o),
(-24,673,o),
(-13,712,c),
(-2,719,o),
(11,718,o),
(26,710,c)
);
}
);
width = 143;
}
);
unicode = 8205;
}
{
color = (166,255,153,255);
glyphname = quoteleft;
layers = (
{
layerId = "B33422F0-91E4-47C9-8809-C0A5C4DE8881";
shapes = (
{
closed = 1;
nodes = (
(116,400,o),
(99,387,o),
(74,387,cs),
(51,387,o),
(35,396,o),
(26,415,cs),
(21,426,o),
(18,438,o),
(18,451,cs),
(18,488,o),
(41,523,o),
(86,555,c),
(101,561,o),
(115,562,o),
(128,557,c),
(95,522,o),
(79,493,o),
(79,472,cs),
(79,452,o),
(94,437,o),
(124,427,c)
);
}
);
width = 155;
}
);
unicode = 8216;
}
{
color = (166,255,153,255);
glyphname = quotedblleft;
layers = (
{
layerId = "B33422F0-91E4-47C9-8809-C0A5C4DE8881";
shapes = (
{
closed = 1;
nodes = (
(116,400,o),
(99,387,o),
(74,387,cs),
(51,387,o),
(35,396,o),
(26,415,cs),
(21,426,o),
(18,438,o),
(18,451,cs),
(18,488,o),
(41,523,o),
(86,555,c),
(101,561,o),
(115,562,o),
(128,557,c),
(95,522,o),
(79,493,o),
(79,472,cs),
(79,452,o),
(94,437,o),
(124,427,c)
);
},
{
closed = 1;
nodes = (
(230,403,o),
(213,390,o),
(188,390,cs),
(165,390,o),
(149,399,o),
(140,418,cs),
(135,429,o),
(132,441,o),
(132,454,cs),
(132,491,o),
(155,526,o),
(200,558,c),
(215,564,o),
(229,565,o),
(242,560,c),
(209,525,o),
(193,496,o),
(193,475,cs),
(193,455,o),
(208,440,o),
(238,430,c)
);
}
);
width = 264;
}
);
unicode = 8220;
}
{
color = (166,255,153,255);
glyphname = quotedblright;
layers = (
{
layerId = "B33422F0-91E4-47C9-8809-C0A5C4DE8881";
shapes = (
{
closed = 1;
nodes = (
(32,546,o),
(49,559,o),
(74,559,cs),
(97,559,o),
(113,550,o),
(122,531,cs),
(127,520,o),
(130,508,o),
(130,495,cs),
(130,458,o),
(107,423,o),
(62,391,c),
(47,386,o),
(33,385,o),
(20,389,c),
(53,424,o),
(69,453,o),
(69,474,cs),
(69,494,o),
(54,509,o),
(24,519,c)
);
},
{
closed = 1;
nodes = (
(147,546,o),
(164,559,o),
(189,559,cs),
(212,559,o),
(228,550,o),
(237,531,cs),
(242,520,o),
(245,508,o),
(245,495,cs),
(245,458,o),
(222,423,o),
(177,391,c),
(162,386,o),
(148,385,o),
(135,389,c),
(168,424,o),
(184,453,o),
(184,474,cs),
(184,494,o),
(169,509,o),
(139,519,c)
);
}
);
width = 263;
}
);
unicode = 8221;
}
{
glyphname = quotedblleft.030;
layers = (
{
layerId = "B33422F0-91E4-47C9-8809-C0A5C4DE8881";
shapes = (
{
closed = 1;
nodes = (
(439,369,o),
(432,361,o),
(417,361,cs),
(401,361,o),
(393,369,o),
(393,384,cs),
(393,399,o),
(401,407,o),
(417,407,cs),
(432,407,o),
(439,399,o),
(439,384,cs)
);
},
{
closed = 1;
nodes = (
(485,299,o),
(477,291,o),
(461,291,cs),
(446,291,o),
(439,299,o),
(439,315,cs),
(439,330,o),
(447,337,o),
(463,337,cs),
(478,337,o),
(485,330,o),
(485,315,cs)
);
},
{
closed = 1;
nodes = (
(370,414,o),
(362,407,o),
(347,407,cs),
(332,407,o),
(324,414,o),
(324,429,cs),
(324,445,o),
(332,453,o),
(347,453,cs),
(362,453,o),
(370,445,o),
(370,429,cs)
);
},
{
closed = 1;
nodes = (
(501,219,o),
(494,212,o),
(479,212,cs),
(463,212,o),
(455,219,o),
(455,234,cs),
(455,249,o),
(463,257,o),
(479,257,cs),
(494,257,o),
(501,249,o),
(501,234,cs)
);
},
{
closed = 1;
nodes = (
(289,430,o),
(281,422,o),
(266,422,cs),
(251,422,o),
(244,430,o),
(244,446,cs),
(244,461,o),
(251,469,o),
(266,469,cs),
(281,469,o),
(289,461,o),
(289,446,cs)
);
},
{
closed = 1;
nodes = (
(485,138,o),
(477,131,o),
(461,131,cs),
(446,131,o),
(439,138,o),
(439,153,cs),
(439,169,o),
(446,177,o),
(461,177,cs),
(477,177,o),
(485,169,o),
(485,153,cs)
);
},
{
closed = 1;
nodes = (
(209,414,o),
(201,407,o),
(186,407,cs),
(171,407,o),
(163,414,o),
(163,429,cs),
(163,445,o),
(171,453,o),
(186,453,cs),
(201,453,o),
(209,445,o),
(209,429,cs)
);
},
{
closed = 1;
nodes = (
(439,69,o),
(432,62,o),
(417,62,cs),
(402,62,o),
(394,69,o),
(394,84,cs),
(394,100,o),
(402,108,o),
(417,108,cs),
(432,108,o),
(439,100,o),
(439,84,cs)
);
},
{
closed = 1;
nodes = (
(141,369,o),
(133,361,o),
(117,361,cs),
(102,361,o),
(94,368,o),
(94,383,cs),
(94,399,o),
(102,407,o),
(117,407,cs),
(133,407,o),
(141,399,o),
(141,384,cs)
);
},
{
closed = 1;
nodes = (
(370,24,o),
(362,17,o),
(347,17,cs),
(332,17,o),
(325,24,o),
(325,39,cs),
(325,55,o),
(332,63,o),
(347,63,cs),
(362,63,o),
(370,55,o),
(370,39,cs)
);
},
{
closed = 1;
nodes = (
(94,299,o),
(87,291,o),
(73,291,cs),
(57,291,o),
(49,299,o),
(49,315,cs),
(49,330,o),
(56,337,o),
(71,337,cs),
(86,337,o),
(94,330,o),
(94,315,cs)
);
},
{
closed = 1;
nodes = (
(78,219,o),
(71,212,o),
(56,212,cs),
(40,212,o),
(32,219,o),
(32,234,cs),
(32,249,o),
(40,257,o),
(56,257,cs),
(71,257,o),
(78,249,o),
(78,234,cs)
);
},
{
closed = 1;
nodes = (
(289,8,o),
(281,0,o),
(266,0,cs),
(251,0,o),
(244,8,o),
(244,23,cs),
(244,38,o),
(251,46,o),
(266,46,cs),
(281,46,o),
(289,38,o),
(289,23,cs)
);
},
{
closed = 1;
nodes = (
(209,25,o),
(201,17,o),
(186,17,cs),
(171,17,o),
(163,24,o),
(163,39,cs),
(163,55,o),
(171,63,o),
(186,63,cs),
(201,63,o),
(209,56,o),
(209,41,cs)
);
},
{
closed = 1;
nodes = (
(94,138,o),
(86,131,o),
(71,131,cs),
(56,131,o),
(49,138,o),
(49,153,cs),
(49,169,o),
(56,177,o),
(71,177,cs),
(86,177,o),
(94,169,o),
(94,153,cs)
);
},
{
closed = 1;
nodes = (
(141,69,o),
(133,62,o),
(118,62,cs),
(102,62,o),
(94,69,o),
(94,84,cs),
(94,100,o),
(102,108,o),
(117,108,cs),
(133,108,o),
(141,100,o),
(141,84,cs)
);
}
);
width = 524;
}
);
unicode = 9676;
}
{
glyphname = EMPTY;
layers = (
{
layerId = "B33422F0-91E4-47C9-8809-C0A5C4DE8881";
shapes = (
{
closed = 1;
nodes = (
(2,565,l),
(8,565,l),
(8,558,l),
(2,558,l),
(2,558,l)
);
}
);
width = 10;
}
);
unicode = 58274;
}
{
color = (166,255,153,255);
glyphname = bullet.014;
layers = (
{
layerId = "B33422F0-91E4-47C9-8809-C0A5C4DE8881";
shapes = (
{
closed = 1;
nodes = (
(-309,-47,o),
(-311,-52,o),
(-311,-59,cs),
(-311,-73,o),
(-301,-86,o),
(-281,-97,cs),
(-252,-113,o),
(-218,-121,o),
(-179,-121,cs),
(-152,-121,o),
(-130,-117,o),
(-112,-108,cs),
(-81,-93,o),
(-66,-68,o),
(-66,-33,cs),
(-66,-4,o),
(-79,23,o),
(-105,47,c),
(-90,62,l),
(-82,68,o),
(-74,71,o),
(-66,72,cs),
(-27,75,o),
(-7,39,o),
(-7,-6,cs),
(-7,-56,o),
(-31,-95,o),
(-79,-124,cs),
(-119,-149,o),
(-166,-161,o),
(-219,-161,cs),
(-254,-161,o),
(-286,-155,o),
(-317,-144,cs),
(-364,-126,o),
(-387,-101,o),
(-384,-68,cs),
(-382,-44,o),
(-367,-32,o),
(-340,-32,cs),
(-329,-32,o),
(-317,-35,o),
(-305,-42,c)
);
}
);
width = 3;
}
);
}
{
color = (166,255,153,255);
glyphname = bullet.016;
layers = (
{
layerId = "B33422F0-91E4-47C9-8809-C0A5C4DE8881";
shapes = (
{
closed = 1;
nodes = (
(13,319,o),
(12,325,o),
(12,332,cs),
(12,350,o),
(17,364,o),
(26,374,cs),
(41,389,o),
(62,397,o),
(91,397,cs),
(120,397,o),
(146,383,o),
(168,354,cs),
(188,327,o),
(200,296,o),
(203,260,cs),
(206,233,o),
(204,202,o),
(199,168,cs),
(192,127,o),
(182,95,o),
(168,71,cs),
(141,24,o),
(106,0,o),
(63,-1,cs),
(14,-2,o),
(-12,15,o),
(-14,52,cs),
(-15,73,o),
(3,93,o),
(30,93,c),
(26,76,o),
(26,62,o),
(30,51,cs),
(37,33,o),
(49,24,o),
(68,24,cs),
(87,24,o),
(104,36,o),
(117,59,cs),
(124,72,o),
(131,89,o),
(136,111,cs),
(142,136,o),
(145,163,o),
(146,192,cs),
(147,229,o),
(143,260,o),
(134,287,cs),
(123,322,o),
(102,343,o),
(73,348,cs),
(61,350,o),
(49,346,o),
(36,337,cs),
(26,329,o),
(19,321,o),
(15,312,c)
);
}
);
width = 215;
}
);
}
{
color = (166,255,153,255);
glyphname = bullet.017;
layers = (
{
layerId = "B33422F0-91E4-47C9-8809-C0A5C4DE8881";
shapes = (
{
closed = 1;
nodes = (
(-241,429,o),
(-244,422,o),
(-248,413,c),
(-263,402,o),
(-279,396,o),
(-297,396,cs),
(-330,396,o),
(-360,417,o),
(-365,442,cs),
(-366,450,o),
(-367,458,o),
(-367,465,cs),
(-367,492,o),
(-356,518,o),
(-335,543,cs),
(-310,573,o),
(-272,593,o),
(-223,602,cs),
(-184,609,o),
(-143,608,o),
(-99,597,c),
(-75,607,o),
(-54,607,o),
(-36,596,c),
(-47,595,o),
(-58,591,o),
(-67,586,c),
(-30,570,o),
(-12,543,o),
(-12,506,cs),
(-12,481,o),
(-18,459,o),
(-31,440,cs),
(-45,419,o),
(-64,407,o),
(-88,404,cs),
(-94,403,o),
(-100,403,o),
(-106,403,cs),
(-143,403,o),
(-167,421,o),
(-178,457,cs),
(-181,466,o),
(-182,476,o),
(-182,486,cs),
(-182,525,o),
(-164,563,o),
(-139,574,c),
(-164,579,o),
(-184,580,o),
(-200,578,cs),
(-275,567,o),
(-311,532,o),
(-310,473,cs),
(-309,442,o),
(-295,426,o),
(-267,426,cs),
(-258,426,o),
(-249,428,o),
(-240,433,c)
);
},
{
closed = 1;
nodes = (
(-108,561,o),
(-116,553,o),
(-125,540,cs),
(-135,525,o),
(-140,508,o),
(-141,490,cs),
(-142,452,o),
(-128,432,o),
(-98,430,cs),
(-83,429,o),
(-65,459,o),
(-65,487,cs),
(-65,519,o),
(-83,557,o),
(-100,564,c)
);
}
);
width = 3;
}
);
}
{
color = (166,255,153,255);
glyphname = bullet.021;
layers = (
{
background = {
shapes = (
{
closed = 1;
nodes = (
(350,245,o),
(346,262,q),
(341,287,o),
(306,284,q),
(290,287,o),
(234,253,q),
(256,244,o),
(323,163,o),
(331,132,q),
(338,105,o),
(338,82,q),
(338,13,o),
(274,1,q),
(259,-2,o),
(246,-2,q),
(206,-2,o),
(165,39,q),
(148,15,o),
(145,11,q),
(134,1,o),
(113,-2,q),
(103,-3,o),
(64,22,o),
(51,22,q),
(36,22,o),
(19,7,q),
(12,13,o),
(3,46,o),
(7,56,q),
(21,93,o),
(113,208,o),
(160,246,q),
(130,256,o),
(77,275,q),
(20,298,o),
(12,322,q),
(36,342,o),
(70,346,q),
(78,334,o),
(111,320,q),
(126,313,o),
(162,301,q),
(179,295,o),
(202,280,q),
(221,295,o),
(275,323,o),
(304,329,q),
(362,334,o),
(376,307,q),
(393,292,o),
(383,225,q),
(407,218,o),
(345,203,q)
);
},
{
closed = 1;
nodes = (
(166,204,o),
(112,139,q),
(69,87,o),
(54,60,q),
(84,77,o),
(95,62,q),
(104,50,o),
(113,50,q),
(136,50,o),
(157,131,q),
(181,134,o),
(186,128,q),
(190,97,o),
(194,85,q),
(204,57,o),
(227,47,q),
(236,43,o),
(245,43,q),
(264,43,o),
(290,77,o),
(290,100,q),
(290,114,o),
(285,126,q),
(262,186,o),
(200,223,q)
);
},
{
closed = 1;
nodes = (
(607,428,o),
(568,461,q),
(526,496,o),
(482,494,q),
(407,491,o),
(389,400,q),
(390,382,o),
(387,353,q),
(383,342,o),
(362,336,q),
(357,348,o),
(350,382,q),
(348,399,o),
(348,410,q),
(348,464,o),
(396,506,q),
(436,541,o),
(490,541,q),
(544,541,o),
(592,504,q),
(637,469,o),
(664,400,q),
(689,335,o),
(689,260,q),
(689,195,o),
(670,142,q),
(622,10,o),
(478,2,q),
(369,-4,o),
(345,33,o),
(345,44,q),
(351,57,o),
(394,79,q),
(447,107,o),
(447,150,q),
(447,159,o),
(444,168,q),
(439,183,o),
(407,183,q),
(376,183,o),
(351,169,q),
(343,182,o),
(343,193,q),
(343,223,o),
(375,229,q),
(397,233,o),
(413,233,q),
(466,233,o),
(483,183,q),
(489,166,o),
(489,149,q),
(489,116,o),
(449,62,o),
(420,50,q),
(504,53,o),
(532,61,q),
(580,75,o),
(608,121,q),
(643,180,o),
(643,270,q),
(643,336,o),
(626,380,q)
);
}
);
};
layerId = "B33422F0-91E4-47C9-8809-C0A5C4DE8881";
shapes = (
{
closed = 1;
nodes = (
(374,255,o),
(361,271,o),
(364,297,c),
(359,331,o),
(343,353,o),
(321,358,cs),
(266,368,o),
(210,326,o),
(202,307,c),
(209,310,o),
(218,311,o),
(228,311,cs),
(251,311,o),
(271,305,o),
(290,293,cs),
(313,278,o),
(328,257,o),
(335,228,cs),
(338,214,o),
(340,199,o),
(340,183,cs),
(340,141,o),
(331,103,o),
(312,69,cs),
(287,22,o),
(255,-1,o),
(218,-1,cs),
(179,-1,o),
(159,18,o),
(159,55,c),
(140,26,o),
(126,9,o),
(115,4,cs),
(105,0,o),
(96,-2,o),
(88,-2,cs),
(67,-2,o),
(53,10,o),
(46,34,cs),
(44,41,o),
(40,45,o),
(34,45,cs),
(29,45,o),
(23,41,o),
(16,32,c),
(13,31,o),
(9,38,o),
(8,38,c),
(5,36,l),
(17,89,o),
(51,157,o),
(107,240,cs),
(124,266,o),
(142,290,o),
(161,312,c),
(165,325,o),
(167,334,o),
(166,341,cs),
(165,354,o),
(158,360,o),
(143,360,cs),
(130,360,o),
(119,353,o),
(109,339,cs),
(104,332,o),
(101,322,o),
(101,310,cs),
(101,295,o),
(104,284,o),
(111,275,c),
(100,269,o),
(90,266,o),
(81,266,cs),
(58,266,o),
(47,280,o),
(47,308,cs),
(47,320,o),
(50,331,o),
(56,342,cs),
(77,379,o),
(106,397,o),
(143,397,cs),
(154,397,o),
(162,396,o),
(169,394,c),
(190,385,o),
(198,368,o),
(195,341,c),
(224,374,o),
(277,404,o),
(339,390,cs),
(364,384,o),
(378,362,o),
(387,344,c),
(397,356,o),
(412,367,o),
(430,378,cs),
(451,391,o),
(477,397,o),
(510,397,cs),
(558,397,o),
(582,376,o),
(582,333,cs),
(582,320,o),
(579,309,o),
(573,299,cs),
(563,284,o),
(529,256,o),
(472,215,cs),
(436,190,o),
(418,158,o),
(418,120,cs),
(418,100,o),
(425,81,o),
(440,63,cs),
(456,43,o),
(483,33,o),
(521,33,cs),
(580,33,o),
(636,77,o),
(657,134,cs),
(672,173,o),
(679,217,o),
(679,266,cs),
(679,313,o),
(673,351,o),
(662,380,cs),
(639,439,o),
(609,479,o),
(570,498,cs),
(550,508,o),
(528,513,o),
(503,513,cs),
(482,513,o),
(464,509,o),
(448,501,cs),
(427,492,o),
(417,478,o),
(417,460,cs),
(417,435,o),
(428,422,o),
(451,421,c),
(444,406,o),
(429,399,o),
(407,399,cs),
(381,399,o),
(368,413,o),
(368,441,cs),
(368,477,o),
(391,505,o),
(436,526,cs),
(459,537,o),
(490,542,o),
(527,542,cs),
(580,542,o),
(622,529,o),
(654,504,cs),
(707,461,o),
(734,393,o),
(734,298,cs),
(734,244,o),
(724,191,o),
(703,140,cs),
(685,95,o),
(657,60,o),
(618,34,cs),
(583,10,o),
(539,-2,o),
(487,-2,cs),
(416,-2,o),
(373,22,o),
(358,69,cs),
(355,80,o),
(353,91,o),
(353,102,cs),
(353,149,o),
(387,195,o),
(456,240,cs),
(503,271,o),
(524,300,o),
(519,327,cs),
(515,350,o),
(501,362,o),
(478,362,cs),
(471,362,o),
(464,360,o),
(457,357,cs),
(437,348,o),
(420,328,o),
(406,296,cs),
(401,283,o),
(399,268,o),
(402,250,c)
);
},
{
closed = 1;
nodes = (
(62,99,o),
(67,101,o),
(72,101,cs),
(85,101,o),
(93,92,o),
(98,75,cs),
(103,56,o),
(109,46,o),
(116,46,cs),
(119,46,o),
(128,58,o),
(142,82,cs),
(158,109,o),
(168,125,o),
(173,130,cs),
(183,140,o),
(204,143,o),
(236,139,c),
(219,121,o),
(211,97,o),
(211,68,cs),
(211,47,o),
(219,36,o),
(235,36,cs),
(258,36,o),
(274,59,o),
(283,104,cs),
(290,139,o),
(290,169,o),
(283,196,cs),
(269,251,o),
(239,279,o),
(192,279,cs),
(186,279,o),
(180,278,o),
(174,277,c),
(161,264,o),
(144,241,o),
(121,207,cs),
(94,167,o),
(73,130,o),
(57,96,c)
);
}
);
width = 746;
}
);
}
{
color = (166,255,153,255);
glyphname = bullet.023;
layers = (
{
layerId = "B33422F0-91E4-47C9-8809-C0A5C4DE8881";
shapes = (
{
closed = 1;
nodes = (
(83,-107,o),
(75,-119,o),
(75,-136,cs),
(75,-163,o),
(93,-176,o),
(130,-175,cs),
(143,-175,o),
(180,-164,o),
(239,-142,cs),
(258,-135,o),
(274,-134,o),
(289,-138,c),
(293,-96,o),
(298,-40,o),
(307,24,c),
(287,6,o),
(268,-2,o),
(252,-2,cs),
(248,-2,o),
(243,-2,o),
(238,-1,cs),
(225,1,o),
(212,10,o),
(199,27,cs),
(186,44,o),
(177,52,o),
(172,52,cs),
(165,53,o),
(161,42,o),
(160,21,cs),
(159,0,o),
(156,-11,o),
(149,-13,c),
(134,-7,o),
(122,15,o),
(113,52,cs),
(108,75,o),
(107,100,o),
(111,127,cs),
(120,187,o),
(150,233,o),
(200,264,cs),
(215,273,o),
(223,286,o),
(223,302,cs),
(223,308,o),
(222,314,o),
(219,321,cs),
(209,347,o),
(192,360,o),
(168,360,cs),
(161,360,o),
(152,359,o),
(142,356,cs),
(118,351,o),
(86,322,o),
(74,295,cs),
(57,256,o),
(50,210,o),
(55,157,cs),
(58,130,o),
(63,109,o),
(70,94,cs),
(75,83,o),
(80,78,o),
(85,78,cs),
(87,78,o),
(88,80,o),
(88,83,c),
(102,78,o),
(109,63,o),
(109,39,cs),
(109,16,o),
(94,-3,o),
(73,-3,cs),
(56,-3,o),
(41,7,o),
(29,27,cs),
(10,58,o),
(2,100,o),
(4,155,cs),
(8,263,o),
(56,343,o),
(127,382,cs),
(145,392,o),
(169,397,o),
(198,397,cs),
(215,397,o),
(229,395,o),
(239,390,cs),
(268,377,o),
(283,356,o),
(283,327,cs),
(283,296,o),
(261,267,o),
(217,242,cs),
(192,227,o),
(176,202,o),
(169,165,cs),
(166,148,o),
(165,130,o),
(167,113,c),
(172,117,o),
(178,119,o),
(184,119,cs),
(201,119,o),
(213,107,o),
(221,84,cs),
(233,49,o),
(245,33,o),
(257,34,cs),
(283,36,o),
(304,58,o),
(320,101,cs),
(333,134,o),
(339,178,o),
(339,233,cs),
(339,294,o),
(332,342,o),
(319,376,cs),
(295,437,o),
(266,477,o),
(231,494,cs),
(211,504,o),
(189,509,o),
(165,509,cs),
(124,509,o),
(98,496,o),
(85,471,cs),
(82,465,o),
(80,458,o),
(80,450,cs),
(80,431,o),
(90,422,o),
(109,421,c),
(102,406,o),
(89,398,o),
(70,398,cs),
(45,398,o),
(33,412,o),
(33,441,cs),
(33,473,o),
(54,499,o),
(97,519,cs),
(120,530,o),
(150,535,o),
(188,535,cs),
(240,535,o),
(281,523,o),
(312,498,cs),
(355,463,o),
(382,411,o),
(391,341,cs),
(394,321,o),
(395,301,o),
(395,280,cs),
(395,240,o),
(391,203,o),
(382,168,c),
(373,109,o),
(361,22,o),
(355,-22,cs),
(346,-89,o),
(339,-168,o),
(338,-195,c),
(314,-184,o),
(293,-179,o),
(276,-179,cs),
(262,-179,o),
(240,-182,o),
(210,-188,cs),
(164,-197,o),
(130,-202,o),
(108,-202,cs),
(85,-202,o),
(65,-199,o),
(50,-192,cs),
(24,-181,o),
(11,-163,o),
(11,-138,cs),
(11,-123,o),
(17,-111,o),
(30,-102,cs),
(40,-95,o),
(52,-91,o),
(65,-91,cs),
(79,-91,o),
(91,-95,o),
(100,-102,c)
);
}
);
width = 404;
}
);
}
{
color = (166,255,153,255);
glyphname = bullet.024;
layers = (
{
layerId = "B33422F0-91E4-47C9-8809-C0A5C4DE8881";
shapes = (
{
closed = 1;
nodes = (
(407,-129,o),
(444,-96,o),
(448,-64,cs),
(449,-48,o),
(435,-20,o),
(419,-15,c),
(421,-29,o),
(420,-44,o),
(416,-61,cs),
(411,-83,o),
(398,-94,o),
(377,-94,cs),
(362,-94,o),
(349,-84,o),
(340,-65,cs),
(335,-55,o),
(334,-42,o),
(337,-27,cs),
(339,-17,o),
(347,-5,o),
(361,9,cs),
(371,19,l),
(375,22,ls),
(377,23,o),
(379,25,o),
(381,27,cs),
(386,31,l),
(385,31,l),
(406,51,o),
(424,77,o),
(437,109,cs),
(450,144,o),
(457,179,o),
(457,215,cs),
(457,258,o),
(449,296,o),
(432,329,cs),
(414,366,o),
(390,387,o),
(361,393,cs),
(349,396,o),
(337,397,o),
(324,397,cs),
(293,397,o),
(268,390,o),
(251,377,cs),
(228,360,o),
(211,341,o),
(198,320,cs),
(192,310,o),
(183,290,o),
(170,260,c),
(161,229,o),
(155,206,o),
(152,189,c),
(157,182,o),
(161,176,o),
(162,173,c),
(171,185,o),
(183,191,o),
(200,191,cs),
(233,191,o),
(246,159,o),
(243,127,cs),
(241,97,o),
(230,73,o),
(211,55,cs),
(196,40,o),
(179,32,o),
(160,31,cs),
(127,29,o),
(101,48,o),
(83,88,cs),
(68,121,o),
(61,163,o),
(62,214,cs),
(62,243,o),
(66,271,o),
(75,297,cs),
(86,330,o),
(103,351,o),
(124,358,cs),
(130,360,o),
(136,361,o),
(141,361,cs),
(157,361,o),
(172,350,o),
(186,329,c),
(196,342,o),
(201,354,o),
(201,365,cs),
(201,386,o),
(188,397,o),
(161,397,cs),
(116,397,o),
(75,366,o),
(40,303,cs),
(15,259,o),
(3,209,o),
(3,154,cs),
(3,121,o),
(8,94,o),
(18,73,cs),
(43,20,o),
(84,-5,o),
(139,-1,cs),
(188,2,o),
(229,26,o),
(261,71,cs),
(284,103,o),
(296,136,o),
(296,171,cs),
(296,211,o),
(267,242,o),
(227,242,cs),
(214,242,o),
(203,240,o),
(194,235,c),
(202,258,o),
(210,277,o),
(219,291,cs),
(243,329,o),
(270,348,o),
(300,348,cs),
(334,348,o),
(360,328,o),
(378,287,cs),
(392,255,o),
(398,220,o),
(397,183,cs),
(395,106,o),
(374,55,o),
(334,29,cs),
(329,26,o),
(323,25,o),
(316,25,cs),
(299,25,o),
(291,30,o),
(291,41,cs),
(291,45,o),
(293,50,o),
(296,55,c),
(271,54,o),
(258,44,o),
(258,25,cs),
(258,8,o),
(274,-1,o),
(306,-2,cs),
(314,-2,l),
(295,-18,o),
(284,-38,o),
(284,-61,cs),
(284,-86,o),
(293,-106,o),
(311,-119,cs),
(327,-131,o),
(347,-136,o),
(372,-133,cs)
);
}
);
width = 467;
}
);
}
{
color = (166,255,153,255);
glyphname = bullet.025;
layers = (
{
layerId = "B33422F0-91E4-47C9-8809-C0A5C4DE8881";
shapes = (
{
closed = 1;
nodes = (
(87,189,o),
(73,187,o),
(51,185,cs),
(35,183,o),
(21,177,o),
(9,168,c),
(5,175,o),
(3,181,o),
(3,188,cs),
(3,208,o),
(16,222,o),
(42,229,cs),
(52,232,o),
(74,235,o),
(109,238,cs),
(132,240,o),
(152,248,o),
(168,261,cs),
(177,268,o),
(182,281,o),
(182,300,cs),
(182,331,o),
(165,343,o),
(142,343,cs),
(123,343,o),
(103,335,o),
(84,319,cs),
(65,304,o),
(55,287,o),
(54,270,c),
(47,276,o),
(43,288,o),
(43,306,cs),
(43,319,o),
(45,330,o),
(50,339,cs),
(63,363,o),
(84,380,o),
(112,390,cs),
(132,397,o),
(150,400,o),
(166,398,cs),
(214,393,o),
(237,357,o),
(232,312,cs),
(229,288,o),
(219,265,o),
(200,244,cs),
(182,223,o),
(163,209,o),
(143,204,c),
(123,187,o),
(114,160,o),
(115,125,cs),
(116,74,o),
(129,42,o),
(154,31,c),
(159,28,o),
(164,27,o),
(168,27,cs),
(184,27,o),
(194,42,o),
(198,73,cs),
(199,79,o),
(198,91,o),
(195,108,cs),
(192,128,o),
(190,142,o),
(190,151,cs),
(190,160,o),
(191,167,o),
(193,173,cs),
(202,197,o),
(248,217,o),
(289,217,cs),
(322,217,o),
(342,207,o),
(348,186,cs),
(349,181,o),
(350,177,o),
(350,173,cs),
(350,165,o),
(347,156,o),
(340,147,cs),
(331,135,o),
(326,125,o),
(324,117,cs),
(319,99,o),
(319,83,o),
(324,68,cs),
(326,61,o),
(332,53,o),
(341,44,cs),
(347,38,o),
(353,35,o),
(360,35,cs),
(376,35,o),
(389,50,o),
(399,79,cs),
(407,102,o),
(411,123,o),
(411,142,cs),
(411,167,o),
(403,198,o),
(387,235,cs),
(371,272,o),
(363,301,o),
(363,321,cs),
(363,364,o),
(400,396,o),
(443,396,cs),
(474,396,o),
(493,383,o),
(502,357,c),
(457,348,o),
(435,328,o),
(435,299,cs),
(435,287,o),
(438,271,o),
(444,252,cs),
(454,218,l),
(457,201,o),
(459,185,o),
(459,170,cs),
(459,121,o),
(442,77,o),
(408,36,cs),
(394,19,o),
(376,8,o),
(353,2,cs),
(306,-11,o),
(278,18,o),
(269,50,cs),
(266,59,o),
(265,67,o),
(265,76,cs),
(265,104,o),
(278,127,o),
(303,144,cs),
(308,148,o),
(311,153,o),
(311,158,cs),
(311,174,o),
(289,192,o),
(270,191,cs),
(253,190,o),
(244,179,o),
(244,157,cs),
(244,148,o),
(247,117,o),
(247,104,cs),
(247,62,o),
(231,31,o),
(199,12,cs),
(186,4,o),
(167,0,o),
(144,0,cs),
(115,0,o),
(92,11,o),
(75,33,cs),
(63,50,o),
(56,70,o),
(54,93,cs),
(51,130,o),
(65,163,o),
(94,192,c)
);
},
{
closed = 1;
nodes = (
(410,421,o),
(430,439,o),
(438,477,cs),
(439,484,o),
(440,490,o),
(440,497,cs),
(440,564,o),
(385,590,o),
(308,578,cs),
(233,567,o),
(197,532,o),
(198,473,cs),
(199,442,o),
(213,426,o),
(241,426,cs),
(250,426,o),
(259,428,o),
(268,433,c),
(267,429,o),
(264,422,o),
(260,413,c),
(245,402,o),
(229,396,o),
(211,396,cs),
(178,396,o),
(148,417,o),
(143,442,cs),
(142,450,o),
(141,458,o),
(141,465,cs),
(141,492,o),
(152,518,o),
(173,543,cs),
(198,573,o),
(236,593,o),
(285,602,cs),
(326,610,o),
(368,608,o),
(409,597,cs),
(434,590,o),
(455,576,o),
(472,555,cs),
(491,531,o),
(499,504,o),
(495,475,cs),
(493,458,o),
(486,443,o),
(474,428,cs),
(460,413,o),
(444,404,o),
(426,401,cs),
(405,398,o),
(389,406,o),
(379,424,c)
);
}
);
width = 487;
}
);
}
{
color = (166,255,153,255);
glyphname = bullet.026;
layers = (
{
layerId = "B33422F0-91E4-47C9-8809-C0A5C4DE8881";
shapes = (
{
closed = 1;
nodes = (
(54,292,o),
(45,270,o),
(45,250,cs),
(45,229,o),
(52,219,o),
(67,219,cs),
(83,219,o),
(93,230,o),
(97,251,cs),
(101,274,o),
(87,306,o),
(70,311,c)
);
},
{
closed = 1;
nodes = (
(339,18,o),
(320,6,o),
(297,1,cs),
(268,-5,o),
(245,0,o),
(227,15,cs),
(211,28,o),
(203,48,o),
(203,73,c),
(188,43,o),
(171,22,o),
(154,10,cs),
(143,3,o),
(131,-1,o),
(118,-1,cs),
(82,0,o),
(53,24,o),
(53,81,cs),
(53,94,o),
(55,105,o),
(58,116,cs),
(66,142,o),
(87,168,o),
(120,194,cs),
(180,241,o),
(192,275,o),
(192,307,cs),
(192,317,o),
(190,325,o),
(187,331,cs),
(178,347,o),
(166,355,o),
(152,356,cs),
(132,357,o),
(115,352,o),
(101,340,c),
(122,337,o),
(133,318,o),
(133,281,cs),
(133,268,o),
(131,255,o),
(126,242,cs),
(120,225,o),
(110,209,o),
(96,196,cs),
(80,179,o),
(64,171,o),
(48,171,cs),
(19,171,o),
(2,197,o),
(2,228,cs),
(2,268,o),
(23,307,o),
(65,344,cs),
(107,381,o),
(148,399,o),
(189,398,cs),
(209,397,o),
(225,390,o),
(237,377,cs),
(247,365,o),
(252,350,o),
(252,333,cs),
(252,300,o),
(232,262,o),
(193,220,cs),
(182,209,o),
(164,191,o),
(139,164,cs),
(123,145,o),
(115,123,o),
(115,97,cs),
(115,70,o),
(124,56,o),
(142,56,cs),
(161,56,o),
(180,82,o),
(200,133,cs),
(211,161,o),
(233,175,o),
(265,175,cs),
(271,175,o),
(276,175,o),
(281,174,c),
(272,158,o),
(265,136,o),
(262,108,cs),
(258,77,o),
(261,56,o),
(271,43,cs),
(276,36,o),
(283,33,o),
(290,33,cs),
(301,33,o),
(310,38,o),
(317,49,cs),
(341,84,o),
(354,132,o),
(357,191,cs),
(362,280,o),
(353,345,o),
(330,386,cs),
(306,430,o),
(258,450,o),
(185,445,cs),
(156,443,o),
(128,433,o),
(102,416,cs),
(80,400,o),
(64,382,o),
(53,361,c),
(44,373,o),
(39,385,o),
(39,397,cs),
(39,412,o),
(46,426,o),
(60,438,cs),
(63,441,o),
(70,443,o),
(81,446,cs),
(89,448,o),
(94,452,o),
(95,457,cs),
(96,463,o),
(93,469,o),
(85,474,cs),
(69,486,o),
(67,496,o),
(67,507,cs),
(67,524,o),
(74,540,o),
(88,554,cs),
(111,577,o),
(146,593,o),
(195,602,cs),
(238,610,o),
(283,609,o),
(330,599,cs),
(351,594,o),
(370,585,o),
(386,572,cs),
(405,555,o),
(413,537,o),
(412,516,cs),
(409,481,o),
(384,465,o),
(336,466,c),
(347,482,o),
(353,497,o),
(353,512,cs),
(353,552,o),
(311,579,o),
(254,579,cs),
(225,579,o),
(198,572,o),
(173,559,cs),
(142,543,o),
(126,523,o),
(126,498,cs),
(126,489,o),
(129,480,o),
(134,471,c),
(155,476,o),
(178,479,o),
(204,480,cs),
(247,481,o),
(282,476,o),
(309,464,cs),
(379,433,o),
(415,371,o),
(416,277,cs),
(417,233,o),
(412,189,o),
(401,146,cs),
(391,105,o),
(375,70,o),
(354,39,cs)
);
}
);
width = 425;
}
);
}
{
color = (166,255,153,255);
glyphname = bullet.029;
layers = (
{
layerId = "B33422F0-91E4-47C9-8809-C0A5C4DE8881";
shapes = (
{
closed = 1;
nodes = (
(76,-47,o),
(74,-52,o),
(74,-59,cs),
(74,-73,o),
(84,-86,o),
(104,-97,cs),
(133,-113,o),
(167,-121,o),
(206,-121,cs),
(233,-121,o),
(255,-117,o),
(273,-108,cs),
(304,-93,o),
(319,-68,o),
(319,-33,cs),
(319,-9,o),
(310,13,o),
(292,34,c),
(256,10,o),
(212,-2,o),
(159,-2,cs),
(90,-2,o),
(49,18,o),
(36,58,cs),
(31,71,o),
(29,84,o),
(29,95,cs),
(29,115,o),
(35,133,o),
(47,148,cs),
(55,159,o),
(68,172,o),
(85,188,cs),
(102,204,o),
(113,217,o),
(118,227,c),
(111,224,o),
(84,214,o),
(37,199,cs),
(24,195,o),
(15,193,o),
(10,193,cs),
(2,193,o),
(-3,196,o),
(-4,202,cs),
(-10,225,o),
(4,244,o),
(38,259,cs),
(63,270,o),
(87,276,o),
(110,276,cs),
(124,276,o),
(135,273,o),
(144,268,c),
(173,279,o),
(193,298,o),
(193,317,cs),
(193,322,o),
(191,328,o),
(187,333,cs),
(181,342,o),
(170,346,o),
(154,346,cs),
(135,346,o),
(118,341,o),
(101,330,cs),
(82,319,o),
(72,305,o),
(71,290,c),
(63,296,o),
(59,308,o),
(59,325,cs),
(59,337,o),
(62,347,o),
(67,355,cs),
(77,370,o),
(94,381,o),
(119,389,cs),
(142,397,o),
(163,400,o),
(183,398,cs),
(223,394,o),
(250,370,o),
(250,338,cs),
(250,331,o),
(249,325,o),
(247,318,cs),
(241,300,o),
(227,283,o),
(204,268,c),
(189,261,o),
(175,253,o),
(160,245,c),
(159,235,o),
(146,213,o),
(120,178,cs),
(104,157,o),
(96,134,o),
(96,109,cs),
(96,89,o),
(100,74,o),
(109,65,cs),
(128,44,o),
(155,33,o),
(190,33,cs),
(203,33,o),
(217,35,o),
(232,38,cs),
(275,49,o),
(315,90,o),
(332,134,cs),
(347,173,o),
(354,213,o),
(354,253,cs),
(354,301,o),
(344,343,o),
(324,378,cs),
(296,427,o),
(250,449,o),
(185,445,cs),
(156,443,o),
(128,433,o),
(102,416,cs),
(80,400,o),
(64,382,o),
(53,361,c),
(44,373,o),
(39,385,o),
(39,397,cs),
(39,412,o),
(46,426,o),
(60,438,cs),
(63,441,o),
(70,443,o),
(81,446,cs),
(89,448,o),
(94,452,o),
(95,457,cs),
(96,463,o),
(93,469,o),
(85,474,cs),
(69,486,o),
(67,496,o),
(67,507,cs),
(67,524,o),
(74,540,o),
(88,554,cs),
(111,577,o),
(146,593,o),
(195,602,cs),
(235,610,o),
(278,609,o),
(324,599,cs),
(345,594,o),
(364,585,o),
(380,572,cs),
(399,555,o),
(407,537,o),
(406,516,cs),
(403,481,o),
(378,465,o),
(330,466,c),
(341,482,o),
(347,497,o),
(347,512,cs),
(347,551,o),
(304,579,o),
(247,579,cs),
(219,579,o),
(193,573,o),
(169,560,cs),
(140,545,o),
(126,525,o),
(126,500,cs),
(126,490,o),
(129,480,o),
(134,471,c),
(157,476,o),
(180,478,o),
(202,478,cs),
(248,478,o),
(282,473,o),
(303,464,cs),
(358,440,o),
(391,399,o),
(402,340,cs),
(406,320,o),
(408,299,o),
(408,278,cs),
(408,230,o),
(398,184,o),
(378,139,cs),
(366,113,o),
(352,90,o),
(335,71,c),
(364,64,o),
(378,32,o),
(378,-6,cs),
(378,-56,o),
(354,-95,o),
(306,-124,cs),
(266,-149,o),
(219,-161,o),
(166,-161,cs),
(131,-161,o),
(99,-155,o),
(68,-144,cs),
(21,-126,o),
(-2,-101,o),
(1,-68,cs),
(3,-44,o),
(18,-32,o),
(45,-32,cs),
(56,-32,o),
(68,-35,o),
(80,-42,c)
);
}
);
width = 418;
}
);
}
{
color = (166,255,153,255);
glyphname = bullet.031;
layers = (
{
layerId = "B33422F0-91E4-47C9-8809-C0A5C4DE8881";
shapes = (
{
closed = 1;
nodes = (
(218,408,o),
(205,390,o),
(181,384,c),
(200,372,o),
(209,353,o),
(209,326,cs),
(209,319,o),
(208,311,o),
(206,304,cs),
(202,288,o),
(183,268,o),
(150,244,cs),
(113,218,o),
(91,198,o),
(84,184,cs),
(75,168,o),
(71,151,o),
(71,134,cs),
(71,103,o),
(81,79,o),
(100,61,cs),
(121,41,o),
(148,30,o),
(180,29,cs),
(218,28,o),
(251,36,o),
(280,55,cs),
(301,68,o),
(312,92,o),
(312,125,cs),
(312,154,o),
(303,182,o),
(285,210,cs),
(259,251,o),
(246,286,o),
(246,315,cs),
(246,330,o),
(250,344,o),
(257,357,cs),
(266,373,o),
(278,384,o),
(292,390,c),
(289,417,o),
(293,440,o),
(305,459,cs),
(308,463,o),
(327,485,o),
(362,524,cs),
(373,535,o),
(378,552,o),
(378,573,cs),
(378,595,o),
(369,612,o),
(352,624,c),
(361,629,o),
(370,631,o),
(379,631,cs),
(406,631,o),
(429,608,o),
(429,583,cs),
(429,543,o),
(394,516,o),
(369,489,cs),
(359,478,o),
(352,468,o),
(349,459,cs),
(342,440,o),
(343,417,o),
(354,392,c),
(372,383,o),
(382,368,o),
(384,346,cs),
(387,318,o),
(371,307,o),
(352,310,cs),
(341,312,o),
(326,323,o),
(309,342,c),
(304,335,o),
(303,327,o),
(306,317,c),
(317,292,o),
(331,257,o),
(349,213,cs),
(358,191,o),
(362,169,o),
(362,148,cs),
(362,60,o),
(295,-1,o),
(176,-1,cs),
(155,-1,o),
(133,1,o),
(110,4,cs),
(80,9,o),
(55,21,o),
(36,40,cs),
(14,61,o),
(3,85,o),
(4,114,cs),
(5,153,o),
(25,189,o),
(65,221,cs),
(127,266,ls),
(141,277,o),
(148,291,o),
(148,308,cs),
(148,317,o),
(145,326,o),
(139,333,cs),
(131,342,o),
(120,347,o),
(106,347,cs),
(75,347,o),
(41,320,o),
(36,287,c),
(26,295,o),
(21,308,o),
(21,325,cs),
(21,336,o),
(23,345,o),
(27,353,cs),
(44,383,o),
(72,398,o),
(113,398,cs),
(117,398,l),
(101,413,o),
(91,438,o),
(92,465,cs),
(93,490,o),
(100,511,o),
(113,527,cs),
(129,546,o),
(152,556,o),
(182,557,cs),
(239,558,o),
(280,517,o),
(280,468,cs),
(280,449,o),
(274,431,o),
(262,415,cs),
(251,402,o),
(236,394,o),
(217,393,c),
(230,408,o),
(236,426,o),
(236,447,cs),
(236,458,o),
(234,470,o),
(229,481,cs),
(220,502,o),
(204,513,o),
(182,513,cs),
(153,513,o),
(130,493,o),
(130,461,cs),
(130,438,o),
(143,418,o),
(159,418,cs),
(175,417,o),
(183,424,o),
(183,439,cs),
(183,454,o),
(174,464,o),
(155,467,c),
(164,484,o),
(174,492,o),
(183,492,cs),
(207,492,o),
(224,461,o),
(221,437,cs)
);
}
);
width = 384;
}
);
}
{
color = (166,255,153,255);
glyphname = bullet.032;
layers = (
{
layerId = "B33422F0-91E4-47C9-8809-C0A5C4DE8881";
shapes = (
{
closed = 1;
nodes = (
(359,-107,o),
(351,-119,o),
(351,-136,cs),
(351,-163,o),
(369,-176,o),
(406,-175,cs),
(419,-175,o),
(456,-164,o),
(515,-142,cs),
(534,-135,o),
(550,-134,o),
(565,-138,c),
(569,-96,o),
(573,-39,o),
(583,26,c),
(573,16,o),
(561,8,o),
(550,3,cs),
(542,-1,o),
(531,-2,o),
(516,-1,cs),
(501,0,o),
(491,3,o),
(484,8,cs),
(472,18,o),
(464,30,o),
(460,44,cs),
(458,54,o),
(456,64,o),
(455,74,c),
(424,7,o),
(407,-10,o),
(367,1,cs),
(337,10,o),
(317,29,o),
(306,58,c),
(279,19,o),
(249,-1,o),
(218,-1,cs),
(179,-1,o),
(159,18,o),
(159,55,c),
(140,26,o),
(126,9,o),
(115,4,cs),
(105,0,o),
(96,-2,o),
(88,-2,cs),
(67,-2,o),
(53,10,o),
(46,34,cs),
(44,41,o),
(40,45,o),
(34,45,cs),
(29,45,o),
(23,41,o),
(16,32,c),
(13,31,o),
(9,38,o),
(8,38,c),
(5,36,l),
(17,89,o),
(51,157,o),
(107,240,cs),
(124,266,o),
(142,290,o),
(161,312,c),
(165,325,o),
(167,334,o),
(166,341,cs),
(165,354,o),
(158,360,o),
(143,360,cs),
(130,360,o),
(119,353,o),
(109,339,cs),
(104,332,o),
(101,322,o),
(101,310,cs),
(101,295,o),
(104,284,o),
(111,275,c),
(100,269,o),
(90,266,o),
(81,266,cs),
(58,266,o),
(47,280,o),
(47,308,cs),
(47,320,o),
(50,331,o),
(56,342,cs),
(77,379,o),
(106,397,o),
(143,397,cs),
(150,397,o),
(157,396,o),
(164,395,cs),
(176,392,o),
(185,384,o),
(191,370,cs),
(196,359,o),
(197,348,o),
(195,337,c),
(214,354,o),
(241,367,o),
(274,378,cs),
(305,388,o),
(336,394,o),
(365,395,cs),
(393,396,o),
(418,396,o),
(441,394,cs),
(491,390,o),
(519,375,o),
(524,348,cs),
(529,323,o),
(516,308,o),
(486,302,c),
(494,341,o),
(468,365,o),
(444,365,cs),
(421,365,o),
(402,352,o),
(386,325,cs),
(373,306,o),
(364,283,o),
(359,256,cs),
(353,226,o),
(350,197,o),
(350,168,cs),
(350,114,o),
(361,73,o),
(383,46,cs),
(386,43,o),
(389,41,o),
(392,41,cs),
(399,41,o),
(407,50,o),
(416,68,cs),
(444,124,ls),
(453,143,o),
(468,153,o),
(488,153,cs),
(493,153,o),
(502,152,o),
(513,150,c),
(507,133,o),
(504,119,o),
(505,110,cs),
(506,87,o),
(508,62,o),
(517,49,cs),
(523,40,o),
(530,36,o),
(538,36,cs),
(562,36,o),
(588,74,o),
(601,126,cs),
(612,169,o),
(617,218,o),
(617,272,cs),
(617,321,o),
(613,357,o),
(604,380,cs),
(581,441,o),
(551,480,o),
(514,498,cs),
(495,507,o),
(475,511,o),
(452,511,cs),
(409,511,o),
(381,498,o),
(368,472,cs),
(366,467,o),
(365,463,o),
(365,458,cs),
(365,441,o),
(376,432,o),
(398,431,c),
(393,420,o),
(384,414,o),
(371,411,cs),
(364,410,o),
(357,409,o),
(352,409,cs),
(333,409,o),
(322,418,o),
(318,437,cs),
(311,470,o),
(334,499,o),
(385,522,cs),
(408,533,o),
(438,538,o),
(475,538,cs),
(526,538,o),
(566,526,o),
(597,501,cs),
(652,458,o),
(679,385,o),
(679,283,cs),
(679,227,o),
(670,178,o),
(653,135,c),
(631,-22,ls),
(622,-89,o),
(615,-168,o),
(614,-195,c),
(590,-184,o),
(569,-179,o),
(552,-179,cs),
(538,-179,o),
(516,-182,o),
(486,-188,cs),
(440,-197,o),
(406,-202,o),
(384,-202,cs),
(361,-202,o),
(341,-199,o),
(326,-192,cs),
(300,-181,o),
(287,-163,o),
(287,-138,cs),
(287,-123,o),
(293,-111,o),
(306,-102,cs),
(316,-95,o),
(328,-91,o),
(341,-91,cs),
(355,-91,o),
(367,-95,o),
(376,-102,c)
);
},
{
closed = 1;
nodes = (
(62,99,o),
(67,101,o),
(72,101,cs),
(85,101,o),
(93,92,o),
(98,75,cs),
(103,56,o),
(109,46,o),
(116,46,cs),
(119,46,o),
(128,58,o),
(142,82,cs),
(158,109,o),
(168,125,o),
(173,130,cs),
(183,140,o),
(204,143,o),
(236,139,c),
(219,121,o),
(211,97,o),
(211,68,cs),
(211,47,o),
(219,36,o),
(235,36,cs),
(258,36,o),
(274,59,o),
(283,104,cs),
(290,139,o),
(290,169,o),
(283,196,cs),
(269,251,o),
(239,279,o),
(192,279,cs),
(186,279,o),
(180,278,o),
(174,277,c),
(161,264,o),
(144,241,o),
(121,207,cs),
(94,167,o),
(73,130,o),
(57,96,c)
);
},
{
closed = 1;
nodes = (
(369,366,o),
(351,365,o),
(328,361,cs),
(295,355,o),
(264,345,o),
(237,330,cs),
(223,322,o),
(212,314,o),
(203,307,c),
(210,310,o),
(219,311,o),
(229,311,cs),
(264,311,o),
(292,299,o),
(313,274,c),
(325,299,o),
(338,320,o),
(353,337,cs),
(359,344,o),
(368,353,o),
(380,363,c)
);
}
);
width = 687;
}
);
}
{
color = (166,255,153,255);
glyphname = bullet.033;
layers = (
{
layerId = "B33422F0-91E4-47C9-8809-C0A5C4DE8881";
shapes = (
{
closed = 1;
nodes = (
(194,99,o),
(199,101,o),
(204,101,cs),
(217,101,o),
(225,92,o),
(230,75,cs),
(235,56,o),
(241,46,o),
(248,46,cs),
(251,46,o),
(260,58,o),
(274,82,cs),
(290,109,o),
(300,125,o),
(305,130,cs),
(315,140,o),
(336,143,o),
(368,139,c),
(351,121,o),
(343,97,o),
(343,68,cs),
(343,47,o),
(351,36,o),
(367,36,cs),
(390,36,o),
(406,59,o),
(415,104,cs),
(422,139,o),
(422,169,o),
(415,196,cs),
(401,251,o),
(371,279,o),
(324,279,cs),
(318,279,o),
(312,278,o),
(306,277,c),
(293,264,o),
(276,241,o),
(253,207,cs),
(226,167,o),
(205,130,o),
(189,96,c)
);
},
{
closed = 1;
nodes = (
(599,382,o),
(634,393,o),
(679,397,cs),
(736,402,o),
(784,378,o),
(784,338,cs),
(784,319,o),
(773,301,o),
(752,285,cs),
(744,280,o),
(725,269,o),
(695,254,cs),
(648,231,o),
(595,209,o),
(567,177,cs),
(550,158,o),
(542,136,o),
(542,111,cs),
(542,102,o),
(543,93,o),
(546,84,cs),
(556,49,o),
(575,31,o),
(604,31,cs),
(623,31,o),
(642,38,o),
(661,53,cs),
(686,73,o),
(705,86,o),
(718,92,cs),
(739,102,o),
(760,106,o),
(783,104,cs),
(803,103,o),
(815,78,o),
(812,61,c),
(797,65,o),
(774,57,o),
(744,36,cs),
(714,16,o),
(680,1,o),
(643,-8,cs),
(616,-15,o),
(602,-33,o),
(602,-64,cs),
(602,-113,o),
(640,-155,o),
(689,-155,cs),
(695,-155,o),
(701,-154,o),
(708,-153,cs),
(757,-142,o),
(780,-115,o),
(775,-73,cs),
(772,-44,o),
(758,-27,o),
(733,-21,c),
(743,-14,o),
(755,-10,o),
(770,-10,cs),
(799,-10,o),
(826,-27,o),
(829,-52,cs),
(832,-82,o),
(822,-109,o),
(799,-134,cs),
(774,-161,o),
(740,-179,o),
(697,-186,cs),
(684,-188,o),
(670,-189,o),
(657,-189,cs),
(607,-189,o),
(571,-175,o),
(550,-146,cs),
(540,-132,o),
(535,-116,o),
(535,-97,cs),
(535,-56,o),
(553,-24,o),
(589,0,c),
(522,-2,o),
(482,25,o),
(469,80,cs),
(467,89,o),
(466,97,o),
(466,104,cs),
(466,137,o),
(484,167,o),
(519,196,cs),
(533,207,o),
(566,226,o),
(617,251,cs),
(698,290,l),
(709,297,o),
(715,306,o),
(715,317,cs),
(715,338,o),
(701,348,o),
(674,348,cs),
(651,348,o),
(627,340,o),
(601,323,cs),
(576,307,o),
(562,290,o),
(559,272,c),
(545,280,o),
(540,294,o),
(544,314,c),
(536,327,o),
(521,340,o),
(499,352,cs),
(487,359,o),
(471,362,o),
(452,362,cs),
(401,362,o),
(362,344,o),
(334,307,c),
(341,310,o),
(350,311,o),
(360,311,cs),
(383,311,o),
(403,305,o),
(422,293,cs),
(445,278,o),
(460,257,o),
(467,228,cs),
(470,214,o),
(472,199,o),
(472,183,cs),
(472,141,o),
(463,103,o),
(444,69,cs),
(419,22,o),
(387,-1,o),
(350,-1,cs),
(311,-1,o),
(291,18,o),
(291,55,c),
(272,26,o),
(258,9,o),
(247,4,cs),
(237,0,o),
(228,-2,o),
(220,-2,cs),
(199,-2,o),
(185,10,o),
(178,34,cs),
(176,41,o),
(172,45,o),
(166,45,cs),
(161,45,o),
(155,41,o),
(148,32,c),
(145,31,o),
(141,38,o),
(140,38,c),
(137,36,l),
(149,89,o),
(183,157,o),
(239,240,cs),
(256,266,o),
(274,290,o),
(293,312,c),
(297,325,o),
(299,334,o),
(298,341,cs),
(297,354,o),
(290,360,o),
(275,360,cs),
(262,360,o),
(251,353,o),
(241,339,cs),
(236,332,o),
(233,322,o),
(233,310,cs),
(233,295,o),
(236,284,o),
(243,275,c),
(232,269,o),
(222,266,o),
(213,266,cs),
(190,266,o),
(179,280,o),
(179,308,cs),
(179,320,o),
(182,331,o),
(188,342,c),
(188,343,o),
(189,344,o),
(190,345,c),
(173,352,o),
(154,353,o),
(135,348,cs),
(102,339,o),
(80,309,o),
(70,257,cs),
(63,222,o),
(61,184,o),
(64,144,cs),
(67,99,o),
(82,53,o),
(98,48,cs),
(109,45,o),
(116,51,o),
(120,68,c),
(125,60,o),
(127,52,o),
(127,43,cs),
(127,18,o),
(114,3,o),
(88,0,cs),
(65,-3,o),
(45,9,o),
(29,37,cs),
(16,62,o),
(8,91,o),
(5,125,cs),
(0,186,o),
(12,241,o),
(39,289,cs),
(58,323,o),
(83,351,o),
(112,372,cs),
(135,389,o),
(164,397,o),
(197,397,cs),
(213,397,o),
(225,394,o),
(232,387,c),
(253,397,o),
(274,400,o),
(296,395,cs),
(317,390,o),
(330,364,o),
(327,341,c),
(339,354,o),
(360,369,o),
(390,384,cs),
(407,393,o),
(434,397,o),
(470,397,cs),
(517,397,o),
(552,386,o),
(576,364,c)
);
},
{
closed = 1;
nodes = (
(584,429,o),
(581,422,o),
(577,413,c),
(562,402,o),
(546,396,o),
(528,396,cs),
(495,396,o),
(465,417,o),
(460,442,cs),
(459,450,o),
(458,458,o),
(458,465,cs),
(458,492,o),
(469,518,o),
(490,543,cs),
(515,573,o),
(553,593,o),
(602,602,cs),
(641,609,o),
(682,608,o),
(726,597,c),
(750,607,o),
(771,607,o),
(789,596,c),
(778,595,o),
(767,591,o),
(758,586,c),
(795,570,o),
(813,543,o),
(813,506,cs),
(813,481,o),
(807,459,o),
(794,440,cs),
(780,419,o),
(761,407,o),
(737,404,cs),
(731,403,o),
(725,403,o),
(719,403,cs),
(682,403,o),
(658,421,o),
(647,457,cs),
(644,466,o),
(643,476,o),
(643,486,cs),
(643,525,o),
(661,563,o),
(686,574,c),
(661,579,o),
(641,580,o),
(625,578,cs),
(550,567,o),
(514,532,o),
(515,473,cs),
(516,442,o),
(530,426,o),
(558,426,cs),
(567,426,o),
(576,428,o),
(585,433,c)
);
},
{
closed = 1;
nodes = (
(717,561,o),
(709,553,o),
(700,540,cs),
(690,525,o),
(685,508,o),
(684,490,cs),
(683,452,o),
(697,432,o),
(727,430,cs),
(742,429,o),
(760,459,o),
(760,487,cs),
(760,519,o),
(742,557,o),
(725,564,c)
);
}
);
width = 825;
}
);
}
{
color = (166,255,153,255);
glyphname = bullet.035;
layers = (
{
layerId = "B33422F0-91E4-47C9-8809-C0A5C4DE8881";
shapes = (
{
closed = 1;
nodes = (
(474,453,o),
(485,468,o),
(502,485,cs),
(542,524,ls),
(553,535,o),
(558,552,o),
(558,573,cs),
(558,595,o),
(549,612,o),
(532,624,c),
(541,629,o),
(550,631,o),
(559,631,cs),
(586,631,o),
(609,608,o),
(609,583,cs),
(609,563,o),
(602,545,o),
(588,530,cs),
(546,489,ls),
(534,478,o),
(526,468,o),
(523,459,cs),
(514,435,o),
(514,413,o),
(522,392,c),
(540,383,o),
(550,368,o),
(552,346,cs),
(555,318,o),
(539,307,o),
(520,310,cs),
(509,312,o),
(494,323,o),
(477,342,c),
(472,335,o),
(471,327,o),
(474,317,c),
(485,292,o),
(499,257,o),
(517,213,cs),
(526,191,o),
(530,169,o),
(530,148,cs),
(530,60,o),
(463,-1,o),
(344,-1,cs),
(323,-1,o),
(301,1,o),
(278,4,cs),
(248,9,o),
(223,21,o),
(204,40,cs),
(182,61,o),
(171,85,o),
(172,114,cs),
(173,153,o),
(193,189,o),
(233,221,cs),
(295,266,ls),
(309,277,o),
(316,291,o),
(316,308,cs),
(316,317,o),
(313,326,o),
(307,333,cs),
(299,342,o),
(288,347,o),
(274,347,cs),
(243,347,o),
(209,320,o),
(204,287,c),
(194,295,o),
(189,308,o),
(189,325,cs),
(189,332,o),
(190,338,o),
(191,344,c),
(181,349,o),
(170,351,o),
(159,351,cs),
(151,351,o),
(143,350,o),
(135,348,cs),
(102,339,o),
(80,309,o),
(70,257,cs),
(63,222,o),
(61,184,o),
(64,144,cs),
(67,99,o),
(82,53,o),
(98,48,cs),
(109,45,o),
(116,51,o),
(120,68,c),
(125,60,o),
(127,52,o),
(127,43,cs),
(127,18,o),
(114,3,o),
(88,0,cs),
(65,-3,o),
(45,9,o),
(29,37,cs),
(16,62,o),
(8,91,o),
(5,125,cs),
(0,186,o),
(12,241,o),
(39,289,cs),
(58,323,o),
(83,351,o),
(112,372,cs),
(135,389,o),
(164,397,o),
(197,397,cs),
(212,397,o),
(224,394,o),
(231,388,c),
(245,395,o),
(262,398,o),
(281,398,cs),
(288,398,o),
(298,397,o),
(312,396,cs),
(355,391,o),
(377,368,o),
(377,326,cs),
(377,319,o),
(376,311,o),
(374,304,cs),
(370,288,o),
(351,268,o),
(318,244,cs),
(281,218,o),
(259,198,o),
(252,184,cs),
(243,168,o),
(239,151,o),
(239,134,cs),
(239,103,o),
(249,79,o),
(268,61,cs),
(289,41,o),
(316,30,o),
(348,29,cs),
(386,28,o),
(419,36,o),
(448,55,cs),
(469,68,o),
(480,92,o),
(480,125,cs),
(480,154,o),
(471,182,o),
(453,210,cs),
(427,251,o),
(414,286,o),
(414,315,cs),
(414,330,o),
(418,344,o),
(425,357,cs),
(434,373,o),
(446,384,o),
(460,390,c),
(459,396,o),
(459,402,o),
(460,408,c),
(449,395,o),
(431,388,o),
(404,388,cs),
(369,388,o),
(342,396,o),
(323,411,cs),
(293,436,o),
(277,466,o),
(275,501,cs),
(274,530,o),
(281,558,o),
(298,587,cs),
(313,611,o),
(335,630,o),
(366,643,cs),
(378,648,o),
(392,651,o),
(409,651,cs),
(458,651,o),
(494,633,o),
(517,597,cs),
(525,584,o),
(529,570,o),
(529,554,cs),
(529,537,o),
(525,524,o),
(517,516,cs),
(504,503,o),
(490,496,o),
(477,497,c),
(480,502,o),
(482,510,o),
(482,519,cs),
(482,532,o),
(479,547,o),
(472,562,cs),
(459,593,o),
(420,615,o),
(389,611,cs),
(364,608,o),
(346,598,o),
(333,581,cs),
(325,570,o),
(321,557,o),
(321,541,cs),
(321,512,o),
(332,486,o),
(354,462,cs),
(371,443,o),
(397,434,o),
(433,434,cs),
(449,434,o),
(461,437,o),
(470,442,c)
);
}
);
width = 552;
}
);
}
{
color = (166,255,153,255);
glyphname = bullet.036;
layers = (
{
layerId = "B33422F0-91E4-47C9-8809-C0A5C4DE8881";
shapes = (
{
closed = 1;
nodes = (
(29,-172,o),
(69,-162,o),
(121,-149,cs),
(148,-143,o),
(175,-139,o),
(202,-137,cs),
(225,-135,o),
(246,-137,o),
(265,-143,c),
(268,-104,o),
(279,-42,o),
(296,45,c),
(288,38,o),
(280,32,o),
(271,26,cs),
(240,6,o),
(203,-4,o),
(160,-3,cs),
(91,-2,o),
(45,26,o),
(20,80,cs),
(10,102,o),
(5,131,o),
(5,166,cs),
(5,189,o),
(7,212,o),
(12,233,cs),
(21,270,o),
(38,304,o),
(64,335,cs),
(91,367,o),
(120,387,o),
(152,394,cs),
(161,396,o),
(170,397,o),
(179,397,cs),
(214,397,o),
(235,382,o),
(241,352,cs),
(245,329,o),
(227,307,o),
(199,302,c),
(203,321,o),
(200,337,o),
(189,349,cs),
(180,358,o),
(170,363,o),
(159,363,cs),
(136,363,o),
(116,351,o),
(99,326,cs),
(86,307,o),
(77,284,o),
(71,257,cs),
(67,238,o),
(65,216,o),
(65,191,cs),
(65,136,o),
(77,94,o),
(100,65,cs),
(120,40,o),
(149,28,o),
(187,28,cs),
(215,28,o),
(241,39,o),
(266,60,cs),
(291,81,o),
(308,106,o),
(317,134,cs),
(330,173,o),
(337,215,o),
(337,261,cs),
(337,309,o),
(331,349,o),
(319,380,cs),
(296,438,o),
(265,477,o),
(225,498,cs),
(209,506,o),
(190,510,o),
(168,510,cs),
(148,510,o),
(128,506,o),
(109,497,cs),
(86,486,o),
(74,472,o),
(74,454,cs),
(74,433,o),
(86,422,o),
(109,421,c),
(104,411,o),
(94,404,o),
(80,401,cs),
(73,400,o),
(66,399,o),
(61,399,cs),
(38,399,o),
(26,411,o),
(26,435,cs),
(26,470,o),
(52,498,o),
(103,521,cs),
(126,531,o),
(155,536,o),
(191,536,cs),
(241,536,o),
(280,524,o),
(309,501,cs),
(366,454,o),
(395,385,o),
(395,294,cs),
(395,238,o),
(384,186,o),
(363,139,cs),
(352,117,l),
(343,61,o),
(336,0,o),
(329,-65,cs),
(321,-125,o),
(316,-168,o),
(315,-195,c),
(240,-190,o),
(198,-188,o),
(187,-188,cs),
(168,-188,o),
(135,-190,o),
(88,-194,cs),
(41,-198,o),
(12,-200,o),
(-1,-200,c),
(-1,-198,o),
(0,-191,o),
(1,-180,c)
);
},
{
closed = 1;
nodes = (
(-2,-200,l),
(-2,-201,o),
(-2,-201,o),
(-1,-200,c)
);
}
);
width = 406;
}
);
}
{
color = (166,255,153,255);
glyphname = bullet.037;
layers = (
{
layerId = "B33422F0-91E4-47C9-8809-C0A5C4DE8881";
shapes = (
{
closed = 1;
nodes = (
(140,422,o),
(122,417,o),
(103,417,cs),
(60,417,o),
(20,445,o),
(13,474,cs),
(11,483,o),
(10,491,o),
(10,499,cs),
(10,558,o),
(62,613,o),
(157,628,cs),
(194,633,o),
(234,632,o),
(275,625,cs),
(347,612,o),
(385,582,o),
(389,537,cs),
(392,508,o),
(367,482,o),
(334,477,c),
(372,431,o),
(391,366,o),
(391,283,cs),
(391,223,o),
(381,171,o),
(362,126,cs),
(334,62,o),
(301,21,o),
(263,3,cs),
(255,-1,o),
(244,-2,o),
(229,-1,cs),
(214,0,o),
(204,3,o),
(197,8,cs),
(185,18,o),
(177,30,o),
(173,44,cs),
(171,54,o),
(169,64,o),
(168,74,c),
(137,7,o),
(120,-10,o),
(80,1,cs),
(47,10,o),
(25,33,o),
(15,69,cs),
(7,98,o),
(3,129,o),
(3,163,cs),
(3,190,o),
(6,215,o),
(12,237,cs),
(21,272,o),
(39,305,o),
(65,336,cs),
(92,367,o),
(121,387,o),
(152,394,cs),
(161,396,o),
(170,397,o),
(179,397,cs),
(214,397,o),
(235,382,o),
(241,352,cs),
(245,329,o),
(227,307,o),
(199,302,c),
(207,341,o),
(181,365,o),
(157,365,cs),
(134,365,o),
(115,352,o),
(99,325,cs),
(86,306,o),
(77,283,o),
(72,256,cs),
(66,226,o),
(63,197,o),
(63,168,cs),
(63,114,o),
(74,73,o),
(96,46,cs),
(99,43,o),
(102,41,o),
(105,41,cs),
(112,41,o),
(120,50,o),
(129,68,cs),
(157,124,ls),
(166,143,o),
(181,153,o),
(201,153,cs),
(206,153,o),
(215,152,o),
(226,150,c),
(220,133,o),
(217,119,o),
(218,110,cs),
(219,87,o),
(221,62,o),
(230,49,cs),
(236,40,o),
(243,36,o),
(251,36,cs),
(275,36,o),
(301,74,o),
(314,126,cs),
(325,167,o),
(330,214,o),
(330,267,cs),
(330,316,o),
(326,354,o),
(317,380,cs),
(308,409,o),
(295,433,o),
(278,453,cs),
(258,477,o),
(236,495,o),
(211,507,cs),
(190,517,o),
(168,523,o),
(143,525,c),
(146,514,o),
(152,503,o),
(159,493,cs),
(172,476,o),
(187,465,o),
(206,460,cs),
(230,453,o),
(247,454,o),
(258,463,c),
(263,436,o),
(246,423,o),
(206,423,cs),
(189,423,o),
(173,426,o),
(157,433,c)
);
},
{
closed = 1;
nodes = (
(314,498,l),
(320,506,o),
(323,515,o),
(323,525,cs),
(323,548,o),
(311,567,o),
(288,582,cs),
(261,600,o),
(227,607,o),
(186,603,cs),
(107,596,o),
(63,561,o),
(68,506,cs),
(72,469,o),
(101,445,o),
(130,449,c),
(121,456,o),
(113,467,o),
(105,481,cs),
(101,488,o),
(98,501,o),
(97,518,cs),
(96,535,o),
(98,548,o),
(101,557,c),
(122,551,o),
(141,548,o),
(157,547,cs),
(174,546,o),
(198,544,o),
(230,539,c),
(266,529,o),
(293,516,o),
(310,501,cs)
);
}
);
width = 402;
}
);
}
{
color = (166,255,153,255);
glyphname = bullet.039;
layers = (
{
layerId = "B33422F0-91E4-47C9-8809-C0A5C4DE8881";
shapes = (
{
closed = 1;
nodes = (
(82,-47,o),
(80,-52,o),
(80,-59,cs),
(80,-73,o),
(90,-86,o),
(110,-97,cs),
(139,-113,o),
(173,-121,o),
(212,-121,cs),
(239,-121,o),
(261,-117,o),
(279,-108,cs),
(310,-93,o),
(325,-68,o),
(325,-33,cs),
(325,-10,o),
(321,-4,o),
(313,6,c),
(308,4,o),
(302,2,o),
(297,1,cs),
(265,-6,o),
(240,-1,o),
(221,15,cs),
(205,28,o),
(197,48,o),
(197,73,c),
(182,43,o),
(165,22,o),
(148,10,cs),
(137,2,o),
(122,-2,o),
(105,-1,cs),
(64,0,o),
(27,21,o),
(27,90,cs),
(27,120,o),
(41,151,o),
(68,183,c),
(80,194,o),
(95,210,o),
(114,229,c),
(97,219,o),
(74,209,o),
(43,199,cs),
(28,194,o),
(18,192,o),
(11,192,cs),
(2,192,o),
(-4,195,o),
(-6,202,cs),
(-11,221,o),
(15,252,o),
(46,265,cs),
(66,274,o),
(86,278,o),
(105,278,cs),
(117,278,o),
(127,276,o),
(134,272,c),
(149,277,o),
(164,286,o),
(180,297,cs),
(189,304,o),
(194,313,o),
(194,324,cs),
(194,341,o),
(183,349,o),
(161,349,cs),
(132,349,o),
(97,327,o),
(89,300,c),
(76,305,o),
(70,316,o),
(70,332,cs),
(70,344,o),
(74,355,o),
(83,365,cs),
(102,387,o),
(137,398,o),
(189,398,cs),
(228,398,o),
(253,374,o),
(253,343,cs),
(253,336,o),
(251,328,o),
(248,321,cs),
(235,292,o),
(204,267,o),
(153,246,c),
(153,241,o),
(148,232,o),
(139,218,cs),
(103,165,ls),
(94,151,o),
(90,134,o),
(90,113,cs),
(90,70,o),
(104,48,o),
(131,48,cs),
(151,48,o),
(172,76,o),
(194,133,cs),
(205,161,o),
(227,175,o),
(259,175,cs),
(265,175,o),
(270,175,o),
(275,174,c),
(266,158,o),
(259,136,o),
(256,108,cs),
(252,77,o),
(255,56,o),
(265,43,cs),
(270,36,o),
(277,33,o),
(286,33,cs),
(299,33,o),
(309,38,o),
(317,49,cs),
(340,80,o),
(354,127,o),
(357,191,cs),
(358,208,o),
(358,223,o),
(358,236,cs),
(358,301,o),
(348,350,o),
(327,383,cs),
(311,408,o),
(272,421,o),
(211,421,cs),
(201,421,o),
(188,421,o),
(172,420,cs),
(151,419,o),
(138,419,o),
(133,419,cs),
(89,418,o),
(62,430,o),
(53,457,cs),
(50,465,o),
(49,473,o),
(49,481,cs),
(49,505,o),
(59,527,o),
(80,548,cs),
(105,573,o),
(144,591,o),
(197,602,cs),
(235,610,o),
(276,608,o),
(321,597,c),
(345,607,o),
(366,607,o),
(384,596,c),
(373,595,o),
(362,591,o),
(353,586,c),
(391,569,o),
(409,546,o),
(407,516,cs),
(406,497,o),
(396,481,o),
(377,470,cs),
(361,460,o),
(344,455,o),
(325,456,cs),
(278,457,o),
(250,471,o),
(241,498,cs),
(239,504,o),
(238,510,o),
(238,515,cs),
(238,542,o),
(252,561,o),
(281,574,c),
(266,579,o),
(244,580,o),
(216,576,cs),
(189,572,o),
(166,563,o),
(145,550,cs),
(122,535,o),
(111,517,o),
(111,498,cs),
(111,491,o),
(113,484,o),
(116,477,cs),
(123,462,o),
(151,455,o),
(201,455,cs),
(209,455,o),
(221,455,o),
(236,456,cs),
(269,456,ls),
(286,456,o),
(298,455,o),
(307,454,cs),
(362,443,o),
(387,413,o),
(408,342,cs),
(413,324,o),
(416,300,o),
(416,271,cs),
(416,182,o),
(400,110,o),
(360,48,c),
(370,47,o),
(384,36,o),
(384,-6,cs),
(384,-56,o),
(360,-95,o),
(312,-124,cs),
(272,-149,o),
(225,-161,o),
(172,-161,cs),
(137,-161,o),
(105,-155,o),
(74,-144,cs),
(27,-126,o),
(7,-101,o),
(7,-68,cs),
(7,-44,o),
(24,-32,o),
(51,-32,cs),
(62,-32,o),
(74,-35,o),
(86,-42,c)
);
},
{
closed = 1;
nodes = (
(299,557,o),
(288,543,o),
(288,521,cs),
(288,501,o),
(302,484,o),
(323,488,cs),
(342,491,o),
(352,501,o),
(352,518,cs),
(352,541,o),
(341,557,o),
(320,564,c)
);
}
);
width = 427;
}
);
}
{
color = (166,255,153,255);
glyphname = bullet.043;
layers = (
{
layerId = "B33422F0-91E4-47C9-8809-C0A5C4DE8881";
shapes = (
{
closed = 1;
nodes = (
(64,100,o),
(68,101,o),
(72,101,cs),
(81,101,o),
(93,90,o),
(106,67,cs),
(119,45,o),
(137,33,o),
(159,32,cs),
(207,29,o),
(238,54,o),
(252,107,cs),
(261,140,o),
(262,168,o),
(257,193,cs),
(250,224,o),
(238,247,o),
(220,262,cs),
(205,275,o),
(189,280,o),
(174,277,c),
(161,264,o),
(144,241,o),
(121,208,cs),
(91,164,o),
(70,127,o),
(59,97,c)
);
},
{
closed = 1;
nodes = (
(267,394,o),
(291,398,o),
(322,398,cs),
(344,398,o),
(362,396,o),
(377,391,cs),
(428,374,o),
(459,311,o),
(459,223,cs),
(459,206,o),
(458,190,o),
(455,174,cs),
(444,100,o),
(415,47,o),
(368,15,cs),
(350,2,o),
(329,-3,o),
(305,-2,cs),
(274,0,o),
(258,9,o),
(258,25,cs),
(258,44,o),
(271,54,o),
(296,55,c),
(293,50,o),
(291,45,o),
(291,41,cs),
(291,30,o),
(299,25,o),
(316,25,cs),
(323,25,o),
(329,26,o),
(334,29,cs),
(374,56,o),
(396,107,o),
(399,182,cs),
(401,221,o),
(397,255,o),
(387,285,cs),
(375,320,o),
(357,342,o),
(333,352,cs),
(323,356,o),
(312,358,o),
(300,358,cs),
(270,358,o),
(245,349,o),
(225,331,cs),
(215,322,o),
(207,314,o),
(202,307,c),
(206,308,o),
(211,308,o),
(216,308,cs),
(279,308,o),
(317,260,o),
(317,197,cs),
(317,148,o),
(304,105,o),
(278,68,cs),
(252,31,o),
(218,9,o),
(175,1,cs),
(165,-1,o),
(155,-2,o),
(146,-2,cs),
(106,-2,o),
(75,14,o),
(53,45,cs),
(50,50,o),
(45,52,o),
(40,52,cs),
(33,52,o),
(25,47,o),
(17,38,c),
(11,35,o),
(6,36,o),
(1,41,c),
(4,60,o),
(16,91,o),
(39,136,cs),
(56,170,o),
(78,205,o),
(105,242,cs),
(116,257,o),
(134,280,o),
(161,312,c),
(165,325,o),
(167,334,o),
(166,341,cs),
(165,354,o),
(158,360,o),
(143,360,cs),
(130,360,o),
(119,353,o),
(109,339,cs),
(104,332,o),
(101,322,o),
(101,310,cs),
(101,295,o),
(104,284,o),
(111,275,c),
(100,269,o),
(90,266,o),
(81,266,cs),
(58,266,o),
(47,280,o),
(47,308,cs),
(47,320,o),
(50,331,o),
(56,342,cs),
(77,379,o),
(106,397,o),
(143,397,cs),
(154,397,o),
(162,396,o),
(169,394,c),
(190,385,o),
(198,368,o),
(195,341,c),
(206,356,o),
(224,370,o),
(251,385,cs)
);
},
{
closed = 1;
nodes = (
(319,542,o),
(332,519,o),
(332,481,cs),
(332,472,o),
(331,463,o),
(328,454,cs),
(319,421,o),
(291,405,o),
(244,405,cs),
(213,405,o),
(187,414,o),
(166,432,cs),
(143,452,o),
(133,477,o),
(134,508,cs),
(135,543,o),
(152,575,o),
(185,597,cs),
(215,617,o),
(255,627,o),
(294,627,cs),
(337,627,o),
(368,621,o),
(404,600,cs),
(439,579,o),
(457,550,o),
(457,514,cs),
(457,493,o),
(453,468,o),
(436,446,cs),
(424,430,o),
(392,410,o),
(365,410,cs),
(355,410,o),
(347,413,o),
(340,418,c),
(377,435,o),
(395,461,o),
(395,497,cs),
(395,522,o),
(386,546,o),
(367,567,cs),
(348,589,o),
(320,600,o),
(284,600,cs),
(232,600,o),
(197,570,o),
(197,525,cs),
(197,496,o),
(205,474,o),
(221,460,cs),
(237,447,o),
(250,440,o),
(261,440,cs),
(275,440,o),
(282,449,o),
(282,466,cs),
(282,494,o),
(267,516,o),
(236,532,c),
(245,546,o),
(258,553,o),
(276,553,cs),
(282,553,o),
(288,552,o),
(294,550,cs)
);
}
);
width = 470;
}
);
}
{
color = (166,255,153,255);
glyphname = bullet.047;
layers = (
{
layerId = "B33422F0-91E4-47C9-8809-C0A5C4DE8881";
shapes = (
{
closed = 1;
nodes = (
(285,40,l),
(247,11,o),
(213,-5,o),
(183,-8,cs),
(172,-9,o),
(161,-10,o),
(150,-10,cs),
(111,-10,o),
(78,-1,o),
(51,18,cs),
(21,39,o),
(6,67,o),
(6,104,cs),
(6,137,o),
(24,167,o),
(59,196,cs),
(73,207,o),
(106,226,o),
(157,251,cs),
(238,290,l),
(249,297,o),
(255,306,o),
(255,317,cs),
(255,338,o),
(241,348,o),
(214,348,cs),
(191,348,o),
(167,340,o),
(141,323,cs),
(116,307,o),
(102,290,o),
(99,272,c),
(88,278,o),
(83,288,o),
(83,302,cs),
(83,319,o),
(89,334,o),
(100,348,cs),
(123,376,o),
(163,392,o),
(219,397,cs),
(276,402,o),
(324,378,o),
(324,338,cs),
(324,319,o),
(313,301,o),
(292,285,cs),
(284,280,o),
(265,269,o),
(235,254,cs),
(188,231,o),
(135,209,o),
(107,177,cs),
(90,158,o),
(82,136,o),
(82,111,cs),
(82,102,o),
(83,93,o),
(86,84,cs),
(96,49,o),
(115,31,o),
(144,31,cs),
(163,31,o),
(182,38,o),
(201,53,cs),
(226,73,o),
(245,86,o),
(258,92,cs),
(279,102,o),
(300,106,o),
(323,104,cs),
(343,103,o),
(355,78,o),
(352,61,cs),
(347,41,o),
(340,-1,o),
(331,-64,cs),
(323,-123,o),
(318,-166,o),
(316,-195,c),
(292,-184,o),
(271,-179,o),
(254,-179,cs),
(240,-179,o),
(218,-182,o),
(188,-188,cs),
(142,-197,o),
(108,-202,o),
(86,-202,cs),
(63,-202,o),
(43,-199,o),
(28,-192,cs),
(2,-181,o),
(-11,-163,o),
(-11,-138,cs),
(-11,-123,o),
(-5,-111,o),
(8,-102,cs),
(18,-95,o),
(30,-91,o),
(43,-91,cs),
(57,-91,o),
(69,-95,o),
(78,-102,c),
(61,-107,o),
(53,-119,o),
(53,-136,cs),
(53,-163,o),
(71,-176,o),
(108,-175,cs),
(121,-175,o),
(158,-164,o),
(217,-142,cs),
(236,-135,o),
(252,-134,o),
(267,-138,c)
);
}
);
width = 363;
}
);
}
{
color = (166,255,153,255);
glyphname = bullet.048;
layers = (
{
layerId = "B33422F0-91E4-47C9-8809-C0A5C4DE8881";
shapes = (
{
closed = 1;
nodes = (
(122,369,o),
(117,369,o),
(111,369,cs),
(75,369,o),
(32,396,o),
(22,424,cs),
(18,435,o),
(16,446,o),
(16,459,cs),
(16,496,o),
(33,529,o),
(66,557,cs),
(97,583,o),
(131,598,o),
(170,603,cs),
(217,610,o),
(252,608,o),
(277,597,c),
(301,607,o),
(322,607,o),
(340,596,c),
(329,595,o),
(319,592,o),
(309,586,c),
(326,580,o),
(339,569,o),
(350,552,cs),
(363,534,o),
(367,513,o),
(364,488,cs),
(357,438,o),
(332,410,o),
(287,404,cs),
(280,403,o),
(276,403,o),
(269,403,cs),
(222,403,o),
(194,437,o),
(194,484,cs),
(194,523,o),
(213,563,o),
(237,574,c),
(221,579,o),
(203,579,o),
(182,575,cs),
(113,560,o),
(74,516,o),
(79,459,cs),
(82,426,o),
(114,400,o),
(145,400,cs),
(152,400,o),
(159,402,o),
(167,405,c),
(166,400,o),
(162,393,o),
(157,385,c),
(159,385,l),
(176,391,o),
(196,395,o),
(219,397,cs),
(276,402,o),
(324,378,o),
(324,338,cs),
(324,319,o),
(313,301,o),
(292,285,cs),
(284,280,o),
(266,269,o),
(235,254,cs),
(188,231,o),
(135,209,o),
(107,177,cs),
(90,158,o),
(82,136,o),
(82,111,cs),
(82,101,o),
(83,92,o),
(86,84,cs),
(96,49,o),
(115,31,o),
(144,31,cs),
(162,31,o),
(181,38,o),
(200,52,cs),
(219,67,o),
(232,76,o),
(239,81,cs),
(254,91,o),
(267,97,o),
(277,100,cs),
(295,105,o),
(310,107,o),
(323,104,cs),
(343,100,o),
(355,78,o),
(352,61,c),
(331,68,o),
(312,63,o),
(295,46,c),
(340,41,o),
(370,4,o),
(369,-52,cs),
(368,-82,o),
(352,-110,o),
(323,-136,cs),
(290,-165,o),
(251,-181,o),
(204,-186,cs),
(195,-187,o),
(186,-188,o),
(175,-188,cs),
(112,-188,o),
(67,-170,o),
(41,-135,cs),
(34,-124,o),
(30,-112,o),
(30,-99,cs),
(30,-82,o),
(35,-68,o),
(46,-55,cs),
(59,-41,o),
(77,-33,o),
(100,-31,c),
(90,-50,o),
(90,-71,o),
(100,-95,cs),
(116,-134,o),
(148,-154,o),
(195,-154,cs),
(202,-154,o),
(208,-154,o),
(215,-153,cs),
(266,-146,o),
(296,-120,o),
(305,-74,cs),
(306,-67,o),
(307,-63,o),
(307,-56,cs),
(307,-29,o),
(298,-10,o),
(280,1,cs),
(271,6,o),
(264,9,o),
(258,9,cs),
(244,9,o),
(236,-2,o),
(233,-25,c),
(213,-18,o),
(205,-1,o),
(209,8,c),
(181,0,o),
(154,-3,o),
(129,0,cs),
(60,8,o),
(20,35,o),
(9,80,cs),
(7,89,o),
(6,97,o),
(6,104,cs),
(6,136,o),
(24,167,o),
(59,196,cs),
(74,207,o),
(106,226,o),
(157,251,cs),
(238,290,l),
(249,297,o),
(255,306,o),
(255,317,cs),
(255,338,o),
(241,348,o),
(214,348,cs),
(191,348,o),
(166,340,o),
(141,323,cs),
(116,307,o),
(102,290,o),
(99,272,c),
(88,278,o),
(83,288,o),
(83,302,cs),
(83,318,o),
(89,333,o),
(100,348,cs),
(107,356,o),
(115,363,o),
(125,370,c)
);
},
{
closed = 1;
nodes = (
(268,561,o),
(260,553,o),
(251,541,cs),
(240,526,o),
(235,509,o),
(235,490,cs),
(235,452,o),
(249,432,o),
(278,430,cs),
(293,430,o),
(311,458,o),
(311,487,cs),
(311,519,o),
(293,557,o),
(276,564,c)
);
}
);
width = 366;
}
);
}
{
color = (166,255,153,255);
glyphname = bullet.049;
layers = (
{
layerId = "B33422F0-91E4-47C9-8809-C0A5C4DE8881";
shapes = (
{
closed = 1;
nodes = (
(99,43,o),
(102,41,o),
(105,41,cs),
(112,41,o),
(120,50,o),
(129,68,cs),
(157,124,ls),
(166,143,o),
(181,153,o),
(201,153,cs),
(206,153,o),
(215,152,o),
(226,150,c),
(220,133,o),
(217,119,o),
(218,110,cs),
(219,87,o),
(221,62,o),
(230,49,cs),
(236,40,o),
(243,36,o),
(251,36,cs),
(275,36,o),
(301,74,o),
(314,126,cs),
(325,169,o),
(330,218,o),
(330,272,cs),
(330,321,o),
(326,357,o),
(317,380,cs),
(294,441,o),
(264,480,o),
(227,498,cs),
(208,507,o),
(188,511,o),
(165,511,cs),
(144,511,o),
(126,507,o),
(109,499,cs),
(88,489,o),
(78,475,o),
(78,456,cs),
(78,433,o),
(89,422,o),
(111,421,c),
(106,410,o),
(97,404,o),
(84,401,cs),
(77,400,o),
(70,399,o),
(65,399,cs),
(46,399,o),
(35,408,o),
(31,427,cs),
(28,442,o),
(32,457,o),
(41,473,cs),
(52,494,o),
(71,510,o),
(98,522,c),
(99,523,o),
(101,524,o),
(103,524,c),
(94,528,o),
(86,533,o),
(79,540,cs),
(56,560,o),
(46,585,o),
(47,616,cs),
(48,651,o),
(67,682,o),
(99,705,cs),
(128,726,o),
(160,735,o),
(199,736,cs),
(243,737,o),
(281,729,o),
(317,708,cs),
(352,687,o),
(370,658,o),
(370,622,cs),
(370,601,o),
(366,576,o),
(349,554,cs),
(337,538,o),
(309,520,o),
(283,518,c),
(293,513,o),
(302,507,o),
(310,501,cs),
(365,458,o),
(392,385,o),
(392,283,cs),
(392,223,o),
(382,171,o),
(362,126,cs),
(334,62,o),
(301,21,o),
(263,3,cs),
(255,-1,o),
(244,-2,o),
(229,-1,cs),
(214,0,o),
(204,3,o),
(197,8,cs),
(185,18,o),
(177,30,o),
(173,44,cs),
(171,54,o),
(169,64,o),
(168,74,c),
(137,7,o),
(120,-10,o),
(80,1,cs),
(47,10,o),
(25,33,o),
(15,69,cs),
(7,98,o),
(3,129,o),
(3,163,cs),
(3,190,o),
(6,215,o),
(12,237,cs),
(21,272,o),
(39,305,o),
(65,336,cs),
(92,367,o),
(121,387,o),
(152,394,cs),
(161,396,o),
(170,397,o),
(179,397,cs),
(214,397,o),
(235,382,o),
(241,352,cs),
(245,329,o),
(227,307,o),
(199,302,c),
(207,341,o),
(181,365,o),
(157,365,cs),
(134,365,o),
(115,352,o),
(99,325,cs),
(86,306,o),
(77,283,o),
(72,256,cs),
(66,226,o),
(63,197,o),
(63,168,cs),
(63,114,o),
(74,73,o),
(96,46,cs)
);
},
{
closed = 1;
nodes = (
(232,650,o),
(245,627,o),
(245,589,cs),
(245,580,o),
(244,571,o),
(241,562,cs),
(238,551,o),
(233,542,o),
(226,535,c),
(238,534,o),
(248,531,o),
(258,528,c),
(292,545,o),
(308,571,o),
(308,605,cs),
(308,630,o),
(299,654,o),
(280,675,cs),
(261,697,o),
(233,708,o),
(197,708,cs),
(145,708,o),
(110,678,o),
(110,633,cs),
(110,604,o),
(118,582,o),
(134,568,cs),
(150,555,o),
(163,548,o),
(174,548,cs),
(188,548,o),
(195,557,o),
(195,574,cs),
(195,602,o),
(180,624,o),
(149,640,c),
(158,654,o),
(171,661,o),
(189,661,cs),
(195,661,o),
(201,660,o),
(207,658,cs)
);
}
);
width = 402;
}
);
}
{
color = (166,255,153,255);
glyphname = bullet.050;
layers = (
{
background = {
shapes = (
{
closed = 1;
nodes = (
(94,-101,o),
(114,-110,q),
(136,-116,o),
(180,-124,q),
(253,-134,o),
(252,-134,q),
(304,-134,o),
(336,-126,o),
(341,-96,q),
(349,-47,o),
(349,-21,q),
(349,-12,l),
(345,-8,o),
(343,-4,q),
(333,20,o),
(329,96,q),
(325,177,o),
(295,180,q),
(268,183,o),
(229,108,o),
(211,72,q),
(182,22,o),
(149,4,q),
(128,-8,o),
(102,-8,q),
(89,-8,o),
(77,-4,q),
(52,4,o),
(39,18,q),
(15,44,o),
(15,74,q),
(15,88,o),
(32,92,q),
(67,101,o),
(69,103,q),
(92,113,o),
(101,140,q),
(106,155,o),
(106,167,q),
(106,191,o),
(79,220,q),
(66,234,o),
(42,234,q),
(25,234,o),
(9,226,q),
(0,242,o),
(0,261,q),
(0,304,o),
(37,326,q),
(52,335,o),
(71,335,q),
(108,335,o),
(133,310,q),
(177,266,o),
(177,204,q),
(223,303,o),
(305,303,q),
(319,303,o),
(333,300,q),
(372,290,o),
(413,245,o),
(427,200,q),
(438,163,o),
(439,84,q),
(441,-8,l),
(439,-9,o),
(437,-10,q),
(441,-33,o),
(441,-67,q),
(441,-142,o),
(429,-182,q),
(425,-194,o),
(407,-200,q),
(374,-210,o),
(240,-210,q),
(108,-210,o),
(78,-198,q),
(70,-179,o),
(69,-145,q),
(69,-114,o),
(74,-100,q)
);
}
);
};
layerId = "B33422F0-91E4-47C9-8809-C0A5C4DE8881";
shapes = (
{
closed = 1;
nodes = (
(102,-172,o),
(142,-162,o),
(194,-149,cs),
(221,-143,o),
(248,-139,o),
(275,-137,cs),
(298,-135,o),
(319,-137,o),
(338,-143,c),
(341,-108,o),
(350,-52,o),
(365,24,c),
(363,22,o),
(361,20,o),
(359,19,cs),
(339,4,o),
(320,-3,o),
(302,-2,cs),
(271,0,o),
(255,9,o),
(255,25,cs),
(255,44,o),
(268,54,o),
(293,55,c),
(289,49,o),
(287,44,o),
(287,39,cs),
(287,30,o),
(293,25,o),
(305,25,cs),
(312,25,o),
(317,27,o),
(322,30,cs),
(355,52,o),
(376,103,o),
(385,183,cs),
(386,193,o),
(387,203,o),
(387,213,cs),
(387,281,o),
(363,339,o),
(324,354,cs),
(317,357,o),
(311,358,o),
(304,358,cs),
(277,358,o),
(253,343,o),
(230,312,cs),
(227,307,o),
(222,299,o),
(214,288,c),
(221,289,o),
(228,290,o),
(234,290,cs),
(275,290,o),
(299,266,o),
(308,217,cs),
(309,209,o),
(310,201,o),
(310,192,cs),
(310,146,o),
(297,105,o),
(270,68,cs),
(243,31,o),
(209,9,o),
(168,1,cs),
(154,-2,o),
(140,-3,o),
(127,-3,cs),
(96,-3,o),
(70,4,o),
(49,17,cs),
(35,26,o),
(24,39,o),
(15,56,cs),
(4,77,o),
(1,102,o),
(6,131,c),
(6,131,o),
(27,144,o),
(30,141,c),
(34,127,o),
(42,123,o),
(54,128,cs),
(89,144,o),
(119,175,o),
(144,220,cs),
(166,259,o),
(177,292,o),
(177,317,cs),
(177,326,o),
(176,334,o),
(174,341,cs),
(171,355,o),
(161,362,o),
(146,362,cs),
(132,362,o),
(120,355,o),
(109,340,cs),
(103,332,o),
(100,323,o),
(100,312,cs),
(100,299,o),
(104,286,o),
(111,275,c),
(100,269,o),
(90,266,o),
(81,266,cs),
(58,266,o),
(47,280,o),
(47,308,cs),
(47,320,o),
(50,331,o),
(56,342,cs),
(77,379,o),
(106,397,o),
(143,397,cs),
(151,397,o),
(159,396,o),
(166,394,cs),
(182,389,o),
(193,378,o),
(199,361,cs),
(204,347,o),
(205,334,o),
(203,322,c),
(216,341,o),
(229,363,o),
(258,380,cs),
(277,391,o),
(301,397,o),
(332,397,cs),
(349,397,o),
(363,395,o),
(374,391,cs),
(423,373,o),
(447,321,o),
(447,234,cs),
(447,215,o),
(445,196,o),
(442,177,cs),
(438,152,o),
(432,129,o),
(424,109,c),
(416,55,o),
(409,-3,o),
(402,-65,cs),
(394,-125,o),
(389,-168,o),
(388,-195,c),
(313,-190,o),
(271,-188,o),
(260,-188,cs),
(241,-188,o),
(208,-190,o),
(161,-194,cs),
(114,-198,o),
(84,-200,o),
(71,-200,c),
(72,-198,o),
(73,-191,o),
(74,-180,c)
);
},
{
closed = 1;
nodes = (
(77,54,o),
(106,33,o),
(146,32,cs),
(199,30,o),
(233,56,o),
(247,109,cs),
(254,138,o),
(255,166,o),
(250,193,cs),
(242,230,o),
(228,249,o),
(207,249,cs),
(202,249,o),
(197,248,o),
(192,246,c),
(179,214,o),
(156,179,o),
(122,142,cs),
(102,120,o),
(81,104,o),
(60,94,c)
);
},
{
closed = 1;
nodes = (
(71,-201,o),
(71,-201,o),
(71,-200,c)
);
}
);
width = 458;
}
);
}
{
color = (166,255,153,255);
glyphname = bullet.051;
layers = (
{
layerId = "B33422F0-91E4-47C9-8809-C0A5C4DE8881";
shapes = (
{
closed = 1;
nodes = (
(616,607,o),
(637,607,o),
(655,596,c),
(644,595,o),
(633,591,o),
(624,586,c),
(641,580,o),
(654,569,o),
(665,552,cs),
(678,533,o),
(682,511,o),
(679,488,cs),
(672,438,o),
(646,410,o),
(602,404,cs),
(596,403,o),
(590,403,o),
(584,403,cs),
(537,403,o),
(509,437,o),
(509,484,cs),
(509,523,o),
(528,563,o),
(552,574,c),
(535,579,o),
(517,579,o),
(497,575,cs),
(428,560,o),
(389,516,o),
(394,459,cs),
(397,426,o),
(429,400,o),
(460,400,cs),
(468,400,o),
(475,402,o),
(482,405,c),
(481,401,o),
(479,395,o),
(474,388,c),
(477,388,o),
(480,388,o),
(484,389,cs),
(498,393,o),
(515,395,o),
(534,397,cs),
(591,402,o),
(639,378,o),
(639,338,cs),
(639,319,o),
(628,301,o),
(607,285,cs),
(599,280,o),
(580,269,o),
(550,254,cs),
(503,231,o),
(450,209,o),
(422,177,cs),
(405,158,o),
(397,136,o),
(397,111,cs),
(397,102,o),
(398,93,o),
(401,84,cs),
(411,49,o),
(430,31,o),
(459,31,cs),
(478,31,o),
(497,38,o),
(516,53,cs),
(541,73,o),
(560,86,o),
(573,92,cs),
(594,102,o),
(615,106,o),
(638,104,cs),
(658,103,o),
(670,78,o),
(667,61,c),
(652,65,o),
(629,57,o),
(599,36,cs),
(569,16,o),
(535,1,o),
(498,-8,cs),
(471,-15,o),
(457,-33,o),
(457,-64,cs),
(457,-113,o),
(495,-155,o),
(544,-155,cs),
(550,-155,o),
(556,-154,o),
(563,-153,cs),
(612,-142,o),
(635,-115,o),
(630,-73,cs),
(627,-44,o),
(613,-27,o),
(588,-21,c),
(598,-14,o),
(610,-10,o),
(625,-10,cs),
(654,-10,o),
(681,-27,o),
(684,-52,cs),
(687,-82,o),
(677,-109,o),
(654,-134,cs),
(629,-161,o),
(595,-179,o),
(552,-186,cs),
(539,-188,o),
(525,-189,o),
(512,-189,cs),
(462,-189,o),
(426,-175,o),
(405,-146,cs),
(395,-132,o),
(390,-116,o),
(390,-97,cs),
(390,-56,o),
(408,-24,o),
(444,0,c),
(377,-2,o),
(337,25,o),
(324,80,cs),
(322,89,o),
(321,97,o),
(321,104,cs),
(321,137,o),
(339,167,o),
(374,196,cs),
(388,207,o),
(421,226,o),
(472,251,cs),
(553,290,l),
(564,297,o),
(570,306,o),
(570,317,cs),
(570,338,o),
(556,348,o),
(529,348,cs),
(506,348,o),
(482,340,o),
(456,323,cs),
(431,307,o),
(417,290,o),
(414,272,c),
(403,278,o),
(398,288,o),
(398,302,cs),
(398,319,o),
(404,334,o),
(415,348,cs),
(416,349,o),
(417,351,o),
(419,352,c),
(378,360,o),
(346,361,o),
(330,360,cs),
(290,356,o),
(259,341,o),
(238,316,cs),
(214,288,l),
(221,289,o),
(228,290,o),
(234,290,cs),
(275,290,o),
(299,266,o),
(308,217,cs),
(309,209,o),
(310,201,o),
(310,192,cs),
(310,146,o),
(297,105,o),
(270,68,cs),
(243,31,o),
(209,9,o),
(168,1,cs),
(154,-2,o),
(140,-3,o),
(127,-3,cs),
(96,-3,o),
(70,4,o),
(49,17,cs),
(35,26,o),
(24,39,o),
(15,56,cs),
(4,77,o),
(1,102,o),
(6,131,c),
(6,131,o),
(27,144,o),
(30,141,c),
(34,127,o),
(42,123,o),
(54,128,cs),
(89,144,o),
(119,175,o),
(144,220,cs),
(166,259,o),
(177,292,o),
(177,317,cs),
(177,326,o),
(176,334,o),
(174,341,cs),
(171,355,o),
(161,362,o),
(146,362,cs),
(132,362,o),
(120,355,o),
(109,340,cs),
(103,332,o),
(100,323,o),
(100,312,cs),
(100,299,o),
(104,286,o),
(111,275,c),
(100,269,o),
(90,266,o),
(81,266,cs),
(58,266,o),
(47,280,o),
(47,308,cs),
(47,320,o),
(50,331,o),
(56,342,cs),
(77,379,o),
(106,397,o),
(143,397,cs),
(151,397,o),
(159,396,o),
(166,394,cs),
(182,389,o),
(193,378,o),
(199,361,cs),
(204,347,o),
(205,334,o),
(203,322,c),
(218,343,o),
(239,362,o),
(265,379,cs),
(288,394,o),
(319,400,o),
(357,397,c),
(348,405,o),
(340,414,o),
(337,424,cs),
(333,435,o),
(331,447,o),
(331,459,cs),
(331,496,o),
(348,529,o),
(381,557,cs),
(411,582,o),
(446,598,o),
(485,603,cs),
(532,610,o),
(567,608,o),
(592,597,c)
);
},
{
closed = 1;
nodes = (
(77,54,o),
(106,33,o),
(146,32,cs),
(199,30,o),
(233,56,o),
(247,109,cs),
(254,138,o),
(255,166,o),
(250,193,cs),
(242,230,o),
(228,249,o),
(207,249,cs),
(202,249,o),
(197,248,o),
(192,246,c),
(179,214,o),
(156,179,o),
(122,142,cs),
(102,120,o),
(81,104,o),
(60,94,c)
);
},
{
closed = 1;
nodes = (
(583,561,o),
(575,554,o),
(566,541,cs),
(555,525,o),
(550,508,o),
(550,490,cs),
(550,452,o),
(564,432,o),
(593,430,cs),
(608,429,o),
(626,459,o),
(626,487,cs),
(626,519,o),
(608,557,o),
(591,564,c)
);
}
);
width = 684;
}
);
}
{
color = (166,255,153,255);
glyphname = bullet.052;
layers = (
{
layerId = "B33422F0-91E4-47C9-8809-C0A5C4DE8881";
shapes = (
{
closed = 1;
nodes = (
(668,607,o),
(689,607,o),
(707,596,c),
(696,595,o),
(685,591,o),
(676,586,c),
(714,569,o),
(732,546,o),
(730,516,cs),
(729,497,o),
(719,481,o),
(700,470,cs),
(684,460,o),
(667,455,o),
(648,456,cs),
(601,457,o),
(573,471,o),
(564,498,cs),
(562,504,o),
(561,510,o),
(561,515,cs),
(561,542,o),
(575,561,o),
(604,574,c),
(593,580,o),
(571,581,o),
(539,576,cs),
(512,573,o),
(489,564,o),
(469,550,cs),
(447,535,o),
(436,518,o),
(436,499,cs),
(436,492,o),
(438,484,o),
(441,477,cs),
(448,462,o),
(476,455,o),
(525,455,cs),
(532,455,o),
(544,455,o),
(559,456,cs),
(591,456,ls),
(608,456,o),
(620,455,o),
(629,454,cs),
(700,441,o),
(735,383,o),
(735,280,cs),
(735,221,o),
(726,169,o),
(707,126,cs),
(679,62,o),
(646,21,o),
(608,3,cs),
(600,-1,o),
(589,-2,o),
(574,-1,cs),
(559,0,o),
(549,3,o),
(542,8,cs),
(530,18,o),
(522,30,o),
(518,44,cs),
(516,54,o),
(514,64,o),
(513,74,c),
(482,7,o),
(465,-10,o),
(425,1,cs),
(392,10,o),
(370,33,o),
(360,69,cs),
(352,98,o),
(348,129,o),
(348,163,cs),
(348,190,o),
(351,215,o),
(357,237,cs),
(366,272,o),
(384,305,o),
(410,336,cs),
(424,351,l),
(381,360,o),
(347,362,o),
(330,360,cs),
(290,356,o),
(259,341,o),
(238,316,cs),
(214,288,l),
(221,289,o),
(228,290,o),
(234,290,cs),
(275,290,o),
(299,266,o),
(308,217,cs),
(309,209,o),
(310,201,o),
(310,192,cs),
(310,146,o),
(297,105,o),
(270,68,cs),
(243,31,o),
(209,9,o),
(168,1,cs),
(154,-2,o),
(140,-3,o),
(127,-3,cs),
(96,-3,o),
(70,4,o),
(49,17,cs),
(35,26,o),
(24,39,o),
(15,56,cs),
(4,77,o),
(1,102,o),
(6,131,c),
(6,131,o),
(27,144,o),
(30,141,c),
(34,127,o),
(42,123,o),
(54,128,cs),
(89,144,o),
(119,175,o),
(144,220,cs),
(166,259,o),
(177,292,o),
(177,317,cs),
(177,326,o),
(176,334,o),
(174,341,cs),
(171,355,o),
(161,362,o),
(146,362,cs),
(132,362,o),
(120,355,o),
(109,340,cs),
(103,332,o),
(100,323,o),
(100,312,cs),
(100,299,o),
(104,286,o),
(111,275,c),
(100,269,o),
(90,266,o),
(81,266,cs),
(58,266,o),
(47,280,o),
(47,308,cs),
(47,320,o),
(50,331,o),
(56,342,cs),
(77,379,o),
(106,397,o),
(143,397,cs),
(151,397,o),
(159,396,o),
(166,394,cs),
(182,389,o),
(193,378,o),
(199,361,cs),
(204,347,o),
(205,334,o),
(203,322,c),
(218,343,o),
(239,362,o),
(265,379,cs),
(292,396,o),
(328,401,o),
(374,395,cs),
(397,392,o),
(435,385,o),
(478,388,c),
(484,391,o),
(491,392,o),
(497,394,cs),
(506,396,o),
(515,397,o),
(524,397,cs),
(559,397,o),
(580,382,o),
(586,352,cs),
(590,329,o),
(572,307,o),
(544,302,c),
(552,341,o),
(526,365,o),
(502,365,cs),
(479,365,o),
(460,352,o),
(444,325,cs),
(431,306,o),
(422,283,o),
(417,256,cs),
(411,226,o),
(408,197,o),
(408,168,cs),
(408,114,o),
(419,73,o),
(441,46,cs),
(444,43,o),
(447,41,o),
(450,41,cs),
(457,41,o),
(465,50,o),
(474,68,cs),
(502,124,ls),
(511,143,o),
(526,153,o),
(546,153,cs),
(551,153,o),
(560,152,o),
(571,150,c),
(565,133,o),
(562,119,o),
(563,110,cs),
(564,87,o),
(566,62,o),
(575,49,cs),
(581,40,o),
(588,36,o),
(596,36,cs),
(620,36,o),
(646,74,o),
(659,126,cs),
(670,171,o),
(676,216,o),
(676,259,cs),
(676,306,o),
(669,344,o),
(655,372,cs),
(638,405,o),
(600,422,o),
(539,422,cs),
(529,422,o),
(515,422,o),
(498,421,cs),
(478,420,o),
(465,419,o),
(458,419,cs),
(414,418,o),
(387,430,o),
(378,457,cs),
(375,465,o),
(374,473,o),
(374,481,cs),
(374,522,o),
(400,555,o),
(452,580,cs),
(471,589,o),
(494,597,o),
(520,602,cs),
(559,609,o),
(600,608,o),
(644,597,c)
);
},
{
closed = 1;
nodes = (
(77,54,o),
(106,33,o),
(146,32,cs),
(199,30,o),
(233,56,o),
(247,109,cs),
(254,138,o),
(255,166,o),
(250,193,cs),
(242,230,o),
(228,249,o),
(207,249,cs),
(202,249,o),
(197,248,o),
(192,246,c),
(179,214,o),
(156,179,o),
(122,142,cs),
(102,120,o),
(81,104,o),
(60,94,c)
);
},
{
closed = 1;
nodes = (
(622,557,o),
(611,543,o),
(611,521,cs),
(611,501,o),
(625,484,o),
(646,488,cs),
(665,491,o),
(675,501,o),
(675,518,cs),
(675,541,o),
(664,557,o),
(643,564,c)
);
}
);
width = 746;
}
);
}
{
color = (166,255,153,255);
glyphname = bullet.054;
layers = (
{
layerId = "B33422F0-91E4-47C9-8809-C0A5C4DE8881";
shapes = (
{
closed = 1;
nodes = (
(218,-95,o),
(206,-91,o),
(192,-91,cs),
(179,-91,o),
(167,-95,o),
(157,-102,cs),
(144,-111,o),
(138,-123,o),
(138,-138,cs),
(138,-163,o),
(151,-181,o),
(177,-192,cs),
(192,-199,o),
(212,-202,o),
(235,-202,cs),
(257,-202,o),
(291,-197,o),
(337,-188,cs),
(367,-182,o),
(389,-179,o),
(403,-179,cs),
(420,-179,o),
(441,-184,o),
(465,-195,c),
(466,-168,o),
(473,-89,o),
(482,-22,cs),
(487,17,o),
(497,90,o),
(506,147,c),
(519,187,o),
(527,232,o),
(527,283,cs),
(527,382,o),
(500,454,o),
(446,501,cs),
(428,516,o),
(401,529,o),
(366,539,c),
(334,544,o),
(310,546,o),
(293,547,cs),
(277,548,o),
(258,551,o),
(237,557,c),
(234,548,o),
(232,535,o),
(233,518,cs),
(234,501,o),
(237,488,o),
(241,481,cs),
(256,454,o),
(279,436,o),
(308,428,cs),
(319,425,o),
(330,423,o),
(342,423,cs),
(382,423,o),
(399,436,o),
(394,463,c),
(383,454,o),
(366,453,o),
(342,460,cs),
(323,465,o),
(308,476,o),
(295,493,cs),
(288,503,o),
(282,514,o),
(279,525,c),
(304,523,o),
(326,517,o),
(347,507,cs),
(372,495,o),
(394,477,o),
(414,453,cs),
(431,433,o),
(444,409,o),
(453,380,cs),
(462,354,o),
(466,316,o),
(466,267,cs),
(466,214,o),
(461,167,o),
(450,126,cs),
(437,74,o),
(411,36,o),
(387,36,cs),
(379,36,o),
(372,40,o),
(366,49,cs),
(357,62,o),
(355,87,o),
(354,110,cs),
(353,119,o),
(356,133,o),
(362,150,c),
(351,152,o),
(342,153,o),
(337,153,cs),
(317,153,o),
(302,143,o),
(293,124,cs),
(265,68,ls),
(256,50,o),
(248,41,o),
(241,41,cs),
(238,41,o),
(235,43,o),
(232,46,cs),
(210,73,o),
(199,114,o),
(199,168,cs),
(199,197,o),
(202,226,o),
(208,256,cs),
(213,283,o),
(222,306,o),
(235,325,cs),
(251,352,o),
(270,365,o),
(293,365,cs),
(317,365,o),
(343,341,o),
(335,302,c),
(363,307,o),
(381,329,o),
(377,352,cs),
(371,382,o),
(350,397,o),
(315,397,cs),
(306,397,o),
(297,396,o),
(288,394,cs),
(271,390,o),
(255,383,o),
(240,372,c),
(238,389,o),
(223,397,o),
(197,397,cs),
(164,397,o),
(135,389,o),
(112,372,cs),
(83,351,o),
(58,323,o),
(39,289,cs),
(12,241,o),
(0,186,o),
(5,125,cs),
(8,91,o),
(16,62,o),
(29,37,cs),
(45,9,o),
(65,-3,o),
(88,0,cs),
(114,3,o),
(127,18,o),
(127,43,cs),
(127,52,o),
(125,60,o),
(120,68,c),
(116,51,o),
(109,45,o),
(98,48,cs),
(82,53,o),
(67,99,o),
(64,144,cs),
(61,184,o),
(63,222,o),
(70,257,cs),
(80,309,o),
(102,339,o),
(135,348,cs),
(143,350,o),
(151,351,o),
(159,351,cs),
(175,351,o),
(189,347,o),
(202,338,c),
(202,337,o),
(201,336,o),
(201,336,c),
(175,305,o),
(157,272,o),
(148,237,cs),
(142,215,o),
(139,190,o),
(139,163,cs),
(139,129,o),
(143,98,o),
(151,69,cs),
(161,33,o),
(183,10,o),
(216,1,cs),
(256,-10,o),
(273,7,o),
(304,74,c),
(305,64,o),
(307,54,o),
(309,44,cs),
(313,30,o),
(321,18,o),
(333,8,cs),
(340,3,o),
(350,0,o),
(365,-1,cs),
(380,-2,o),
(391,-1,o),
(399,3,cs),
(411,9,o),
(423,17,o),
(435,28,c),
(425,-37,o),
(420,-96,o),
(416,-138,c),
(401,-134,o),
(385,-135,o),
(366,-142,cs),
(307,-164,o),
(270,-175,o),
(257,-175,cs),
(220,-176,o),
(202,-163,o),
(202,-136,cs),
(202,-119,o),
(210,-107,o),
(227,-102,c)
);
}
);
width = 537;
}
);
}
{
color = (166,255,153,255);
glyphname = bullet.055;
layers = (
{
layerId = "B33422F0-91E4-47C9-8809-C0A5C4DE8881";
shapes = (
{
closed = 1;
nodes = (
(178,255,o),
(165,272,o),
(168,299,cs),
(169,314,o),
(177,330,o),
(191,344,c),
(181,349,o),
(170,351,o),
(159,351,cs),
(151,351,o),
(143,350,o),
(135,348,cs),
(102,339,o),
(80,309,o),
(70,257,cs),
(63,222,o),
(61,184,o),
(64,144,cs),
(67,99,o),
(82,53,o),
(98,48,cs),
(109,45,o),
(116,51,o),
(120,68,c),
(125,60,o),
(127,52,o),
(127,43,cs),
(127,18,o),
(114,3,o),
(88,0,cs),
(65,-3,o),
(45,9,o),
(29,37,cs),
(16,62,o),
(8,91,o),
(5,125,cs),
(0,186,o),
(12,241,o),
(39,289,cs),
(58,323,o),
(83,351,o),
(112,372,cs),
(135,389,o),
(164,397,o),
(197,397,cs),
(218,397,o),
(232,391,o),
(237,380,c),
(258,392,o),
(283,397,o),
(314,397,cs),
(362,397,o),
(386,376,o),
(386,333,cs),
(386,320,o),
(383,309,o),
(377,299,cs),
(367,284,o),
(333,256,o),
(276,215,cs),
(240,190,o),
(222,158,o),
(222,120,cs),
(222,100,o),
(229,81,o),
(244,63,cs),
(260,43,o),
(287,33,o),
(325,33,cs),
(384,33,o),
(440,77,o),
(461,134,cs),
(476,173,o),
(483,217,o),
(483,266,cs),
(483,313,o),
(477,351,o),
(466,380,cs),
(443,439,o),
(413,479,o),
(374,498,cs),
(354,508,o),
(332,513,o),
(307,513,cs),
(286,513,o),
(268,509,o),
(252,501,cs),
(231,492,o),
(221,478,o),
(221,460,cs),
(221,435,o),
(232,422,o),
(255,421,c),
(248,406,o),
(233,399,o),
(211,399,cs),
(185,399,o),
(172,413,o),
(172,441,cs),
(172,477,o),
(195,505,o),
(240,526,cs),
(263,537,o),
(294,542,o),
(331,542,cs),
(384,542,o),
(426,529,o),
(458,504,cs),
(511,461,o),
(538,393,o),
(538,298,cs),
(538,244,o),
(528,191,o),
(507,140,cs),
(489,95,o),
(461,60,o),
(422,34,cs),
(387,10,o),
(343,-2,o),
(291,-2,cs),
(220,-2,o),
(177,22,o),
(162,69,cs),
(159,80,o),
(157,91,o),
(157,102,cs),
(157,149,o),
(191,195,o),
(260,240,cs),
(307,271,o),
(328,300,o),
(323,327,cs),
(319,350,o),
(305,362,o),
(282,362,cs),
(275,362,o),
(268,360,o),
(261,357,cs),
(241,348,o),
(224,328,o),
(210,296,cs),
(205,283,o),
(203,268,o),
(206,250,c)
);
}
);
width = 549;
}
);
}
{
color = (166,255,153,255);
glyphname = bullet.059;
layers = (
{
layerId = "B33422F0-91E4-47C9-8809-C0A5C4DE8881";
shapes = (
{
closed = 1;
nodes = (
(296,410,o),
(262,422,o),
(209,422,cs),
(198,422,o),
(184,422,o),
(165,421,cs),
(143,420,o),
(128,419,o),
(121,419,cs),
(77,418,o),
(50,430,o),
(41,457,cs),
(38,465,o),
(37,473,o),
(37,481,cs),
(37,534,o),
(92,585,o),
(180,602,cs),
(223,611,o),
(268,610,o),
(316,599,cs),
(337,594,o),
(356,585,o),
(372,572,cs),
(391,555,o),
(399,537,o),
(398,516,cs),
(395,479,o),
(370,461,o),
(322,462,c),
(333,477,o),
(338,492,o),
(338,506,cs),
(338,549,o),
(291,579,o),
(230,579,cs),
(202,579,o),
(175,572,o),
(148,559,cs),
(115,544,o),
(99,524,o),
(99,499,cs),
(99,492,o),
(101,484,o),
(104,477,cs),
(111,462,o),
(139,455,o),
(189,455,cs),
(196,455,o),
(208,455,o),
(223,456,cs),
(256,456,ls),
(273,456,o),
(285,455,o),
(294,454,cs),
(349,443,o),
(382,406,o),
(393,342,cs),
(396,326,o),
(397,308,o),
(397,287,cs),
(397,223,o),
(387,168,o),
(368,122,cs),
(349,81,l),
(365,65,o),
(378,24,o),
(378,-6,cs),
(378,-56,o),
(354,-95,o),
(306,-124,cs),
(266,-149,o),
(219,-161,o),
(166,-161,cs),
(131,-161,o),
(99,-155,o),
(68,-144,cs),
(21,-126,o),
(-2,-101,o),
(1,-68,cs),
(3,-44,o),
(18,-32,o),
(45,-32,cs),
(56,-32,o),
(68,-35,o),
(80,-42,c),
(76,-47,o),
(74,-52,o),
(74,-59,cs),
(74,-73,o),
(84,-86,o),
(104,-97,cs),
(133,-113,o),
(167,-121,o),
(206,-121,cs),
(233,-121,o),
(255,-117,o),
(273,-108,cs),
(304,-93,o),
(319,-68,o),
(319,-33,cs),
(319,-4,o),
(316,3,o),
(300,22,c),
(276,5,o),
(250,-3,o),
(225,-2,cs),
(174,-1,o),
(136,45,o),
(132,102,cs),
(127,167,o),
(150,212,o),
(199,239,cs),
(217,249,o),
(226,265,o),
(226,288,cs),
(226,299,o),
(224,310,o),
(219,321,cs),
(208,347,o),
(189,360,o),
(163,360,cs),
(156,360,o),
(147,359,o),
(138,357,cs),
(115,352,o),
(84,322,o),
(72,295,cs),
(57,264,o),
(50,229,o),
(50,191,cs),
(50,176,o),
(51,162,o),
(54,147,cs),
(60,112,o),
(71,89,o),
(87,79,cs),
(92,76,o),
(98,75,o),
(105,78,cs),
(112,80,o),
(115,84,o),
(116,91,c),
(129,84,o),
(135,68,o),
(135,43,cs),
(135,38,o),
(134,33,o),
(133,30,c),
(122,9,o),
(106,-2,o),
(85,-2,cs),
(63,-2,o),
(46,7,o),
(34,26,cs),
(12,59,o),
(2,102,o),
(4,155,cs),
(6,209,o),
(18,255,o),
(40,294,cs),
(59,328,o),
(85,356,o),
(117,377,cs),
(137,390,o),
(163,397,o),
(194,397,cs),
(211,397,o),
(224,394,o),
(233,389,cs),
(265,370,o),
(281,342,o),
(281,305,cs),
(281,275,o),
(263,250,o),
(228,229,cs),
(203,214,o),
(190,185,o),
(190,140,cs),
(190,115,o),
(194,93,o),
(203,73,cs),
(214,48,o),
(231,35,o),
(253,36,cs),
(279,37,o),
(301,58,o),
(320,101,cs),
(334,134,o),
(341,178,o),
(341,235,cs),
(341,307,o),
(332,357,o),
(313,385,cs)
);
}
);
width = 408;
}
);
}
{
color = (166,255,153,255);
glyphname = bullet.061;
layers = (
{
layerId = "B33422F0-91E4-47C9-8809-C0A5C4DE8881";
shapes = (
{
closed = 1;
nodes = (
(184,356,o),
(176,359,o),
(167,359,cs),
(145,359,o),
(127,351,o),
(112,336,cs),
(91,315,o),
(78,289,o),
(72,256,cs),
(69,239,o),
(67,220,o),
(67,199,cs),
(67,141,o),
(79,97,o),
(103,67,cs),
(124,40,o),
(152,27,o),
(186,27,cs),
(195,27,o),
(204,28,o),
(213,31,cs),
(253,44,o),
(284,78,o),
(307,134,cs),
(323,175,o),
(331,222,o),
(331,277,cs),
(331,321,o),
(326,355,o),
(317,380,cs),
(294,441,o),
(264,480,o),
(227,498,cs),
(208,507,o),
(188,511,o),
(165,511,cs),
(144,511,o),
(126,507,o),
(109,499,cs),
(88,489,o),
(78,475,o),
(78,456,cs),
(78,433,o),
(89,422,o),
(111,421,c),
(106,410,o),
(97,404,o),
(84,401,cs),
(77,400,o),
(70,399,o),
(65,399,cs),
(46,399,o),
(35,408,o),
(31,427,cs),
(28,442,o),
(32,457,o),
(41,473,cs),
(52,494,o),
(71,510,o),
(98,522,cs),
(104,524,l),
(95,528,o),
(88,534,o),
(81,540,cs),
(58,560,o),
(48,585,o),
(49,616,cs),
(50,651,o),
(69,682,o),
(101,705,cs),
(130,726,o),
(162,735,o),
(201,736,cs),
(245,737,o),
(283,729,o),
(319,708,cs),
(354,687,o),
(372,658,o),
(372,622,cs),
(372,601,o),
(368,576,o),
(351,554,cs),
(338,538,o),
(310,520,o),
(284,518,c),
(293,513,o),
(302,507,o),
(310,501,cs),
(364,458,o),
(391,389,o),
(391,294,cs),
(391,237,o),
(380,183,o),
(358,133,cs),
(338,88,o),
(309,53,o),
(272,27,cs),
(248,10,o),
(216,1,o),
(177,-1,cs),
(101,-6,o),
(50,19,o),
(25,73,cs),
(12,101,o),
(5,135,o),
(5,176,cs),
(5,197,o),
(7,217,o),
(12,236,cs),
(22,277,o),
(44,314,o),
(78,345,cs),
(117,381,o),
(158,398,o),
(201,397,cs),
(230,396,o),
(253,383,o),
(269,359,cs),
(282,338,o),
(288,312,o),
(288,281,cs),
(288,246,o),
(279,215,o),
(261,187,cs),
(240,156,o),
(214,140,o),
(181,140,cs),
(158,140,o),
(141,148,o),
(128,164,cs),
(117,177,o),
(112,195,o),
(111,216,cs),
(110,243,o),
(115,268,o),
(126,292,cs),
(141,323,o),
(163,342,o),
(192,351,c)
);
},
{
closed = 1;
nodes = (
(234,650,o),
(247,627,o),
(247,589,cs),
(247,580,o),
(246,571,o),
(243,562,cs),
(240,551,o),
(235,542,o),
(228,535,c),
(239,534,o),
(250,531,o),
(259,528,c),
(293,545,o),
(310,570,o),
(310,605,cs),
(310,630,o),
(301,654,o),
(282,675,cs),
(263,697,o),
(235,708,o),
(199,708,cs),
(147,708,o),
(112,678,o),
(112,633,cs),
(112,604,o),
(120,582,o),
(136,568,cs),
(152,555,o),
(165,548,o),
(176,548,cs),
(190,548,o),
(197,557,o),
(197,574,cs),
(197,602,o),
(182,624,o),
(151,640,c),
(160,654,o),
(173,661,o),
(191,661,cs),
(197,661,o),
(203,660,o),
(209,658,cs)
);
},
{
closed = 1;
nodes = (
(164,263,o),
(163,251,o),
(163,240,cs),
(163,201,o),
(173,180,o),
(193,176,cs),
(208,173,o),
(219,185,o),
(227,213,cs),
(232,230,o),
(234,246,o),
(234,262,cs),
(234,289,o),
(227,313,o),
(214,333,c),
(189,325,o),
(174,306,o),
(167,276,cs)
);
}
);
width = 401;
}
);
}
{
color = (166,255,153,255);
glyphname = bullet.063;
layers = (
{
layerId = "B33422F0-91E4-47C9-8809-C0A5C4DE8881";
shapes = (
{
closed = 1;
nodes = (
(204,342,o),
(181,370,o),
(154,370,cs),
(147,370,o),
(139,368,o),
(132,364,cs),
(115,355,o),
(100,335,o),
(87,306,cs),
(72,273,o),
(65,235,o),
(65,193,cs),
(65,91,o),
(81,41,o),
(114,43,cs),
(128,44,o),
(140,54,o),
(151,75,c),
(181,152,ls),
(192,180,o),
(213,194,o),
(246,194,cs),
(252,194,o),
(257,194,o),
(262,193,c),
(251,174,o),
(244,152,o),
(243,127,cs),
(240,88,o),
(247,60,o),
(264,43,cs),
(271,36,o),
(281,32,o),
(294,32,cs),
(308,32,o),
(319,36,o),
(328,44,cs),
(350,63,o),
(361,96,o),
(360,143,cs),
(359,173,o),
(353,201,o),
(340,228,cs),
(321,266,o),
(312,297,o),
(312,321,cs),
(312,365,o),
(349,397,o),
(394,397,cs),
(423,397,o),
(442,384,o),
(451,357,c),
(406,352,o),
(383,334,o),
(383,303,cs),
(383,290,o),
(386,274,o),
(392,253,cs),
(396,242,o),
(400,230,o),
(403,218,cs),
(406,201,o),
(408,185,o),
(408,170,cs),
(408,121,o),
(391,77,o),
(357,36,cs),
(342,19,o),
(323,7,o),
(300,1,cs),
(292,-1,o),
(283,-2,o),
(274,-2,cs),
(251,-2,o),
(233,4,o),
(220,15,cs),
(203,30,o),
(191,50,o),
(184,76,c),
(152,9,o),
(124,-3,o),
(95,-2,cs),
(70,-1,o),
(49,9,o),
(33,30,cs),
(14,54,o),
(5,91,o),
(5,142,cs),
(5,196,o),
(17,248,o),
(40,298,cs),
(69,361,o),
(111,394,o),
(166,397,cs),
(196,399,o),
(217,390,o),
(230,370,cs),
(233,365,o),
(235,359,o),
(235,353,cs),
(235,330,o),
(226,316,o),
(208,310,c)
);
},
{
closed = 1;
nodes = (
(201,429,o),
(198,422,o),
(194,413,c),
(179,402,o),
(163,396,o),
(145,396,cs),
(112,396,o),
(82,417,o),
(77,442,cs),
(76,450,o),
(75,458,o),
(75,465,cs),
(75,492,o),
(86,518,o),
(107,543,cs),
(132,573,o),
(170,593,o),
(219,602,cs),
(258,609,o),
(299,608,o),
(343,597,c),
(367,607,o),
(388,607,o),
(406,596,c),
(395,595,o),
(384,591,o),
(375,586,c),
(412,570,o),
(430,543,o),
(430,506,cs),
(430,481,o),
(424,459,o),
(411,440,cs),
(397,419,o),
(378,407,o),
(354,404,cs),
(348,403,o),
(342,403,o),
(336,403,cs),
(299,403,o),
(275,421,o),
(264,457,cs),
(261,466,o),
(260,476,o),
(260,486,cs),
(260,525,o),
(278,563,o),
(303,574,c),
(278,579,o),
(258,580,o),
(242,578,cs),
(167,567,o),
(131,532,o),
(132,473,cs),
(133,442,o),
(147,426,o),
(175,426,cs),
(184,426,o),
(193,428,o),
(202,433,c)
);
},
{
closed = 1;
nodes = (
(334,561,o),
(326,553,o),
(317,540,cs),
(307,525,o),
(302,508,o),
(301,490,cs),
(300,452,o),
(314,432,o),
(344,430,cs),
(359,429,o),
(377,459,o),
(377,487,cs),
(377,519,o),
(359,557,o),
(342,564,c)
);
}
);
width = 446;
}
);
}
{
color = (166,255,153,255);
glyphname = bullet.064;
layers = (
{
layerId = "B33422F0-91E4-47C9-8809-C0A5C4DE8881";
shapes = (
{
closed = 1;
nodes = (
(106,614,o),
(89,567,o),
(80,505,cs),
(73,455,o),
(72,415,o),
(77,386,c),
(86,405,o),
(95,420,o),
(103,433,cs),
(116,453,o),
(155,505,o),
(222,589,c),
(236,597,o),
(245,601,o),
(249,601,cs),
(252,601,o),
(255,600,o),
(258,597,c),
(228,556,o),
(195,509,o),
(159,454,cs),
(139,423,o),
(120,387,o),
(103,346,cs),
(77,285,o),
(64,223,o),
(64,160,cs),
(64,71,o),
(89,27,o),
(139,28,cs),
(161,29,o),
(184,41,o),
(209,65,cs),
(234,90,o),
(253,121,o),
(264,158,cs),
(271,183,o),
(275,208,o),
(275,233,cs),
(275,277,o),
(264,310,o),
(241,333,cs),
(229,345,o),
(215,351,o),
(199,351,cs),
(180,351,o),
(160,344,o),
(141,329,cs),
(122,314,o),
(108,299,o),
(100,282,c),
(100,312,l),
(111,340,o),
(131,362,o),
(161,378,cs),
(186,392,o),
(212,399,o),
(238,399,cs),
(269,399,o),
(293,385,o),
(309,356,cs),
(322,333,o),
(328,305,o),
(328,270,cs),
(328,234,o),
(321,198,o),
(308,162,cs),
(291,117,o),
(266,79,o),
(233,48,cs),
(200,17,o),
(168,0,o),
(135,-2,cs),
(92,-5,o),
(61,3,o),
(40,22,cs),
(16,43,o),
(4,79,o),
(5,130,cs),
(6,171,o),
(12,214,o),
(24,257,c),
(19,288,o),
(16,322,o),
(16,360,cs),
(16,437,o),
(26,502,o),
(46,554,cs),
(55,577,o),
(68,598,o),
(85,617,cs),
(102,636,o),
(117,646,o),
(129,645,c)
);
}
);
width = 337;
}
);
}
{
color = (166,255,153,255);
glyphname = bullet.067;
layers = (
{
layerId = "B33422F0-91E4-47C9-8809-C0A5C4DE8881";
shapes = (
{
closed = 1;
nodes = (
(456,614,o),
(439,567,o),
(430,505,cs),
(426,480,o),
(423,396,o),
(431,331,cs),
(431,330,o),
(431,329,o),
(432,329,c),
(449,296,o),
(457,258,o),
(457,215,cs),
(457,179,o),
(450,144,o),
(437,109,cs),
(422,72,o),
(401,43,o),
(375,22,cs),
(364,13,o),
(344,6,o),
(316,2,cs),
(305,1,o),
(286,-2,o),
(260,-6,c),
(262,32,o),
(295,20,o),
(295,83,cs),
(296,109,o),
(298,128,o),
(301,139,cs),
(307,158,o),
(318,174,o),
(335,187,cs),
(348,196,o),
(361,201,o),
(373,201,cs),
(380,201,o),
(383,199,o),
(384,196,c),
(364,185,o),
(351,169,o),
(345,148,cs),
(343,141,o),
(341,127,o),
(340,106,c),
(342,84,o),
(345,62,o),
(349,41,c),
(379,70,o),
(395,118,o),
(397,183,cs),
(398,220,o),
(392,255,o),
(378,287,cs),
(360,328,o),
(334,348,o),
(300,348,cs),
(270,348,o),
(243,329,o),
(219,291,cs),
(210,277,o),
(202,258,o),
(194,235,c),
(203,240,o),
(214,242,o),
(226,242,cs),
(265,242,o),
(292,210,o),
(292,171,cs),
(292,136,o),
(280,103,o),
(257,71,cs),
(224,26,o),
(185,2,o),
(139,-1,cs),
(84,-5,o),
(43,20,o),
(18,73,cs),
(8,94,o),
(3,121,o),
(3,154,cs),
(3,209,o),
(15,259,o),
(40,303,cs),
(75,366,o),
(116,397,o),
(161,397,cs),
(188,397,o),
(201,386,o),
(201,365,cs),
(201,354,o),
(196,342,o),
(186,329,c),
(172,350,o),
(157,361,o),
(141,361,cs),
(136,361,o),
(130,360,o),
(124,358,cs),
(103,351,o),
(86,330,o),
(75,297,cs),
(66,271,o),
(62,243,o),
(62,214,cs),
(61,163,o),
(68,121,o),
(82,89,cs),
(99,50,o),
(124,32,o),
(157,34,cs),
(176,35,o),
(192,43,o),
(207,56,cs),
(226,73,o),
(237,97,o),
(239,127,cs),
(242,159,o),
(229,191,o),
(198,191,cs),
(183,191,o),
(171,185,o),
(162,173,c),
(161,176,o),
(157,182,o),
(152,189,c),
(155,206,o),
(161,229,o),
(170,260,c),
(183,290,o),
(192,310,o),
(198,320,cs),
(211,341,o),
(228,360,o),
(251,377,cs),
(268,390,o),
(293,397,o),
(324,397,cs),
(337,397,o),
(349,396,o),
(361,393,cs),
(370,390,l),
(371,421,o),
(372,443,o),
(374,459,cs),
(378,496,o),
(385,529,o),
(396,556,cs),
(405,579,o),
(419,599,o),
(436,618,cs),
(453,637,o),
(467,646,o),
(479,645,c)
);
}
);
width = 467;
}
);
}
